<svg xmlns="http://www.w3.org/2000/svg" viewBox="0 0 533.2 238.31"><title>AddPlayers</title><g id="Layer_2" data-name="Layer 2"><g id="Layer_1-2" data-name="Layer 1"><g id="AddPlayers"><g style="opacity:0.8"><path d="M139.38,90.91,169.76,1H187l30.38,89.91H205.75l-7.69-23.42h-39.4l-7.57,23.42ZM162,57.73h32.94L179.76,11.49H177Z" style="fill:aqua"/><path d="M231.37,90.91V1h48.8l18.67,18.91V72L280.17,90.91ZM242.47,81h32.7l12.56-12.81V23.69L275.17,10.88h-32.7Z" style="fill:aqua"/><path d="M319.09,90.91V1h48.8l18.66,18.91V72L367.89,90.91ZM330.19,81h32.69l12.57-12.81V23.69L362.88,10.88H330.19Z" style="fill:aqua"/><path d="M5,237.31V147.4H52.46l12.69,12.81v30.87L52.46,203.89H16.1v33.42ZM16.1,194H47.46L54,187.29V164l-6.58-6.83-31.36.12Z" style="fill:aqua"/><path d="M81.13,237.31V147.4h11.1v79.67h45.26v10.24Z" style="fill:aqua"/><path d="M144.81,237.31l30.38-89.91h17.2l30.38,89.91H211.18l-7.69-23.42H164.08l-7.56,23.42Zm22.57-33.18h32.94l-15.13-46.24h-2.81Z" style="fill:aqua"/><path d="M250.7,237.31v-36L219.23,147.4h12.69l23.05,41h2.44l23.18-41h12.57l-31.35,53.92v36Z" style="fill:aqua"/><path d="M307.19,237.31V147.4h59.29v10.25H318.29V185h43.07V195.1H318.29v32h48.19v10.24Z" style="fill:aqua"/><path d="M385.15,237.31V147.4h49.16L447,160.21v28.67l-12.69,12.81H434l16.22,35.62H437.85l-16-35.62H396.25v35.62Zm11.1-45.5h33.06l6.59-6.71V164l-6.59-6.71H396.25Z" style="fill:aqua"/><path d="M468.23,237.31V227.07h44.29l6.58-6.71V202.42l-6.58-6.71H477.74L465.06,183V160.21l12.68-12.81h47.83v10.25H482.75L476,164.36l.12,14.88,6.59,6.71h34.77l12.68,12.81V224.5l-12.68,12.81Z" style="fill:aqua"/><path d="M142.38,91.91,172.76,2H190l30.38,89.91H208.75l-7.69-23.42h-39.4l-7.57,23.42ZM165,58.73h32.94L182.76,12.49H180Z" style="fill:aqua"/><path d="M234.37,91.91V2h48.8l18.67,18.91V73L283.17,91.91ZM245.47,82h32.7l12.56-12.81V24.69L278.17,11.88h-32.7Z" style="fill:aqua"/><path d="M322.09,91.91V2h48.8l18.66,18.91V73L370.89,91.91ZM333.19,82h32.69l12.57-12.81V24.69L365.88,11.88H333.19Z" style="fill:aqua"/><path d="M8,238.31V148.4H55.46l12.69,12.81v30.87L55.46,204.89H19.1v33.42ZM19.1,195H50.46L57,188.29V165l-6.58-6.83-31.36.12Z" style="fill:aqua"/><path d="M84.13,238.31V148.4h11.1v79.67h45.26v10.24Z" style="fill:aqua"/><path d="M147.81,238.31l30.38-89.91h17.2l30.38,89.91H214.18l-7.69-23.42H167.08l-7.56,23.42Zm22.57-33.18h32.94l-15.13-46.24h-2.81Z" style="fill:aqua"/><path d="M253.7,238.31v-36L222.23,148.4h12.69l23.05,41h2.44l23.18-41h12.57l-31.35,53.92v36Z" style="fill:aqua"/><path d="M310.19,238.31V148.4h59.29v10.25H321.29V186h43.07V196.1H321.29v32h48.19v10.24Z" style="fill:aqua"/><path d="M388.15,238.31V148.4h49.16L450,161.21v28.67l-12.69,12.81H437l16.22,35.62H440.85l-16-35.62H399.25v35.62Zm11.1-45.5h33.06l6.59-6.71V165l-6.59-6.71H399.25Z" style="fill:aqua"/><path d="M471.23,238.31V228.07h44.29l6.58-6.71V203.42l-6.58-6.71H480.74L468.06,184V161.21l12.68-12.81h47.83v10.25H485.75L479,165.36l.12,14.88,6.59,6.71h34.77l12.68,12.81V225.5l-12.68,12.81Z" style="fill:aqua"/></g><g style="opacity:0.8"><path d="M134.38,89.91,164.76,0H182l30.38,89.91H200.75l-7.69-23.42h-39.4l-7.57,23.42ZM157,56.73h32.94L174.76,10.49H172Z" style="fill:#f0f"/><path d="M226.37,89.91V0h48.8l18.67,18.91V71L275.17,89.91ZM237.47,80h32.7l12.56-12.81V22.69L270.17,9.88h-32.7Z" style="fill:#f0f"/><path d="M314.09,89.91V0h48.8l18.66,18.91V71L362.89,89.91ZM325.19,80h32.69l12.57-12.81V22.69L357.88,9.88H325.19Z" style="fill:#f0f"/><path d="M0,236.31V146.4H47.46l12.69,12.81v30.87L47.46,202.89H11.1v33.42ZM11.1,193H42.46L49,186.29V163l-6.58-6.83-31.36.12Z" style="fill:#f0f"/><path d="M76.13,236.31V146.4h11.1v79.67h45.26v10.24Z" style="fill:#f0f"/><path d="M139.81,236.31l30.38-89.91h17.2l30.38,89.91H206.18l-7.69-23.42H159.08l-7.56,23.42Zm22.57-33.18h32.94l-15.13-46.24h-2.81Z" style="fill:#f0f"/><path d="M245.7,236.31v-36L214.23,146.4h12.69l23.05,41h2.44l23.18-41h12.57l-31.35,53.92v36Z" style="fill:#f0f"/><path d="M302.19,236.31V146.4h59.29v10.25H313.29V184h43.07V194.1H313.29v32h48.19v10.24Z" style="fill:#f0f"/><path d="M380.15,236.31V146.4h49.16L442,159.21v28.67l-12.69,12.81H429l16.22,35.62H432.85l-16-35.62H391.25v35.62Zm11.1-45.5h33.06l6.59-6.71V163l-6.59-6.71H391.25Z" style="fill:#f0f"/><path d="M463.23,236.31V226.07h44.29l6.58-6.71V201.42l-6.58-6.71H472.74L460.06,182V159.21l12.68-12.81h47.83v10.25H477.75L471,163.36l.12,14.88,6.59,6.71h34.77l12.68,12.81V223.5l-12.68,12.81Z" style="fill:#f0f"/></g><path d="M137.38,90.91,167.76,1H185l30.38,89.91H203.75l-7.69-23.42h-39.4l-7.57,23.42ZM160,57.73h32.94L177.76,11.49H175Z" style="fill:#fff"/><path d="M229.37,90.91V1h48.8l18.67,18.91V72L278.17,90.91ZM240.47,81h32.7l12.56-12.81V23.69L273.17,10.88h-32.7Z" style="fill:#fff"/><path d="M317.09,90.91V1h48.8l18.66,18.91V72L365.89,90.91ZM328.19,81h32.69l12.57-12.81V23.69L360.88,10.88H328.19Z" style="fill:#fff"/><path d="M3,237.31V147.4H50.46l12.69,12.81v30.87L50.46,203.89H14.1v33.42ZM14.1,194H45.46L52,187.29V164l-6.58-6.83-31.36.12Z" style="fill:#fff"/><path d="M79.13,237.31V147.4h11.1v79.67h45.26v10.24Z" style="fill:#fff"/><path d="M142.81,237.31l30.38-89.91h17.2l30.38,89.91H209.18l-7.69-23.42H162.08l-7.56,23.42Zm22.57-33.18h32.94l-15.13-46.24h-2.81Z" style="fill:#fff"/><path d="M248.7,237.31v-36L217.23,147.4h12.69l23.05,41h2.44l23.18-41h12.57l-31.35,53.92v36Z" style="fill:#fff"/><path d="M305.19,237.31V147.4h59.29v10.25H316.29V185h43.07V195.1H316.29v32h48.19v10.24Z" style="fill:#fff"/><path d="M383.15,237.31V147.4h49.16L445,160.21v28.67l-12.69,12.81H432l16.22,35.62H435.85l-16-35.62H394.25v35.62Zm11.1-45.5h33.06l6.59-6.71V164l-6.59-6.71H394.25Z" style="fill:#fff"/><path d="M466.23,237.31V227.07h44.29l6.58-6.71V202.42l-6.58-6.71H475.74L463.06,183V160.21l12.68-12.81h47.83v10.25H480.75L474,164.36l.12,14.88,6.59,6.71h34.77l12.68,12.81V224.5l-12.68,12.81Z" style="fill:#fff"/></g></g></g></svg>