<svg xmlns="http://www.w3.org/2000/svg" viewBox="0 0 402.98 307.6"><title>bottle_1</title><g id="Layer_2" data-name="Layer 2"><g id="Capa_1" data-name="Capa 1"><path d="M279.9,114.31l-4.58-13.79a19,19,0,0,1,1.43-15.9l25-42.3a14,14,0,0,0,10.6-6.58c4.14-7,1-16.56-7.08-21.32L285.44,2.66c-8-4.77-18-2.95-22.1,4a14,14,0,0,0-.67,12.47l-25,42.29a19,19,0,0,1-13.26,8.91L210.09,73C196,75.57,184.46,83.31,177.67,94.77L90.25,242.46c-4.14,7-1,16.56,7.08,21.33L166.87,305c8,4.76,18,2.94,22.1-4.05l87.42-147.69C283.18,141.75,284.42,127.93,279.9,114.31Zm.75-103.56,19.87,11.76c2.91,1.73,4.06,5.19,2.56,7.72s-5.08,3.18-8,1.46L275.22,19.93c-2.91-1.72-4.06-5.18-2.56-7.71S277.74,9,280.65,10.75ZM150.85,161.34l10.24,6.07c2.57,1.52,5.73.94,7.06-1.3s.31-5.28-2.27-6.8l-10.24-6.07,5.43-9.17L181.25,156c2.57,1.52,5.73,1,7.05-1.29s.32-5.28-2.26-6.8L165.87,136l8-13.49L204,140.3c2.91,1.72,4.05,5.18,2.56,7.71l-40.9,69.1c-1.5,2.53-5.08,3.18-8,1.46l-30.12-17.82Zm28.81,134c-1.5,2.53-5.09,3.18-8,1.46l-69.53-41.16c-2.91-1.72-4.06-5.18-2.57-7.71l23.17-39.14,30.11,17.83c8,4.76,18,2.94,22.1-4l40.9-69.09c4.14-7,1-16.56-7.08-21.33l-30.11-17.82L187,100.29c5.5-9.3,14.84-15.58,26.3-17.68L227.58,80C236,78.45,242.9,73.83,247,67l23.17-39.14.31.19,19.86,11.76.32.17L267.44,79.11c-4.05,6.84-4.8,15.1-2.09,23.24l4.58,13.79c3.67,11,2.66,22.26-2.85,31.56Z" style="fill:#fff"/><path d="M254.27,134.64c-2.58-1.52-5.73-.94-7.06,1.3l-23.52,39.73c-1.32,2.23-.31,5.28,2.26,6.8s5.73.95,7.06-1.29l23.52-39.73C257.85,139.21,256.84,136.17,254.27,134.64Z" style="fill:#fff"/><path d="M248.65,120a6,6,0,0,0,6.58,3.9,4.28,4.28,0,0,0,3.39-5.72L254,104.42a6,6,0,0,0-6.58-3.9,4.28,4.28,0,0,0-3.39,5.73Z" style="fill:#fff"/><path d="M132.22,250.18l-5.28-3.13,7.83-13.22c1.32-2.24.31-5.28-2.26-6.81s-5.73-.94-7,1.29l-10.23,17.28c-1.32,2.23-.31,5.28,2.26,6.8l9.94,5.88c2.57,1.53,5.73,1,7-1.29S134.79,251.7,132.22,250.18Z" style="fill:#fff"/><path d="M162,267.82l-9.93-5.88c-2.57-1.53-5.73-.95-7.06,1.29s-.31,5.28,2.26,6.8l9.94,5.88c2.57,1.53,5.73.95,7.05-1.29S164.59,269.34,162,267.82Z" style="fill:#fff"/><path d="M0,134.19,8.68,123l19.79,13.54C16.6,95.83,34.4,50.41,74.84,26.9a108.75,108.75,0,0,1,50.84-14.62,107.23,107.23,0,0,1,49.86,10.37l-6.79,12.26A92.28,92.28,0,0,0,82.3,38.56C43.82,60.93,29.21,106.42,46.72,143.91l23.74-30.54,11.67,8-35,45.08Z" style="fill:#fff"/><path d="M403,172l-6.48,11.93-20-11.44c16.31,39.13,6,85.86-28,113.18a93,93,0,0,1-44.71,19.54,94.15,94.15,0,0,1-47.14-5.29l4.59-12.81a79.35,79.35,0,0,0,78.86-12.24c32.34-26,39.7-72.47,18.64-107.83l-17.72,32.6-11.78-6.74,26.15-48.12Z" style="fill:#fff"/></g></g></svg>