<svg xmlns="http://www.w3.org/2000/svg" viewBox="0 0 78.84 65.49">
  <title>Layer 1 (2)</title>
  <g id="Layer_2" data-name="Layer 2">
    <g id="Layer_1-2" data-name="Layer 1">
      <g>
        <path d="M25.18,6.26l-9.6-2a5.33,5.33,0,0,0-2,0c-2,.34-4,1.77-5.8,4h0c-3.26,4-6,10.74-7.17,18.64C-1.46,40.66,1.86,52.87,8,54.16h0l9.59,2c6.18,1.28,12.88-8.85,15-22.63s-1.24-26-7.42-27.27ZM8.47,51.35c-3.39-.7-7-10.35-5-23.86C4.57,20.41,7,13.92,10.11,10.12c1.8-2.23,3.64-3.34,5.05-3,3.39.71,7,10.36,5,23.87C19.06,38,16.59,44.5,13.52,48.3,11.71,50.53,9.87,51.65,8.47,51.35Zm9.6,2-4.45-.92A13.24,13.24,0,0,0,15,51.11l6,1.25A3.84,3.84,0,0,1,18.07,53.35Zm4.63-2.58-6.32-1.31c.39-.52.77-1.09,1.14-1.69L24,49.11A18.42,18.42,0,0,1,22.7,50.77ZM25,47.4,18.49,46c.3-.56.59-1.14.86-1.75L26,45.67C25.66,46.28,25.35,46.85,25,47.4Zm1.72-3.5-6.65-1.39c.23-.58.46-1.17.67-1.79l6.67,1.39C27.22,42.73,27,43.33,26.76,43.9Zm1.29-3.59-6.68-1.39c.2-.69.39-1.41.58-2.13l6.7,1.39Q28.37,39.27,28.05,40.31Zm1-4-6.71-1.4c.18-.8.34-1.63.47-2.47l6.72,1.4C29.42,34.71,29.26,35.54,29.08,36.34ZM29.85,32l-6.72-1.4c.11-.85.2-1.69.28-2.52l6.71,1.4Q30,30.71,29.85,32Zm.4-4.42-6.7-1.4c0-.75.07-1.5.08-2.23l6.68,1.39C30.31,26.06,30.29,26.81,30.25,27.58Zm0-4.18L23.6,22c0-.66-.06-1.31-.1-2l6.64,1.38C30.2,22.07,30.24,22.73,30.27,23.4Zm-.35-3.94-6.61-1.37c-.08-.68-.18-1.34-.29-2l6.54,1.36C29.69,18.1,29.81,18.76,29.92,19.46Zm-.87-4L22.6,14.09c-.17-.72-.36-1.4-.57-2.05l6.32,1.31C28.6,14,28.83,14.68,29.05,15.43Zm-1.81-4.24-6-1.24C21,9.46,20.8,9,20.56,8.57c0-.12,0-.26,0-.38l4.23.88A4.33,4.33,0,0,1,27.24,11.19Z"/>
        <path d="M45.79,24.58a1.45,1.45,0,0,0-1.7-1,1.23,1.23,0,0,0-.86,1.61,27.65,27.65,0,0,1-3.17,23.42,1.36,1.36,0,0,0,.34,1.87,1.34,1.34,0,0,0,1.84-.18l0,0A29.72,29.72,0,0,0,45.79,24.58Z"/>
        <path d="M57,35.64A23.07,23.07,0,0,1,52.4,51.4a1.38,1.38,0,0,0,2.07,1.82l.24-.28a25.46,25.46,0,0,0,5-17.29,1.45,1.45,0,0,0-1.42-1.34A1.24,1.24,0,0,0,57,35.64Z"/>
        <path d="M76.2,53.18a24.37,24.37,0,0,1-5.83,10,1.31,1.31,0,0,0,0,1.88,1.38,1.38,0,0,0,1.91.11,19.68,19.68,0,0,0,1.82-2,27.35,27.35,0,0,0,4.69-9,1.4,1.4,0,0,0-.93-1.69A1.26,1.26,0,0,0,76.2,53.18Z"/>
        <path d="M22.84.34a.94.94,0,0,0-.55,1.26,1.07,1.07,0,0,0,1.32.62c.05,0,5.56-1.81,10.11,4.52a1,1,0,0,0,1.41.3.73.73,0,0,0,.2-.19,1,1,0,0,0,0-1.19C29.87-2,22.91.31,22.84.34Z"/>
        <path d="M25.52,59.09A8.46,8.46,0,0,1,17,62.26a1,1,0,0,0-1.2.68,1.07,1.07,0,0,0,.77,1.24,10.4,10.4,0,0,0,10.59-3.79,1,1,0,0,0-.19-1.4A1,1,0,0,0,25.52,59.09Z"/>
        <path d="M67,43.73c.84,8.33-3.41,13.19-3.45,13.23a1.24,1.24,0,0,0,1.85,1.62l.2-.23c.92-1.13,4.56-6.23,3.73-14.52A1.38,1.38,0,0,0,68,42.64,1,1,0,0,0,67,43.73Z"/>
      </g>
    </g>
  </g>
</svg>
