<svg xmlns="http://www.w3.org/2000/svg" viewBox="0 0 377.6 371.19"><title>Asset 1</title><g id="Layer_2" data-name="Layer 2"><g id="Layer_1-2" data-name="Layer 1"><path d="M362.69,146a50.28,50.28,0,0,0-49.75-13.09l-22.12,6.19a67.09,67.09,0,0,0-80.89-43.72A45.85,45.85,0,0,0,205,97c.05-.52.08-1,.08-1.58a16.24,16.24,0,0,0-10.64-15.23c5.47,0,12.64.21,21.53.8h.82V77.72C208.13,75.66,202,72.37,197.84,67s-6.16-13.57-6.16-23.44c10.27,0,18.09,2.06,23.43,5.76,5.35,4.11,9,10.28,10.7,18.91h3.29c-.41-5.34-.41-10.69-.41-15.21-.41-4.53-.41-8.64-.41-12.75s0-8.22.41-12.75c0-4.52,0-9.46.41-15.21h-3.29c-1.65,8.63-5.35,14.8-10.7,18.91S202,37.42,191.68,37.42q0-15.42,6.16-23.44c4.11-5.34,10.29-9,18.92-10.69V0c-6.17.41-11.1.41-15.62.41-4.53.41-8.64.41-12.34.41S181,.82,176.47.41c-4.53,0-9.46,0-15.63-.41V3.29c8.63,1.65,14.81,5.35,18.92,10.69s6.16,13.16,6.16,23.44q-15.4,0-23.43-6.17c-5.35-4.11-9.05-10.28-10.7-18.91H148.5c.41,5.75.41,10.69.41,15.21.42,4.53.42,8.64.42,12.75s0,8.22-.42,12.75c0,4.52,0,9.87-.41,15.21h3.29c1.65-8.63,5.35-14.8,10.7-18.91,5.34-3.7,13.16-5.76,23.43-5.76,0,9.87-2,18.09-6.16,23.44s-10.29,8.63-18.92,10.69V81h.82c8.89-.59,16.06-.76,21.53-.8a16.24,16.24,0,0,0-10.64,15.23c0,.53,0,1.06.08,1.58a45.85,45.85,0,0,0-5-1.67,67.09,67.09,0,0,0-80.89,43.72l-22.12-6.19A50.91,50.91,0,0,0,2,195.77l21.57,76.15H9v17.45H22.83v64.38H9v17.44H363.73V353.75H349.92V289.37h13.81V271.92h-9.68l21.57-76.16A50.29,50.29,0,0,0,362.69,146Zm-321,184.55a7.67,7.67,0,1,1,7.67-7.66A7.66,7.66,0,0,1,41.69,330.52ZM26.23,188.9a25.69,25.69,0,0,1,31.64-31.75l25.73,7.19a68.34,68.34,0,0,0,1.2,8.93l19.91,98.65h-55ZM73.36,325.19a2.34,2.34,0,1,1,2.33-2.33A2.33,2.33,0,0,1,73.36,325.19ZM105,330.52a7.67,7.67,0,1,1,7.66-7.66A7.66,7.66,0,0,1,105,330.52Zm4.47-162.24a41.73,41.73,0,0,1,51.67-48.58,20.28,20.28,0,0,1,15,19.56V271.92H130.42ZM143,325.19a2.34,2.34,0,1,1,2.33-2.33A2.33,2.33,0,0,1,143,325.19Zm62.31,10.22L188.8,348l-16.54-12.55v-25.1l16.54-12.55,16.54,12.55Zm29.23-10.22a2.34,2.34,0,1,1,2.34-2.33A2.33,2.33,0,0,1,234.57,325.19ZM201.4,271.92V139.26a20.28,20.28,0,0,1,15-19.56,41.73,41.73,0,0,1,51.67,48.58L247.19,271.92Zm71.17,58.6a7.67,7.67,0,1,1,7.67-7.66A7.66,7.66,0,0,1,272.57,330.52Zm31.67-5.33a2.34,2.34,0,1,1,2.33-2.33A2.33,2.33,0,0,1,304.24,325.19Zm31.67,5.33a7.67,7.67,0,1,1,7.66-7.66A7.66,7.66,0,0,1,335.91,330.52ZM351.37,188.9l-23.5,83h-55l19.91-98.65a66.67,66.67,0,0,0,1.2-8.93l25.73-7.19a25.69,25.69,0,0,1,31.64,31.75Z" style="fill:#fade1c"/></g></g></svg>