<svg xmlns="http://www.w3.org/2000/svg" viewBox="0 0 638.59 632.75"><title>Asset 1</title><g id="Layer_2" data-name="Layer 2"><g id="Layer_1-2" data-name="Layer 1"><g style="opacity:0.8"><path d="M85.65,630.75H60.22a5.93,5.93,0,0,1-4.32-1.34,5.93,5.93,0,0,1-1.33-4.32V548H31.49a5.93,5.93,0,0,1-4.32-1.34,5.9,5.9,0,0,1-1.33-4.31v-19A5.93,5.93,0,0,1,27.17,519a5.93,5.93,0,0,1,4.32-1.33h82.89a4.84,4.84,0,0,1,5.66,5.65v19a4.85,4.85,0,0,1-5.66,5.65H91.3v77.08a4.84,4.84,0,0,1-5.65,5.66Z" style="fill:#ff25ff"/><path d="M161,625.09a4.84,4.84,0,0,1-5.65,5.66H132.28a4.84,4.84,0,0,1-5.65-5.66V583.65a46.24,46.24,0,0,1,1.49-10.84,119.14,119.14,0,0,1,4.63-14.28l13.66-35.64a7.4,7.4,0,0,1,2.91-3.93,9.35,9.35,0,0,1,5.1-1.25h42.23A9.09,9.09,0,0,1,201.6,519a7.43,7.43,0,0,1,2.9,3.93l13.66,35.64a119.14,119.14,0,0,1,4.63,14.28,46.78,46.78,0,0,1,1.49,10.84v41.44a4.84,4.84,0,0,1-5.65,5.66H194.92a6.81,6.81,0,0,1-4.63-1.34,5.55,5.55,0,0,1-1.49-4.32v-22H161Zm9-74.41-7.38,23.86h24.65l-7.38-23.86a5.83,5.83,0,0,0-1.33-2,2.4,2.4,0,0,0-1.65-.63h-3.93a2.39,2.39,0,0,0-1.64.63A5.7,5.7,0,0,0,170,550.68Z" style="fill:#ff25ff"/><path d="M246.73,630.75a4.85,4.85,0,0,1-5.65-5.66V606.41a4.84,4.84,0,0,1,5.65-5.65h15.55V548H246.73a4.85,4.85,0,0,1-5.65-5.65v-19a5.93,5.93,0,0,1,1.34-4.32c.88-.89,2.32-1.33,4.31-1.33h66.89a4.84,4.84,0,0,1,5.65,5.65v19a4.85,4.85,0,0,1-5.65,5.65H298.39v52.75h15.23a4.84,4.84,0,0,1,5.65,5.65v18.68a4.85,4.85,0,0,1-5.65,5.66Z" style="fill:#ff25ff"/><path d="M424.14,630.75H344.23a4.84,4.84,0,0,1-5.65-5.66V523.36a4.83,4.83,0,0,1,5.65-5.65h24.33a4.84,4.84,0,0,1,5.66,5.65v77.71h21.51V575.64a4.83,4.83,0,0,1,5.65-5.65h22.76a4.83,4.83,0,0,1,5.65,5.65v49.45a4.84,4.84,0,0,1-5.65,5.66Z" style="fill:#ff25ff"/><path d="M500.13,630.75H450.52a4.85,4.85,0,0,1-5.66-5.66V606.73a4.85,4.85,0,0,1,5.66-5.66h42.23a3.61,3.61,0,0,0,3.06-1.33,5.14,5.14,0,0,0,1-3.22,6.15,6.15,0,0,0-1-3.92,4.16,4.16,0,0,0-3.06-1.42l-23.55-3.29q-11-1.57-17.66-7.23t-6.68-18.84V545.34q0-13.35,8.64-20.49t23.86-7.14h44a4.84,4.84,0,0,1,5.66,5.65V542a4.84,4.84,0,0,1-5.66,5.65H484.74A3.84,3.84,0,0,0,481.6,549a5.14,5.14,0,0,0-1.1,3.37,5.49,5.49,0,0,0,1.1,3.46,4.2,4.2,0,0,0,3.14,1.57l23.4,3.14q11,1.57,17.74,7.22t6.75,18.84v16.48q0,13.35-8.72,20.49T500.13,630.75Z" style="fill:#ff25ff"/><path d="M270.6,414.07a38.52,38.52,0,0,1-2.12,13.11,21.94,21.94,0,0,1-7.54,10.05q-5.42,4.17-14.91,6.52t-24.1,2.35q-14.61,0-24.18-2.35t-15-6.52a21.81,21.81,0,0,1-7.54-10.05,38.52,38.52,0,0,1-2.12-13.11V360.54a38.52,38.52,0,0,1,2.12-13.11,22.32,22.32,0,0,1,7.54-10.13q5.42-4.24,15-6.59t24.18-2.36q14.59,0,24.1,2.36t14.91,6.59a22.46,22.46,0,0,1,7.54,10.13,38.52,38.52,0,0,1,2.12,13.11Zm-61.86-5.65a6.77,6.77,0,0,0,2.35,5.26q2.35,2.11,10.84,2.12t10.83-2.12a6.78,6.78,0,0,0,2.36-5.26V366.19a6.62,6.62,0,0,0-2.36-5.1Q230.41,359,221.93,359t-10.84,2.12a6.61,6.61,0,0,0-2.35,5.1Z" style="fill:#ff25ff"/><path d="M320.37,443.75H296.19a4.84,4.84,0,0,1-5.65-5.66V336.36a4.83,4.83,0,0,1,5.65-5.65h52.28q17.58,0,24.25,7.3t6.68,18.92v7.22a28.67,28.67,0,0,1-2,11.22,12.2,12.2,0,0,1-6.82,6.68,20.62,20.62,0,0,1,13.73,6.9q5.27,6,5.26,15.86v33.28a4.84,4.84,0,0,1-5.65,5.66H359.62a4.85,4.85,0,0,1-5.66-5.66v-24a8,8,0,0,0-1.33-5.1q-1.33-1.65-4.63-1.65H326v30.77a4.85,4.85,0,0,1-5.65,5.66ZM326,359v20.09h11.77c2.72,0,4.56-.7,5.5-2.12a9.27,9.27,0,0,0,1.41-5.26v-5.33a9.27,9.27,0,0,0-1.41-5.26c-.94-1.42-2.78-2.12-5.5-2.12Z" style="fill:#ff25ff"/><path d="M43.19,256.75H18.85a5.93,5.93,0,0,1-4.32-1.34,5.93,5.93,0,0,1-1.33-4.32V149.36A5.93,5.93,0,0,1,14.53,145a5.93,5.93,0,0,1,4.32-1.33H43.19A5.92,5.92,0,0,1,47.5,145a5.93,5.93,0,0,1,1.34,4.32v34.07H75.06V149.36a4.83,4.83,0,0,1,5.65-5.65H105a4.84,4.84,0,0,1,5.66,5.65V251.09a4.85,4.85,0,0,1-5.66,5.66H80.71a4.84,4.84,0,0,1-5.65-5.66V216.24H48.84v34.85a5.93,5.93,0,0,1-1.34,4.32A5.92,5.92,0,0,1,43.19,256.75Z" style="fill:#ff25ff"/><path d="M210.86,256.75H138a4.84,4.84,0,0,1-5.65-5.66V149.36a4.83,4.83,0,0,1,5.65-5.65h72.85a4.83,4.83,0,0,1,5.65,5.65v18.37c0,2-.44,3.43-1.33,4.31s-2.33,1.34-4.32,1.34H167.53v12.09h30.61a4.83,4.83,0,0,1,5.65,5.65v16.8a4.83,4.83,0,0,1-5.65,5.65H167.53v13.5h43.33a4.84,4.84,0,0,1,5.65,5.66v18.36a4.84,4.84,0,0,1-5.65,5.66Z" style="fill:#ff25ff"/><path d="M267.06,251.09a4.84,4.84,0,0,1-5.65,5.66H238.33a4.85,4.85,0,0,1-5.65-5.66V209.65a46.78,46.78,0,0,1,1.49-10.84,121,121,0,0,1,4.63-14.28l13.66-35.64a7.4,7.4,0,0,1,2.91-3.93,9.4,9.4,0,0,1,5.1-1.25H302.7a9.09,9.09,0,0,1,4.95,1.25,7.33,7.33,0,0,1,2.9,3.93l13.66,35.64a117.36,117.36,0,0,1,4.63,14.28,46.31,46.31,0,0,1,1.5,10.84v41.44a4.85,4.85,0,0,1-5.66,5.66H301a6.77,6.77,0,0,1-4.63-1.34,5.52,5.52,0,0,1-1.5-4.32v-22H267.06ZM276,176.68l-7.38,23.86h24.65l-7.38-23.86a5.83,5.83,0,0,0-1.33-2,2.4,2.4,0,0,0-1.65-.63H279a2.4,2.4,0,0,0-1.65.63A5.84,5.84,0,0,0,276,176.68Z" style="fill:#ff25ff"/><path d="M408.21,256.75H355.3a4.84,4.84,0,0,1-5.65-5.66V149.36a4.83,4.83,0,0,1,5.65-5.65h52.91q19.62,0,29.12,7.85t9.5,24.17v49q0,16.34-9.5,24.18T408.21,256.75Zm-22.93-83.06v53.38H404c2.51,0,4.37-.62,5.57-1.88s1.81-3.19,1.81-5.81V181.23c0-2.62-.61-4.53-1.81-5.73s-3.06-1.81-5.57-1.81Z" style="fill:#ff25ff"/><path d="M519.2,256.75H469.59a4.84,4.84,0,0,1-5.65-5.66V232.73a4.84,4.84,0,0,1,5.65-5.66h42.23a3.64,3.64,0,0,0,3.07-1.33,5.14,5.14,0,0,0,1-3.22,6.15,6.15,0,0,0-1-3.92,4.2,4.2,0,0,0-3.07-1.42l-23.55-3.29q-11-1.57-17.66-7.23t-6.67-18.84V171.34q0-13.35,8.63-20.49t23.87-7.14h44a4.83,4.83,0,0,1,5.65,5.65V168a4.83,4.83,0,0,1-5.65,5.65H503.82a3.84,3.84,0,0,0-3.14,1.34,5.08,5.08,0,0,0-1.1,3.37,5.43,5.43,0,0,0,1.1,3.46,4.2,4.2,0,0,0,3.14,1.57l23.39,3.14q11,1.58,17.74,7.22t6.75,18.84v16.48q0,13.35-8.71,20.49T519.2,256.75Z" style="fill:#ff25ff"/><path d="M81.65,632.75H56.22a5.93,5.93,0,0,1-4.32-1.34,5.93,5.93,0,0,1-1.33-4.32V550H27.49a5.93,5.93,0,0,1-4.32-1.34,5.9,5.9,0,0,1-1.33-4.31v-19A5.93,5.93,0,0,1,23.17,521a5.93,5.93,0,0,1,4.32-1.33h82.89a4.84,4.84,0,0,1,5.66,5.65v19a4.85,4.85,0,0,1-5.66,5.65H87.3v77.08a4.84,4.84,0,0,1-5.65,5.66Z" style="fill:#ff25ff"/><path d="M157,627.09a4.84,4.84,0,0,1-5.65,5.66H128.28a4.84,4.84,0,0,1-5.65-5.66V585.65a46.24,46.24,0,0,1,1.49-10.84,119.14,119.14,0,0,1,4.63-14.28l13.66-35.64a7.4,7.4,0,0,1,2.91-3.93,9.35,9.35,0,0,1,5.1-1.25h42.23A9.09,9.09,0,0,1,197.6,521a7.43,7.43,0,0,1,2.9,3.93l13.66,35.64a119.14,119.14,0,0,1,4.63,14.28,46.78,46.78,0,0,1,1.49,10.84v41.44a4.84,4.84,0,0,1-5.65,5.66H190.92a6.81,6.81,0,0,1-4.63-1.34,5.55,5.55,0,0,1-1.49-4.32v-22H157Zm9-74.41-7.38,23.86h24.65l-7.38-23.86a5.83,5.83,0,0,0-1.33-2,2.4,2.4,0,0,0-1.65-.63h-3.93a2.39,2.39,0,0,0-1.64.63A5.7,5.7,0,0,0,166,552.68Z" style="fill:#ff25ff"/><path d="M242.73,632.75a4.85,4.85,0,0,1-5.65-5.66V608.41a4.84,4.84,0,0,1,5.65-5.65h15.55V550H242.73a4.85,4.85,0,0,1-5.65-5.65v-19a5.93,5.93,0,0,1,1.34-4.32c.88-.89,2.32-1.33,4.31-1.33h66.89a4.84,4.84,0,0,1,5.65,5.65v19a4.85,4.85,0,0,1-5.65,5.65H294.39v52.75h15.23a4.84,4.84,0,0,1,5.65,5.65v18.68a4.85,4.85,0,0,1-5.65,5.66Z" style="fill:#ff25ff"/><path d="M420.14,632.75H340.23a4.84,4.84,0,0,1-5.65-5.66V525.36a4.83,4.83,0,0,1,5.65-5.65h24.33a4.84,4.84,0,0,1,5.66,5.65v77.71h21.51V577.64a4.83,4.83,0,0,1,5.65-5.65h22.76a4.83,4.83,0,0,1,5.65,5.65v49.45a4.84,4.84,0,0,1-5.65,5.66Z" style="fill:#ff25ff"/><path d="M496.13,632.75H446.52a4.85,4.85,0,0,1-5.66-5.66V608.73a4.85,4.85,0,0,1,5.66-5.66h42.23a3.61,3.61,0,0,0,3.06-1.33,5.14,5.14,0,0,0,1-3.22,6.15,6.15,0,0,0-1-3.92,4.16,4.16,0,0,0-3.06-1.42l-23.55-3.29q-11-1.57-17.66-7.23t-6.68-18.84V547.34q0-13.35,8.64-20.49t23.86-7.14h44a4.84,4.84,0,0,1,5.66,5.65V544a4.84,4.84,0,0,1-5.66,5.65H480.74A3.84,3.84,0,0,0,477.6,551a5.14,5.14,0,0,0-1.1,3.37,5.49,5.49,0,0,0,1.1,3.46,4.2,4.2,0,0,0,3.14,1.57l23.4,3.14q11,1.57,17.74,7.22t6.75,18.84v16.48q0,13.35-8.72,20.49T496.13,632.75Z" style="fill:#ff25ff"/><path d="M266.6,416.07a38.52,38.52,0,0,1-2.12,13.11,21.94,21.94,0,0,1-7.54,10.05q-5.41,4.17-14.91,6.52t-24.1,2.35q-14.61,0-24.18-2.35t-15-6.52a21.81,21.81,0,0,1-7.54-10.05,38.52,38.52,0,0,1-2.12-13.11V362.54a38.52,38.52,0,0,1,2.12-13.11,22.32,22.32,0,0,1,7.54-10.13q5.42-4.24,15-6.59t24.18-2.36q14.59,0,24.1,2.36t14.91,6.59a22.46,22.46,0,0,1,7.54,10.13,38.52,38.52,0,0,1,2.12,13.11Zm-61.86-5.65a6.77,6.77,0,0,0,2.35,5.26q2.35,2.11,10.84,2.12t10.83-2.12a6.78,6.78,0,0,0,2.36-5.26V368.19a6.62,6.62,0,0,0-2.36-5.1Q226.41,361,217.93,361t-10.84,2.12a6.61,6.61,0,0,0-2.35,5.1Z" style="fill:#ff25ff"/><path d="M316.37,445.75H292.19a4.84,4.84,0,0,1-5.65-5.66V338.36a4.83,4.83,0,0,1,5.65-5.65h52.28q17.58,0,24.25,7.3t6.68,18.92v7.22a28.67,28.67,0,0,1-2,11.22,12.2,12.2,0,0,1-6.82,6.68,20.62,20.62,0,0,1,13.73,6.9q5.27,6,5.26,15.86v33.28a4.84,4.84,0,0,1-5.65,5.66H355.62a4.85,4.85,0,0,1-5.66-5.66v-24a8,8,0,0,0-1.33-5.1q-1.33-1.65-4.63-1.65H322v30.77a4.85,4.85,0,0,1-5.65,5.66ZM322,361v20.09h11.77c2.72,0,4.56-.7,5.5-2.12a9.27,9.27,0,0,0,1.41-5.26v-5.33a9.27,9.27,0,0,0-1.41-5.26c-.94-1.42-2.78-2.12-5.5-2.12Z" style="fill:#ff25ff"/><path d="M39.19,258.75H14.85a5.93,5.93,0,0,1-4.32-1.34,5.93,5.93,0,0,1-1.33-4.32V151.36A5.93,5.93,0,0,1,10.53,147a5.93,5.93,0,0,1,4.32-1.33H39.19A5.92,5.92,0,0,1,43.5,147a5.93,5.93,0,0,1,1.34,4.32v34.07H71.06V151.36A5.93,5.93,0,0,1,72.39,147a5.93,5.93,0,0,1,4.32-1.33H101a4.84,4.84,0,0,1,5.66,5.65V253.09a4.85,4.85,0,0,1-5.66,5.66H76.71a5.93,5.93,0,0,1-4.32-1.34,5.93,5.93,0,0,1-1.33-4.32V218.24H44.84v34.85a5.93,5.93,0,0,1-1.34,4.32A5.92,5.92,0,0,1,39.19,258.75Z" style="fill:#ff25ff"/><path d="M206.86,258.75H134a4.84,4.84,0,0,1-5.65-5.66V151.36a4.83,4.83,0,0,1,5.65-5.65h72.85a4.83,4.83,0,0,1,5.65,5.65v18.37c0,2-.44,3.43-1.33,4.31s-2.33,1.34-4.32,1.34H163.53v12.09h30.61a4.83,4.83,0,0,1,5.65,5.65v16.8a4.83,4.83,0,0,1-5.65,5.65H163.53v13.5h43.33a4.84,4.84,0,0,1,5.65,5.66v18.36a4.84,4.84,0,0,1-5.65,5.66Z" style="fill:#ff25ff"/><path d="M263.06,253.09a4.84,4.84,0,0,1-5.65,5.66H234.33a4.85,4.85,0,0,1-5.65-5.66V211.65a46.78,46.78,0,0,1,1.49-10.84,121,121,0,0,1,4.63-14.28l13.66-35.64a7.4,7.4,0,0,1,2.91-3.93,9.4,9.4,0,0,1,5.1-1.25H298.7a9.09,9.09,0,0,1,4.95,1.25,7.33,7.33,0,0,1,2.9,3.93l13.66,35.64a117.36,117.36,0,0,1,4.63,14.28,46.31,46.31,0,0,1,1.5,10.84v41.44a4.85,4.85,0,0,1-5.66,5.66H297a6.77,6.77,0,0,1-4.63-1.34,5.52,5.52,0,0,1-1.5-4.32v-22H263.06ZM272,178.68l-7.38,23.86h24.65l-7.38-23.86a5.83,5.83,0,0,0-1.33-2,2.4,2.4,0,0,0-1.65-.63H275a2.4,2.4,0,0,0-1.65.63A5.84,5.84,0,0,0,272,178.68Z" style="fill:#ff25ff"/><path d="M404.21,258.75H351.3a4.84,4.84,0,0,1-5.65-5.66V151.36a4.83,4.83,0,0,1,5.65-5.65h52.91q19.62,0,29.12,7.85t9.5,24.17v49q0,16.34-9.5,24.18T404.21,258.75Zm-22.93-83.06v53.38H400c2.51,0,4.37-.62,5.57-1.88s1.81-3.19,1.81-5.81V183.23c0-2.62-.61-4.53-1.81-5.73s-3.06-1.81-5.57-1.81Z" style="fill:#ff25ff"/><path d="M515.2,258.75H465.59a4.84,4.84,0,0,1-5.65-5.66V234.73a4.84,4.84,0,0,1,5.65-5.66h42.23a3.64,3.64,0,0,0,3.07-1.33,5.14,5.14,0,0,0,1-3.22,6.15,6.15,0,0,0-1-3.92,4.2,4.2,0,0,0-3.07-1.42l-23.55-3.29q-11-1.57-17.66-7.23t-6.67-18.84V173.34q0-13.35,8.63-20.49t23.87-7.14h44a4.83,4.83,0,0,1,5.65,5.65V170a4.83,4.83,0,0,1-5.65,5.65H499.82a3.84,3.84,0,0,0-3.14,1.34,5.08,5.08,0,0,0-1.1,3.37,5.43,5.43,0,0,0,1.1,3.46,4.2,4.2,0,0,0,3.14,1.57l23.39,3.14q11,1.58,17.74,7.22t6.75,18.84v16.48q0,13.35-8.71,20.49T515.2,258.75Z" style="fill:#ff25ff"/></g><path d="M90.65,628.75H65.22a5.93,5.93,0,0,1-4.32-1.34,5.93,5.93,0,0,1-1.33-4.32V546H36.49a5.93,5.93,0,0,1-4.32-1.34,5.9,5.9,0,0,1-1.33-4.31v-19A5.93,5.93,0,0,1,32.17,517a5.93,5.93,0,0,1,4.32-1.33h82.89a4.84,4.84,0,0,1,5.66,5.65v19a4.85,4.85,0,0,1-5.66,5.65H96.3v77.08a4.84,4.84,0,0,1-5.65,5.66Z" style="fill:#02feff"/><path d="M166,623.09a4.84,4.84,0,0,1-5.65,5.66H137.28a4.84,4.84,0,0,1-5.65-5.66V581.65a46.24,46.24,0,0,1,1.49-10.84,119.14,119.14,0,0,1,4.63-14.28l13.66-35.64a7.4,7.4,0,0,1,2.91-3.93,9.35,9.35,0,0,1,5.1-1.25h42.23A9.09,9.09,0,0,1,206.6,517a7.43,7.43,0,0,1,2.9,3.93l13.66,35.64a119.14,119.14,0,0,1,4.63,14.28,46.78,46.78,0,0,1,1.49,10.84v41.44a4.84,4.84,0,0,1-5.65,5.66H199.92a6.81,6.81,0,0,1-4.63-1.34,5.55,5.55,0,0,1-1.49-4.32v-22H166Zm9-74.41-7.38,23.86h24.65l-7.38-23.86a5.83,5.83,0,0,0-1.33-2,2.4,2.4,0,0,0-1.65-.63h-3.93a2.39,2.39,0,0,0-1.64.63A5.7,5.7,0,0,0,175,548.68Z" style="fill:#02feff"/><path d="M251.73,628.75a4.85,4.85,0,0,1-5.65-5.66V604.41a4.84,4.84,0,0,1,5.65-5.65h15.55V546H251.73a4.85,4.85,0,0,1-5.65-5.65v-19a5.93,5.93,0,0,1,1.34-4.32c.88-.89,2.32-1.33,4.31-1.33h66.89a4.84,4.84,0,0,1,5.65,5.65v19a4.85,4.85,0,0,1-5.65,5.65H303.39v52.75h15.23a4.84,4.84,0,0,1,5.65,5.65v18.68a4.85,4.85,0,0,1-5.65,5.66Z" style="fill:#02feff"/><path d="M429.14,628.75H349.23a4.84,4.84,0,0,1-5.65-5.66V521.36a4.83,4.83,0,0,1,5.65-5.65h24.33a4.84,4.84,0,0,1,5.66,5.65v77.71h21.51V573.64a4.83,4.83,0,0,1,5.65-5.65h22.76a4.83,4.83,0,0,1,5.65,5.65v49.45a4.84,4.84,0,0,1-5.65,5.66Z" style="fill:#02feff"/><path d="M505.13,628.75H455.52a4.85,4.85,0,0,1-5.66-5.66V604.73a4.85,4.85,0,0,1,5.66-5.66h42.23a3.61,3.61,0,0,0,3.06-1.33,5.14,5.14,0,0,0,1-3.22,6.15,6.15,0,0,0-1-3.92,4.16,4.16,0,0,0-3.06-1.42l-23.55-3.29q-11-1.57-17.66-7.23t-6.68-18.84V543.34q0-13.35,8.64-20.49t23.86-7.14h44a4.84,4.84,0,0,1,5.66,5.65V540a4.84,4.84,0,0,1-5.66,5.65H489.74A3.84,3.84,0,0,0,486.6,547a5.14,5.14,0,0,0-1.1,3.37,5.49,5.49,0,0,0,1.1,3.46,4.2,4.2,0,0,0,3.14,1.57l23.4,3.14q11,1.57,17.74,7.22t6.75,18.84v16.48q0,13.35-8.72,20.49T505.13,628.75Z" style="fill:#02feff"/><path d="M275.6,412.07a38.52,38.52,0,0,1-2.12,13.11,21.94,21.94,0,0,1-7.54,10.05q-5.42,4.17-14.91,6.52t-24.1,2.35q-14.61,0-24.18-2.35t-15-6.52a21.81,21.81,0,0,1-7.54-10.05,38.52,38.52,0,0,1-2.12-13.11V358.54a38.52,38.52,0,0,1,2.12-13.11,22.32,22.32,0,0,1,7.54-10.13q5.42-4.24,15-6.59t24.18-2.36q14.59,0,24.1,2.36t14.91,6.59a22.46,22.46,0,0,1,7.54,10.13,38.52,38.52,0,0,1,2.12,13.11Zm-61.86-5.65a6.77,6.77,0,0,0,2.35,5.26q2.35,2.11,10.84,2.12t10.83-2.12a6.78,6.78,0,0,0,2.36-5.26V364.19a6.62,6.62,0,0,0-2.36-5.1Q235.41,357,226.93,357t-10.84,2.12a6.61,6.61,0,0,0-2.35,5.1Z" style="fill:#02feff"/><path d="M325.37,441.75H301.19a4.84,4.84,0,0,1-5.65-5.66V334.36a4.83,4.83,0,0,1,5.65-5.65h52.28q17.58,0,24.25,7.3t6.68,18.92v7.22a28.67,28.67,0,0,1-2,11.22,12.2,12.2,0,0,1-6.82,6.68,20.62,20.62,0,0,1,13.73,6.9q5.27,6,5.26,15.86v33.28a4.84,4.84,0,0,1-5.65,5.66H364.62a4.85,4.85,0,0,1-5.66-5.66v-24a8,8,0,0,0-1.33-5.1q-1.33-1.65-4.63-1.65H331v30.77a4.85,4.85,0,0,1-5.65,5.66ZM331,357v20.09h11.77c2.72,0,4.56-.7,5.5-2.12a9.27,9.27,0,0,0,1.41-5.26v-5.33a9.27,9.27,0,0,0-1.41-5.26c-.94-1.42-2.78-2.12-5.5-2.12Z" style="fill:#02feff"/><path d="M48.19,254.75H23.85a5.93,5.93,0,0,1-4.32-1.34,5.93,5.93,0,0,1-1.33-4.32V147.36A5.93,5.93,0,0,1,19.53,143a5.93,5.93,0,0,1,4.32-1.33H48.19A5.92,5.92,0,0,1,52.5,143a5.93,5.93,0,0,1,1.34,4.32v34.07H80.06V147.36a4.83,4.83,0,0,1,5.65-5.65H110a4.84,4.84,0,0,1,5.66,5.65V249.09a4.85,4.85,0,0,1-5.66,5.66H85.71a4.84,4.84,0,0,1-5.65-5.66V214.24H53.84v34.85a5.93,5.93,0,0,1-1.34,4.32A5.92,5.92,0,0,1,48.19,254.75Z" style="fill:#02feff"/><path d="M215.86,254.75H143a4.84,4.84,0,0,1-5.65-5.66V147.36a4.83,4.83,0,0,1,5.65-5.65h72.85a4.83,4.83,0,0,1,5.65,5.65v18.37c0,2-.44,3.43-1.33,4.31s-2.33,1.34-4.32,1.34H172.53v12.09h30.61a4.83,4.83,0,0,1,5.65,5.65v16.8a4.83,4.83,0,0,1-5.65,5.65H172.53v13.5h43.33a4.84,4.84,0,0,1,5.65,5.66v18.36a4.84,4.84,0,0,1-5.65,5.66Z" style="fill:#02feff"/><path d="M272.06,249.09a4.84,4.84,0,0,1-5.65,5.66H243.33a4.85,4.85,0,0,1-5.65-5.66V207.65a46.78,46.78,0,0,1,1.49-10.84,121,121,0,0,1,4.63-14.28l13.66-35.64a7.4,7.4,0,0,1,2.91-3.93,9.4,9.4,0,0,1,5.1-1.25H307.7a9.09,9.09,0,0,1,4.95,1.25,7.33,7.33,0,0,1,2.9,3.93l13.66,35.64a117.36,117.36,0,0,1,4.63,14.28,46.31,46.31,0,0,1,1.5,10.84v41.44a4.85,4.85,0,0,1-5.66,5.66H306a6.77,6.77,0,0,1-4.63-1.34,5.52,5.52,0,0,1-1.5-4.32v-22H272.06ZM281,174.68l-7.38,23.86h24.65l-7.38-23.86a5.83,5.83,0,0,0-1.33-2,2.4,2.4,0,0,0-1.65-.63H284a2.4,2.4,0,0,0-1.65.63A5.84,5.84,0,0,0,281,174.68Z" style="fill:#02feff"/><path d="M413.21,254.75H360.3a4.84,4.84,0,0,1-5.65-5.66V147.36a4.83,4.83,0,0,1,5.65-5.65h52.91q19.62,0,29.12,7.85t9.5,24.17v49q0,16.34-9.5,24.18T413.21,254.75Zm-22.93-83.06v53.38H409c2.51,0,4.37-.62,5.57-1.88s1.81-3.19,1.81-5.81V179.23c0-2.62-.61-4.53-1.81-5.73s-3.06-1.81-5.57-1.81Z" style="fill:#02feff"/><path d="M524.2,254.75H474.59a4.84,4.84,0,0,1-5.65-5.66V230.73a4.84,4.84,0,0,1,5.65-5.66h42.23a3.64,3.64,0,0,0,3.07-1.33,5.14,5.14,0,0,0,1-3.22,6.15,6.15,0,0,0-1-3.92,4.2,4.2,0,0,0-3.07-1.42l-23.55-3.29q-11-1.57-17.66-7.23t-6.67-18.84V169.34q0-13.35,8.63-20.49t23.87-7.14h44a4.83,4.83,0,0,1,5.65,5.65V166a4.83,4.83,0,0,1-5.65,5.65H508.82a3.84,3.84,0,0,0-3.14,1.34,5.08,5.08,0,0,0-1.1,3.37,5.43,5.43,0,0,0,1.1,3.46,4.2,4.2,0,0,0,3.14,1.57l23.39,3.14q11,1.58,17.74,7.22t6.75,18.84v16.48q0,13.35-8.71,20.49T524.2,254.75Z" style="fill:#02feff"/><g id="Tails"><path d="M86.65,630.75H61.22a5.93,5.93,0,0,1-4.32-1.34,5.93,5.93,0,0,1-1.33-4.32V548H32.49a5.93,5.93,0,0,1-4.32-1.34,5.9,5.9,0,0,1-1.33-4.31v-19A5.93,5.93,0,0,1,28.17,519a5.93,5.93,0,0,1,4.32-1.33h82.89a4.84,4.84,0,0,1,5.66,5.65v19a4.85,4.85,0,0,1-5.66,5.65H92.3v77.08a4.84,4.84,0,0,1-5.65,5.66Z" style="fill:#5332ff"/><path d="M162,625.09a4.84,4.84,0,0,1-5.65,5.66H133.28a4.84,4.84,0,0,1-5.65-5.66V583.65a46.24,46.24,0,0,1,1.49-10.84,119.14,119.14,0,0,1,4.63-14.28l13.66-35.64a7.4,7.4,0,0,1,2.91-3.93,9.35,9.35,0,0,1,5.1-1.25h42.23A9.09,9.09,0,0,1,202.6,519a7.43,7.43,0,0,1,2.9,3.93l13.66,35.64a119.14,119.14,0,0,1,4.63,14.28,46.78,46.78,0,0,1,1.49,10.84v41.44a4.84,4.84,0,0,1-5.65,5.66H195.92a6.81,6.81,0,0,1-4.63-1.34,5.55,5.55,0,0,1-1.49-4.32v-22H162Zm9-74.41-7.38,23.86h24.65l-7.38-23.86a5.83,5.83,0,0,0-1.33-2,2.4,2.4,0,0,0-1.65-.63h-3.93a2.39,2.39,0,0,0-1.64.63A5.7,5.7,0,0,0,171,550.68Z" style="fill:#5332ff"/><path d="M247.73,630.75a4.85,4.85,0,0,1-5.65-5.66V606.41a4.84,4.84,0,0,1,5.65-5.65h15.55V548H247.73a4.85,4.85,0,0,1-5.65-5.65v-19a5.93,5.93,0,0,1,1.34-4.32c.88-.89,2.32-1.33,4.31-1.33h66.89a4.84,4.84,0,0,1,5.65,5.65v19a4.85,4.85,0,0,1-5.65,5.65H299.39v52.75h15.23a4.84,4.84,0,0,1,5.65,5.65v18.68a4.85,4.85,0,0,1-5.65,5.66Z" style="fill:#5332ff"/><path d="M425.14,630.75H345.23a4.84,4.84,0,0,1-5.65-5.66V523.36a4.83,4.83,0,0,1,5.65-5.65h24.33a4.84,4.84,0,0,1,5.66,5.65v77.71h21.51V575.64a4.83,4.83,0,0,1,5.65-5.65h22.76a4.83,4.83,0,0,1,5.65,5.65v49.45a4.84,4.84,0,0,1-5.65,5.66Z" style="fill:#5332ff"/><path d="M501.13,630.75H451.52a4.85,4.85,0,0,1-5.66-5.66V606.73a4.85,4.85,0,0,1,5.66-5.66h42.23a3.61,3.61,0,0,0,3.06-1.33,5.14,5.14,0,0,0,1-3.22,6.15,6.15,0,0,0-1-3.92,4.16,4.16,0,0,0-3.06-1.42l-23.55-3.29q-11-1.57-17.66-7.23t-6.68-18.84V545.34q0-13.35,8.64-20.49t23.86-7.14h44a4.84,4.84,0,0,1,5.66,5.65V542a4.84,4.84,0,0,1-5.66,5.65H485.74A3.84,3.84,0,0,0,482.6,549a5.14,5.14,0,0,0-1.1,3.37,5.49,5.49,0,0,0,1.1,3.46,4.2,4.2,0,0,0,3.14,1.57l23.4,3.14q11,1.57,17.74,7.22t6.75,18.84v16.48q0,13.35-8.72,20.49T501.13,630.75Z" style="fill:#5332ff"/></g><g id="Or"><path d="M271.6,414.07a38.52,38.52,0,0,1-2.12,13.11,21.94,21.94,0,0,1-7.54,10.05q-5.42,4.17-14.91,6.52t-24.1,2.35q-14.61,0-24.18-2.35t-15-6.52a21.81,21.81,0,0,1-7.54-10.05,38.52,38.52,0,0,1-2.12-13.11V360.54a38.52,38.52,0,0,1,2.12-13.11,22.32,22.32,0,0,1,7.54-10.13q5.42-4.24,15-6.59t24.18-2.36q14.59,0,24.1,2.36t14.91,6.59a22.46,22.46,0,0,1,7.54,10.13,38.52,38.52,0,0,1,2.12,13.11Zm-61.86-5.65a6.77,6.77,0,0,0,2.35,5.26q2.35,2.11,10.84,2.12t10.83-2.12a6.78,6.78,0,0,0,2.36-5.26V366.19a6.62,6.62,0,0,0-2.36-5.1Q231.41,359,222.93,359t-10.84,2.12a6.61,6.61,0,0,0-2.35,5.1Z" style="fill:#5332ff"/><path d="M321.37,443.75H297.19a4.84,4.84,0,0,1-5.65-5.66V336.36a4.83,4.83,0,0,1,5.65-5.65h52.28q17.58,0,24.25,7.3t6.68,18.92v7.22a28.67,28.67,0,0,1-2,11.22,12.2,12.2,0,0,1-6.82,6.68,20.62,20.62,0,0,1,13.73,6.9q5.27,6,5.26,15.86v33.28a4.84,4.84,0,0,1-5.65,5.66H360.62a4.85,4.85,0,0,1-5.66-5.66v-24a8,8,0,0,0-1.33-5.1q-1.33-1.65-4.63-1.65H327v30.77a4.85,4.85,0,0,1-5.65,5.66ZM327,359v20.09h11.77c2.72,0,4.56-.7,5.5-2.12a9.27,9.27,0,0,0,1.41-5.26v-5.33a9.27,9.27,0,0,0-1.41-5.26c-.94-1.42-2.78-2.12-5.5-2.12Z" style="fill:#5332ff"/></g><g id="Heads"><path d="M44.19,256.75H19.85a5.93,5.93,0,0,1-4.32-1.34,5.93,5.93,0,0,1-1.33-4.32V149.36A5.93,5.93,0,0,1,15.53,145a5.93,5.93,0,0,1,4.32-1.33H44.19A5.92,5.92,0,0,1,48.5,145a5.93,5.93,0,0,1,1.34,4.32v34.07H76.06V149.36a4.83,4.83,0,0,1,5.65-5.65H106a4.84,4.84,0,0,1,5.66,5.65V251.09a4.85,4.85,0,0,1-5.66,5.66H81.71a4.84,4.84,0,0,1-5.65-5.66V216.24H49.84v34.85a5.93,5.93,0,0,1-1.34,4.32A5.92,5.92,0,0,1,44.19,256.75Z" style="fill:#5332ff"/><path d="M211.86,256.75H139a4.84,4.84,0,0,1-5.65-5.66V149.36a4.83,4.83,0,0,1,5.65-5.65h72.85a4.83,4.83,0,0,1,5.65,5.65v18.37c0,2-.44,3.43-1.33,4.31s-2.33,1.34-4.32,1.34H168.53v12.09h30.61a4.83,4.83,0,0,1,5.65,5.65v16.8a4.83,4.83,0,0,1-5.65,5.65H168.53v13.5h43.33a4.84,4.84,0,0,1,5.65,5.66v18.36a4.84,4.84,0,0,1-5.65,5.66Z" style="fill:#5332ff"/><path d="M268.06,251.09a4.84,4.84,0,0,1-5.65,5.66H239.33a4.85,4.85,0,0,1-5.65-5.66V209.65a46.78,46.78,0,0,1,1.49-10.84,121,121,0,0,1,4.63-14.28l13.66-35.64a7.4,7.4,0,0,1,2.91-3.93,9.4,9.4,0,0,1,5.1-1.25H303.7a9.09,9.09,0,0,1,4.95,1.25,7.33,7.33,0,0,1,2.9,3.93l13.66,35.64a117.36,117.36,0,0,1,4.63,14.28,46.31,46.31,0,0,1,1.5,10.84v41.44a4.85,4.85,0,0,1-5.66,5.66H302a6.77,6.77,0,0,1-4.63-1.34,5.52,5.52,0,0,1-1.5-4.32v-22H268.06ZM277,176.68l-7.38,23.86h24.65l-7.38-23.86a5.83,5.83,0,0,0-1.33-2,2.4,2.4,0,0,0-1.65-.63H280a2.4,2.4,0,0,0-1.65.63A5.84,5.84,0,0,0,277,176.68Z" style="fill:#5332ff"/><path d="M409.21,256.75H356.3a4.84,4.84,0,0,1-5.65-5.66V149.36a4.83,4.83,0,0,1,5.65-5.65h52.91q19.62,0,29.12,7.85t9.5,24.17v49q0,16.34-9.5,24.18T409.21,256.75Zm-22.93-83.06v53.38H405c2.51,0,4.37-.62,5.57-1.88s1.81-3.19,1.81-5.81V181.23c0-2.62-.61-4.53-1.81-5.73s-3.06-1.81-5.57-1.81Z" style="fill:#5332ff"/><path d="M520.2,256.75H470.59a4.84,4.84,0,0,1-5.65-5.66V232.73a4.84,4.84,0,0,1,5.65-5.66h42.23a3.64,3.64,0,0,0,3.07-1.33,5.14,5.14,0,0,0,1-3.22,6.15,6.15,0,0,0-1-3.92,4.2,4.2,0,0,0-3.07-1.42l-23.55-3.29q-11-1.57-17.66-7.23t-6.67-18.84V171.34q0-13.35,8.63-20.49t23.87-7.14h44a4.83,4.83,0,0,1,5.65,5.65V168a4.83,4.83,0,0,1-5.65,5.65H504.82a3.84,3.84,0,0,0-3.14,1.34,5.08,5.08,0,0,0-1.1,3.37,5.43,5.43,0,0,0,1.1,3.46,4.2,4.2,0,0,0,3.14,1.57l23.39,3.14q11,1.58,17.74,7.22t6.75,18.84v16.48q0,13.35-8.71,20.49T520.2,256.75Z" style="fill:#5332ff"/></g><g style="opacity:0.8"><path d="M34,246.35H9.65A5.93,5.93,0,0,1,5.33,245,5.93,5.93,0,0,1,4,240.69V139a5.93,5.93,0,0,1,1.33-4.32,5.93,5.93,0,0,1,4.32-1.33H34a5.92,5.92,0,0,1,4.31,1.33A5.93,5.93,0,0,1,39.64,139V173H65.86V139a5.93,5.93,0,0,1,1.33-4.32,5.93,5.93,0,0,1,4.32-1.33H95.85A4.84,4.84,0,0,1,101.5,139V240.69a4.85,4.85,0,0,1-5.65,5.66H71.51A5.93,5.93,0,0,1,67.19,245a5.93,5.93,0,0,1-1.33-4.32V205.84H39.64v34.85A5.93,5.93,0,0,1,38.3,245,5.92,5.92,0,0,1,34,246.35Z" style="fill:#ff25ff"/><path d="M201.66,246.35H128.81A5.89,5.89,0,0,1,124.5,245c-.9-.89-1.34-2.33-1.34-4.32V139c0-2,.44-3.43,1.34-4.32s2.32-1.33,4.31-1.33h72.85a4.83,4.83,0,0,1,5.65,5.65v18.37c0,2-.44,3.43-1.33,4.31s-2.33,1.34-4.32,1.34H158.33v12.09h30.61a4.84,4.84,0,0,1,5.66,5.65v16.8a4.84,4.84,0,0,1-5.66,5.65H158.33v13.5h43.33a4.84,4.84,0,0,1,5.65,5.66v18.36a4.84,4.84,0,0,1-5.65,5.66Z" style="fill:#ff25ff"/><path d="M257.87,240.69a4.85,4.85,0,0,1-5.66,5.66H229.13a4.85,4.85,0,0,1-5.65-5.66V199.25A46.78,46.78,0,0,1,225,188.41a119.39,119.39,0,0,1,4.64-14.28l13.65-35.64a7.4,7.4,0,0,1,2.91-3.93,9.4,9.4,0,0,1,5.1-1.25H293.5a9.09,9.09,0,0,1,4.95,1.25,7.33,7.33,0,0,1,2.9,3.93L315,174.13a119.39,119.39,0,0,1,4.64,14.28,46.78,46.78,0,0,1,1.49,10.84v41.44a4.85,4.85,0,0,1-5.65,5.66H291.78a6.77,6.77,0,0,1-4.63-1.34c-1-.89-1.49-2.33-1.49-4.32v-22H257.87Zm8.94-74.41-7.37,23.86h24.64l-7.37-23.86a5.93,5.93,0,0,0-1.34-2,2.4,2.4,0,0,0-1.65-.63H269.8a2.4,2.4,0,0,0-1.65.63A5.93,5.93,0,0,0,266.81,166.28Z" style="fill:#ff25ff"/><path d="M399,246.35H346.1a4.84,4.84,0,0,1-5.65-5.66V139a4.83,4.83,0,0,1,5.65-5.65H399q19.62,0,29.12,7.85t9.5,24.17v49q0,16.34-9.5,24.18T399,246.35Zm-22.92-83.06v53.38h18.68c2.51,0,4.37-.62,5.57-1.88s1.81-3.19,1.81-5.81V170.83c0-2.62-.61-4.53-1.81-5.73s-3.06-1.81-5.57-1.81Z" style="fill:#ff25ff"/><path d="M510,246.35H460.39a4.85,4.85,0,0,1-5.65-5.66V222.33a4.85,4.85,0,0,1,5.65-5.66h42.24a3.61,3.61,0,0,0,3.06-1.33,5.14,5.14,0,0,0,1-3.22,6.15,6.15,0,0,0-1-3.92,4.16,4.16,0,0,0-3.06-1.42l-23.55-3.29q-11-1.58-17.67-7.23t-6.67-18.84V160.94q0-13.35,8.64-20.49t23.86-7.14h44a4.83,4.83,0,0,1,5.65,5.65v18.68a4.83,4.83,0,0,1-5.65,5.65H494.62a3.84,3.84,0,0,0-3.14,1.34,5.14,5.14,0,0,0-1.1,3.37,5.47,5.47,0,0,0,1.1,3.46,4.2,4.2,0,0,0,3.14,1.57L518,176.17q11,1.58,17.74,7.22t6.75,18.84v16.48q0,13.35-8.71,20.49T510,246.35Z" style="fill:#ff25ff"/><path d="M30,248.35H5.65A5.93,5.93,0,0,1,1.33,247,5.93,5.93,0,0,1,0,242.69V141a5.93,5.93,0,0,1,1.33-4.32,5.93,5.93,0,0,1,4.32-1.33H30a5.92,5.92,0,0,1,4.31,1.33A5.93,5.93,0,0,1,35.64,141V175H61.86V141a5.93,5.93,0,0,1,1.33-4.32,5.93,5.93,0,0,1,4.32-1.33H91.85A4.84,4.84,0,0,1,97.5,141V242.69a4.85,4.85,0,0,1-5.65,5.66H67.51A5.93,5.93,0,0,1,63.19,247a5.93,5.93,0,0,1-1.33-4.32V207.84H35.64v34.85A5.93,5.93,0,0,1,34.3,247,5.92,5.92,0,0,1,30,248.35Z" style="fill:#ff25ff"/><path d="M197.66,248.35H124.81A5.89,5.89,0,0,1,120.5,247c-.9-.89-1.34-2.33-1.34-4.32V141c0-2,.44-3.43,1.34-4.32s2.32-1.33,4.31-1.33h72.85a4.83,4.83,0,0,1,5.65,5.65v18.37c0,2-.44,3.43-1.33,4.31s-2.33,1.34-4.32,1.34H154.33v12.09h30.61a4.84,4.84,0,0,1,5.66,5.65v16.8a4.84,4.84,0,0,1-5.66,5.65H154.33v13.5h43.33a4.84,4.84,0,0,1,5.65,5.66v18.36a4.84,4.84,0,0,1-5.65,5.66Z" style="fill:#ff25ff"/><path d="M253.87,242.69a4.85,4.85,0,0,1-5.66,5.66H225.13a4.85,4.85,0,0,1-5.65-5.66V201.25A46.78,46.78,0,0,1,221,190.41a119.39,119.39,0,0,1,4.64-14.28l13.65-35.64a7.4,7.4,0,0,1,2.91-3.93,9.4,9.4,0,0,1,5.1-1.25H289.5a9.09,9.09,0,0,1,4.95,1.25,7.33,7.33,0,0,1,2.9,3.93L311,176.13a119.39,119.39,0,0,1,4.64,14.28,46.78,46.78,0,0,1,1.49,10.84v41.44a4.85,4.85,0,0,1-5.65,5.66H287.78a6.77,6.77,0,0,1-4.63-1.34c-1-.89-1.49-2.33-1.49-4.32v-22H253.87Zm8.94-74.41-7.37,23.86h24.64l-7.37-23.86a5.93,5.93,0,0,0-1.34-2,2.4,2.4,0,0,0-1.65-.63H265.8a2.4,2.4,0,0,0-1.65.63A5.93,5.93,0,0,0,262.81,168.28Z" style="fill:#ff25ff"/><path d="M395,248.35H342.1a4.84,4.84,0,0,1-5.65-5.66V141a4.83,4.83,0,0,1,5.65-5.65H395q19.62,0,29.12,7.85t9.5,24.17v49q0,16.34-9.5,24.18T395,248.35Zm-22.92-83.06v53.38h18.68c2.51,0,4.37-.62,5.57-1.88s1.81-3.19,1.81-5.81V172.83c0-2.62-.61-4.53-1.81-5.73s-3.06-1.81-5.57-1.81Z" style="fill:#ff25ff"/><path d="M506,248.35H456.39a4.85,4.85,0,0,1-5.65-5.66V224.33a4.85,4.85,0,0,1,5.65-5.66h42.24a3.61,3.61,0,0,0,3.06-1.33,5.14,5.14,0,0,0,1-3.22,6.15,6.15,0,0,0-1-3.92,4.16,4.16,0,0,0-3.06-1.42l-23.55-3.29q-11-1.58-17.67-7.23t-6.67-18.84V162.94q0-13.35,8.64-20.49t23.86-7.14h44a4.83,4.83,0,0,1,5.65,5.65v18.68a4.83,4.83,0,0,1-5.65,5.65H490.62a3.84,3.84,0,0,0-3.14,1.34,5.14,5.14,0,0,0-1.1,3.37,5.47,5.47,0,0,0,1.1,3.46,4.2,4.2,0,0,0,3.14,1.57L514,178.17q11,1.58,17.74,7.22t6.75,18.84v16.48q0,13.35-8.71,20.49T506,248.35Z" style="fill:#ff25ff"/></g><path d="M39,244.35H14.65A5.93,5.93,0,0,1,10.33,243,5.93,5.93,0,0,1,9,238.69V137a5.93,5.93,0,0,1,1.33-4.32,5.93,5.93,0,0,1,4.32-1.33H39a5.92,5.92,0,0,1,4.31,1.33A5.93,5.93,0,0,1,44.64,137V171H70.86V137a5.93,5.93,0,0,1,1.33-4.32,5.93,5.93,0,0,1,4.32-1.33h24.34A4.84,4.84,0,0,1,106.5,137V238.69a4.85,4.85,0,0,1-5.65,5.66H76.51A5.93,5.93,0,0,1,72.19,243a5.93,5.93,0,0,1-1.33-4.32V203.84H44.64v34.85A5.93,5.93,0,0,1,43.3,243,5.92,5.92,0,0,1,39,244.35Z" style="fill:#02feff"/><path d="M206.66,244.35H133.81A5.89,5.89,0,0,1,129.5,243c-.9-.89-1.34-2.33-1.34-4.32V137c0-2,.44-3.43,1.34-4.32s2.32-1.33,4.31-1.33h72.85a4.83,4.83,0,0,1,5.65,5.65v18.37c0,2-.44,3.43-1.33,4.31s-2.33,1.34-4.32,1.34H163.33v12.09h30.61a4.84,4.84,0,0,1,5.66,5.65v16.8a4.84,4.84,0,0,1-5.66,5.65H163.33v13.5h43.33a4.84,4.84,0,0,1,5.65,5.66v18.36a4.84,4.84,0,0,1-5.65,5.66Z" style="fill:#02feff"/><path d="M262.87,238.69a4.85,4.85,0,0,1-5.66,5.66H234.13a4.85,4.85,0,0,1-5.65-5.66V197.25A46.78,46.78,0,0,1,230,186.41a119.39,119.39,0,0,1,4.64-14.28l13.65-35.64a7.4,7.4,0,0,1,2.91-3.93,9.4,9.4,0,0,1,5.1-1.25H298.5a9.09,9.09,0,0,1,4.95,1.25,7.33,7.33,0,0,1,2.9,3.93L320,172.13a119.39,119.39,0,0,1,4.64,14.28,46.78,46.78,0,0,1,1.49,10.84v41.44a4.85,4.85,0,0,1-5.65,5.66H296.78a6.77,6.77,0,0,1-4.63-1.34c-1-.89-1.49-2.33-1.49-4.32v-22H262.87Zm8.94-74.41-7.37,23.86h24.64l-7.37-23.86a5.93,5.93,0,0,0-1.34-2,2.4,2.4,0,0,0-1.65-.63H274.8a2.4,2.4,0,0,0-1.65.63A5.93,5.93,0,0,0,271.81,164.28Z" style="fill:#02feff"/><path d="M404,244.35H351.1a4.84,4.84,0,0,1-5.65-5.66V137a4.83,4.83,0,0,1,5.65-5.65H404q19.62,0,29.12,7.85t9.5,24.17v49q0,16.34-9.5,24.18T404,244.35Zm-22.92-83.06v53.38h18.68c2.51,0,4.37-.62,5.57-1.88s1.81-3.19,1.81-5.81V168.83c0-2.62-.61-4.53-1.81-5.73s-3.06-1.81-5.57-1.81Z" style="fill:#02feff"/><path d="M515,244.35H465.39a4.85,4.85,0,0,1-5.65-5.66V220.33a4.85,4.85,0,0,1,5.65-5.66h42.24a3.61,3.61,0,0,0,3.06-1.33,5.14,5.14,0,0,0,1-3.22,6.15,6.15,0,0,0-1-3.92,4.16,4.16,0,0,0-3.06-1.42l-23.55-3.29q-11-1.58-17.67-7.23t-6.67-18.84V158.94q0-13.35,8.64-20.49t23.86-7.14h44a4.83,4.83,0,0,1,5.65,5.65v18.68a4.83,4.83,0,0,1-5.65,5.65H499.62a3.84,3.84,0,0,0-3.14,1.34,5.14,5.14,0,0,0-1.1,3.37,5.47,5.47,0,0,0,1.1,3.46,4.2,4.2,0,0,0,3.14,1.57L523,174.17q11,1.58,17.74,7.22t6.75,18.84v16.48q0,13.35-8.71,20.49T515,244.35Z" style="fill:#02feff"/><g id="Heads-2" data-name="Heads"><path d="M35,246.35H10.65A5.93,5.93,0,0,1,6.33,245,5.93,5.93,0,0,1,5,240.69V139a5.93,5.93,0,0,1,1.33-4.32,5.93,5.93,0,0,1,4.32-1.33H35a5.92,5.92,0,0,1,4.31,1.33A5.93,5.93,0,0,1,40.64,139V173H66.86V139a5.93,5.93,0,0,1,1.33-4.32,5.93,5.93,0,0,1,4.32-1.33H96.85A4.84,4.84,0,0,1,102.5,139V240.69a4.85,4.85,0,0,1-5.65,5.66H72.51A5.93,5.93,0,0,1,68.19,245a5.93,5.93,0,0,1-1.33-4.32V205.84H40.64v34.85A5.93,5.93,0,0,1,39.3,245,5.92,5.92,0,0,1,35,246.35Z" style="fill:#5332ff"/><path d="M202.66,246.35H129.81A5.89,5.89,0,0,1,125.5,245c-.9-.89-1.34-2.33-1.34-4.32V139c0-2,.44-3.43,1.34-4.32s2.32-1.33,4.31-1.33h72.85a4.83,4.83,0,0,1,5.65,5.65v18.37c0,2-.44,3.43-1.33,4.31s-2.33,1.34-4.32,1.34H159.33v12.09h30.61a4.84,4.84,0,0,1,5.66,5.65v16.8a4.84,4.84,0,0,1-5.66,5.65H159.33v13.5h43.33a4.84,4.84,0,0,1,5.65,5.66v18.36a4.84,4.84,0,0,1-5.65,5.66Z" style="fill:#5332ff"/><path d="M258.87,240.69a4.85,4.85,0,0,1-5.66,5.66H230.13a4.85,4.85,0,0,1-5.65-5.66V199.25A46.78,46.78,0,0,1,226,188.41a119.39,119.39,0,0,1,4.64-14.28l13.65-35.64a7.4,7.4,0,0,1,2.91-3.93,9.4,9.4,0,0,1,5.1-1.25H294.5a9.09,9.09,0,0,1,4.95,1.25,7.33,7.33,0,0,1,2.9,3.93L316,174.13a119.39,119.39,0,0,1,4.64,14.28,46.78,46.78,0,0,1,1.49,10.84v41.44a4.85,4.85,0,0,1-5.65,5.66H292.78a6.77,6.77,0,0,1-4.63-1.34c-1-.89-1.49-2.33-1.49-4.32v-22H258.87Zm8.94-74.41-7.37,23.86h24.64l-7.37-23.86a5.93,5.93,0,0,0-1.34-2,2.4,2.4,0,0,0-1.65-.63H270.8a2.4,2.4,0,0,0-1.65.63A5.93,5.93,0,0,0,267.81,166.28Z" style="fill:#5332ff"/><path d="M400,246.35H347.1a4.84,4.84,0,0,1-5.65-5.66V139a4.83,4.83,0,0,1,5.65-5.65H400q19.62,0,29.12,7.85t9.5,24.17v49q0,16.34-9.5,24.18T400,246.35Zm-22.92-83.06v53.38h18.68c2.51,0,4.37-.62,5.57-1.88s1.81-3.19,1.81-5.81V170.83c0-2.62-.61-4.53-1.81-5.73s-3.06-1.81-5.57-1.81Z" style="fill:#5332ff"/><path d="M511,246.35H461.39a4.85,4.85,0,0,1-5.65-5.66V222.33a4.85,4.85,0,0,1,5.65-5.66h42.24a3.61,3.61,0,0,0,3.06-1.33,5.14,5.14,0,0,0,1-3.22,6.15,6.15,0,0,0-1-3.92,4.16,4.16,0,0,0-3.06-1.42l-23.55-3.29q-11-1.58-17.67-7.23t-6.67-18.84V160.94q0-13.35,8.64-20.49t23.86-7.14h44a4.83,4.83,0,0,1,5.65,5.65v18.68a4.83,4.83,0,0,1-5.65,5.65H495.62a3.84,3.84,0,0,0-3.14,1.34,5.14,5.14,0,0,0-1.1,3.37,5.47,5.47,0,0,0,1.1,3.46,4.2,4.2,0,0,0,3.14,1.57L519,176.17q11,1.58,17.74,7.22t6.75,18.84v16.48q0,13.35-8.71,20.49T511,246.35Z" style="fill:#5332ff"/></g><g id="Layer_2-2" data-name="Layer 2"><g id="Layer_1-2-2" data-name="Layer 1-2"><path d="M529.23,11.12,509.66,7.57a12.63,12.63,0,0,0-4.07,0c-4.08.6-8.16,3.14-11.83,7.09h0c-6.64,7.1-12.22,19.05-14.61,33.05-4.22,24.4,2.55,46.05,15.06,48.34h0l19.55,3.55c12.59,2.27,26.25-15.7,30.57-40.13s-2.53-46.1-15.12-48.35ZM495.17,91.07C488.26,89.83,480.9,72.72,485,48.76c2.24-12.55,7.19-24.06,13.53-30.8,3.67-4,7.42-5.92,10.3-5.32C515.72,13.9,523.07,31,519,55c-2.25,12.43-7.28,24-13.54,30.69C501.77,89.61,498,91.6,495.17,91.07Zm19.57,3.54L505.67,93a25.44,25.44,0,0,0,2.81-2.34l12.23,2.22A8.57,8.57,0,0,1,514.74,94.61ZM524.17,90l-12.88-2.32c.8-.93,1.57-1.94,2.33-3l13.2,2.38A34.81,34.81,0,0,1,524.17,90Zm4.69-6-13.27-2.48c.61-1,1.21-2,1.76-3.1L530.9,81C530.21,82.08,529.57,83.09,528.86,84.06Zm3.51-6.2-13.56-2.47c.47-1,.94-2.07,1.37-3.17l13.59,2.46a29.06,29.06,0,0,1-1.32,3.18ZM535,71.49,521.38,69c.41-1.23.8-2.5,1.18-3.78l13.66,2.46q-.5,1.94-1.14,3.78Zm2-7.09-13.67-2.48c.36-1.42.69-2.89,1-4.38L538,60a28.45,28.45,0,0,1-.83,4.43Zm1.72-7.64-13.7-2.49c.22-1.5.41-3,.57-4.46l13.68,2.48C539.13,53.74,539,55.23,538.75,56.76Zm.81-7.84-13.65-2.48c0-1.33.14-2.66.16-4L539.68,45C539.68,46.22,539.64,47.55,539.56,48.92Zm0-7.41L526,39c0-1.17-.12-2.33-.21-3.55l13.54,2.45c.12,1.22.2,2.39.26,3.58Zm-.71-7-13.47-2.43c-.17-1.2-.37-2.37-.6-3.54L538.11,31c.31,1.15.55,2.32.78,3.56Zm-1.78-7.09L524,25c-.35-1.28-.73-2.48-1.16-3.63l12.88,2.32c.51,1.15,1,2.36,1.43,3.69Zm-3.68-7.52-12.23-2.2a25.27,25.27,0,0,0-1.35-2.5v-.67l8.62,1.56a8.6,8.6,0,0,1,5,3.76Z" style="fill:#ffde5a"/><path d="M571.23,43.6a3,3,0,0,0-3.46-1.77,2.18,2.18,0,0,0-1.83,2.64,1.8,1.8,0,0,0,.08.21c5.09,14,2.72,29.22-6.47,41.53a2.21,2.21,0,0,0,.7,3.31,3,3,0,0,0,3.75-.31h0C574.32,75.77,577,59,571.23,43.6Z" style="fill:#ffde5a"/><path d="M594.08,63.21a37.28,37.28,0,0,1-9.37,27.95,2.23,2.23,0,0,0,.45,3.43,3.12,3.12,0,0,0,3.76-.21l.49-.49A41,41,0,0,0,599.6,63.23a2.82,2.82,0,0,0-2.89-2.38,2.42,2.42,0,0,0-2.63,2.1A1.13,1.13,0,0,0,594.08,63.21Z" style="fill:#ffde5a"/><path d="M633.21,94.31A42.22,42.22,0,0,1,621.33,112a2.13,2.13,0,0,0-.06,3.29l.06,0a3.11,3.11,0,0,0,3.89.19,37.75,37.75,0,0,0,3.71-3.54,46.72,46.72,0,0,0,9.56-16,2.45,2.45,0,0,0-1.89-3,2.73,2.73,0,0,0-3.37,1.2Z" style="fill:#ffde5a"/><path d="M524.46.62a1.63,1.63,0,0,0-1.17,2.13.47.47,0,0,0,.05.1A2.27,2.27,0,0,0,526,4c.1,0,11.33-3.21,20.6,8a2.24,2.24,0,0,0,2.81.57l.07,0a1.32,1.32,0,0,0,.4-.34,1.58,1.58,0,0,0,0-2.11C538.79-3.53,524.6.57,524.46.62Z" style="fill:#ffde5a"/><path d="M529.92,104.79c-4,4.65-10.81,6.84-17.36,5.62a2.09,2.09,0,0,0-2.45,1.21,1.91,1.91,0,0,0,1.57,2.2c8.09,1.63,16.52-1,21.58-6.72a1.64,1.64,0,0,0-.38-2.49,2.26,2.26,0,0,0-2.88.11Z" style="fill:#ffde5a"/><path d="M614.46,77.56c1.71,14.77-7,23.38-7,23.45a2,2,0,0,0,.7,3,2.83,2.83,0,0,0,3.07-.17l.41-.41c1.87-2,9.29-11,7.6-25.75a2.71,2.71,0,0,0-2.71-2.11,1.93,1.93,0,0,0-2,1.77S614.46,77.5,614.46,77.56Z" style="fill:#ffde5a"/></g></g></g></g></svg>