<svg viewBox="0 0 45.01 39.23" xmlns="http://www.w3.org/2000/svg"><g fill="#fff"><path d="m32 0a1.63 1.63 0 0 0 -1.27.35c-.31.33-.44.7-.25 1 3.15 4.72 2.85 11-.73 17l12.74 6.11c2.83-5.19 3.32-10.52 1.49-15s-6.14-7.98-11.98-9.46zm9.1 23.26a23.27 23.27 0 0 0 -9.42-4.45c3.33-5.59 4-11.44 2-16.21 8.42 3.46 11.53 11.91 7.37 20.68z"/><path d="m6.84 11.45c0-.39-.43-.55-1-.44a2.49 2.49 0 0 0 -1.39 1c-4.06 6.65-5.39 13.1-3.79 18.19 1.56 4.92 5.8 8.1 11.87 9l6.85-16.59c-7.23-.73-11.94-4.84-12.54-11.16zm11.16 13.25a35.33 35.33 0 0 0 -5.1 12.15c-9.76-2.11-13-11-8-21.56 1.62 5.31 6.32 8.71 13.1 9.41z"/><path d="m36.42 11.47a1.63 1.63 0 0 1 0 .7c0 .5-.1 1-.17 1.46a5.34 5.34 0 0 0 .64-3.71z"/><path d="m35.37 14.92a14 14 0 0 0 .84-1.14v-1.47z"/><path d="m40 17.19c.18-.76.41-1.55.58-2.32.1-.42.18-.88-.11-1.1z"/><path d="m36.21 14.37c0-.27 0-.5.1-.77a1.62 1.62 0 0 0 -.1.18z"/><path d="m36.2 11.14v1.17l.25-.88a.76.76 0 0 0 -.25-.29z"/><path d="m39.8 9.2c.08-.46.05-1-.35-1v3.58c.14-.85.26-1.69.35-2.58z"/><path d="m6.94 28.93-2.27-1.53a2.54 2.54 0 0 0 2.27 1.53z"/><path d="m5.59 24.45-1.67-2.09c.23 1.14.85 1.98 1.67 2.09z"/><path d="m10.34 25.77-2.4-1.38a2.6 2.6 0 0 0 2.4 1.38z"/></g></svg>