<svg xmlns="http://www.w3.org/2000/svg" viewBox="0 0 76.9 113.62"><defs><style>.cls-1{fill:#231f20;}</style></defs><title>Capa 1</title><g id="Layer_2" data-name="Layer 2"><g id="Capa_1" data-name="Capa 1"><path class="cls-1" d="M68.68,10.53a2,2,0,0,0-2-.78,1.48,1.48,0,0,0-1.25,1.45A32.64,32.64,0,0,1,49.63,39.32L61.37,63.86A35.29,35.29,0,0,0,76.48,40C78,30,75.25,19.48,68.68,10.53ZM60.61,60a49.25,49.25,0,0,0-8.75-18,35.66,35.66,0,0,0,16.8-25.34C77,32,73.82,49.77,60.61,60Z"/><path class="cls-1" d="M25.21,2.09A1.42,1.42,0,0,0,24.34.26a2.91,2.91,0,0,0-2.66.13C10.42,7.18,3,16.67.72,27.14c-2.18,10.09.65,20.16,8,28.47L32.27,35C23.14,25.67,20.49,13.48,25.21,2.09ZM28.57,37a58.37,58.37,0,0,0-17.44,15C-.12,37.67,3.35,19,19.21,6.53,16.73,17.3,20.06,28.3,28.57,37Z"/><path class="cls-1" d="M64.72,34.87A3.77,3.77,0,0,1,64.16,36l-1.54,2.34a9.75,9.75,0,0,0,4.1-5.61Z"/><path class="cls-1" d="M60.27,39.55a11.11,11.11,0,0,0,2.08-1L63.61,36Z"/><path class="cls-1" d="M64.44,48.56l2.83-3.26c.5-.57,1-1.29.78-2Z"/><path class="cls-1" d="M61.84,39.55l.78-1.18-.27.17Z"/><path class="cls-1" d="M64.62,34l-1,2,1.11-1.16A1.16,1.16,0,0,0,64.62,34Z"/><path class="cls-1" d="M71.17,34.82c.48-.7,1-1.55.43-2.06l-3.15,6.09Z"/><path class="cls-1" d="M10,31.86,8.31,26.74C8.18,29,8.84,31,10,31.86Z"/><path class="cls-1" d="M12.12,22.8l-.38-5.38C11.05,19.56,11.2,21.64,12.12,22.8Z"/><path class="cls-1" d="M17.34,30.31l-2-5C15.35,27.54,16.12,29.49,17.34,30.31Z"/><path class="cls-1" d="M5.72,111.1,9.8,36.82a2.32,2.32,0,0,1,1.92-2.28l12-2.88A57.57,57.57,0,0,1,41.6,30.34,23.8,23.8,0,0,1,62,47.5c2.64,8.64,3,19.68,0,31.8a52.19,52.19,0,0,1-15.48,25.92,32.23,32.23,0,0,1-17.88,7.92c-2.76.24-5.4.48-8,.48H8.13A2.37,2.37,0,0,1,5.72,111.1ZM9.32,90v-.12c-.12,0-.12,0-.12-.12v-.12C8.72,89.62,9.09,90,9.32,90Zm3.36,18.12a4.38,4.38,0,0,1-.71-.24,1.32,1.32,0,0,0-.61.12.89.89,0,0,1-.6.12c-.24,0,.6.36,1,.36a.89.89,0,0,0,.6-.12C12.44,108.22,12.56,108.1,12.68,108.1Zm-1.92-7.68.6.12.12-.12-.72-.24Zm2.4,3.72a4.72,4.72,0,0,0-.24-.72.79.79,0,0,1-.12-.72H11.72a3,3,0,0,1-1-.12.44.44,0,0,1,.12.36.5.5,0,0,0,.13.36,6.69,6.69,0,0,1,.35,1.44,1.84,1.84,0,0,0,.61,1,1.79,1.79,0,0,1,.71-1C12.92,104.5,13.16,104.26,13.16,104.14ZM12,61.06v-.84c0-.6.11-1.92.23-3.24a5.51,5.51,0,0,0,.12-1.2,19.77,19.77,0,0,0,.6-2.52c.12-.36-.36-1.08-.6-1.56L11,62.26c.11-.12.11-.24.23-.12s.24,0,.24-.12A8.82,8.82,0,0,0,12,61.06Zm1.19,12a5,5,0,0,0-1.44-1v1h.72A.76.76,0,0,0,13.16,73.06Zm2.16,28.08c0-.6-.84-1-1.08-1-.6,0-1,.24-1,.72v.24c.12,0,.12.12.12.24.48,0,1-.12,1.32-.12A2.1,2.1,0,0,1,15.32,101.14Zm1-65.16.24.24.12-.12-.36-.24Zm4.32,1.56a1.91,1.91,0,0,0-1.2-.6.37.37,0,0,1-.24.12h-.24v.12c0,.12,0,.24.12.24v.24A10.64,10.64,0,0,0,20.6,37.54ZM22,83.86a.8.8,0,0,0-.48-.6h-.72c-.24.24-.24.36-.12.36,0,.24.12.36.12.48s.24-.12.48-.12A2.11,2.11,0,0,1,22,83.86ZM21.8,99.34c.24-.36.12-.6-.48-.6v.48A.91.91,0,0,0,21.8,99.34Zm6.36-48.12L28,53.38h-.12a3.06,3.06,0,0,1-1.44,1,6.87,6.87,0,0,1,.84,1.92c0,.24.24.36.48.48L26,84.94H25c-.48.36-.84.6-.84.72v.6a1.73,1.73,0,0,0,.24.84,1.2,1.2,0,0,0,1.2.72h.12l-.24,4.92c7.2-1.32,11.28-4.44,13.8-10a54.43,54.43,0,0,0,3.12-7.68,53.13,53.13,0,0,0,1.68-8.76q.18.36.36.36a.66.66,0,0,0,.6.36c.36,0,1.2-.12,1.2-.84,0-.24-.48-.6-1.56-.84a2.66,2.66,0,0,0-.48.6,27.19,27.19,0,0,0-1.8-12.36c-1.44-3.84-4.32-4.2-8.52-3.48Q30.68,50.68,28.16,51.22Zm-.6-15.36h-.72c-.24.48-.36.6-.36,1s.6.36,1,.36v-.36C27.56,36.82,27.56,36.46,27.56,35.86Zm5,71.4c0-.24-.12-.36-.24-.36a.37.37,0,0,0-.24.12c-.12,0-.24.12-.36.12h.36A.91.91,0,0,0,32.6,107.26ZM33.68,40.9,35,41l.24-1H33.92ZM42,36.82c0-.24,0-.36-.12-.48s-.12-.24-.12-.48h-.84c-.24,0-.36.24-.36.6a1.09,1.09,0,0,0,.36.84C41.48,37.06,42,36.94,42,36.82Zm.6-1.92v-.24c-.12,0-.12-.12-.12-.24v-.24c-.24,0-.36-.12-.48-.12a.37.37,0,0,0-.24-.12,2.77,2.77,0,0,0-.84.84,2.34,2.34,0,0,0,.84.12Zm2.76,18.36a.71.71,0,0,0-.84.12,1.71,1.71,0,0,0,.72.24c.12,0,.24,0,.24-.24S45.44,53.26,45.32,53.26Zm-.12,31a1.3,1.3,0,0,0-.6-.12v.48c.24,0,.24,0,.48-.24A.12.12,0,0,0,45.2,84.22ZM46.4,61.9v-1a.42.42,0,0,0-.12-.24.42.42,0,0,1-.24-.12,1.09,1.09,0,0,1-.84.36.91.91,0,0,1-.48-.24c.24.36.36.6.24.84s.36.36,1.08.6Zm2.52,3.84-1-.48a.93.93,0,0,0-.12-.36c-.12-.12-.12-.36-.24-.6a1.32,1.32,0,0,0-1.2-.72h-.24a.12.12,0,0,1-.12.12c.12.24.24.24.48.36s.12.12.12.24a.44.44,0,0,1-.12.36c-.12,0-.12.12-.12.24s.6,1.44,1.32,1.44c.24,0,.36,0,.48-.12h.36C48.8,66.1,48.92,66,48.92,65.74ZM46.28,83.86,46,84.1s0,.12.24.24C46.4,84.22,46.4,84.1,46.28,83.86ZM48.2,55.3,48,55.06h-.72c-.36,0-.6.12-.6.48a.12.12,0,0,1,.12.12l.12.12h.72C47.72,55.78,47.84,55.54,48.2,55.3Zm.12,16c-.12,0-.12,0-.12-.12h-.6l-.24.24c.12,0,.12,0,.24.12s.12.12.36.12A.32.32,0,0,0,48.32,71.26Zm.12,8.4L48,79.3c-.12,0-.24.12-.36.12a.42.42,0,0,1-.24.12v.24l.24.36A1.93,1.93,0,0,0,48.44,79.66ZM48.2,48.94v-.48H48v.48Zm2.64,6.84c0-.12,0-.24-.24-.24s-.48-.12-.48-.24l-.24-.24c0-.12,0-.24-.24-.36h-.48a.62.62,0,0,0-.48.24q0,.18-.36.36c.84.24,1.32.48,1.32,1.2C49.88,56.62,50.84,56.38,50.84,55.78ZM50.36,81.7c-.12,0-.36-.24-.72-.48-.48-.48-.72-.72-.6-.48a1.48,1.48,0,0,0-.48,1c0,.24.48.72.84.48A1.07,1.07,0,0,1,50.36,81.7Zm-.48-11.76v-.48c-.12-.12-.24-.24-.24-.36a.72.72,0,0,0-.48-.12l-.48.12c0,.36,0,.6.12.72a.42.42,0,0,0,.12.24h.6C49.64,70.06,49.76,69.94,49.88,69.94Zm.6-8.64a.53.53,0,0,0-.36-.12.72.72,0,0,0-.48-.12c-.36.24-.48.48-.48.6q0,.72.72.36l.48-.48C50.36,61.42,50.48,61.42,50.48,61.3Zm-.6,17.52h1.2c0-.12,0-.24-.12-.24a.42.42,0,0,0-.12-.24c-.24,0-.36,0-.48-.12V78.1c.12,0,.12,0,.12-.12s-.24-.36-.6-.48c-.12.12-.12.12-.24.12s0,.24-.12.24a.44.44,0,0,0-.12.36c0,.12,0,.24.24.36Zm.72-5.4c0-.12,0-.24-.12-.24s-.12-.12-.24-.12h-.72a1,1,0,0,0,.36.72h.24l.12-.12h.12l.12-.12h.12Zm.12-2.88c-.12,0-.24.12-.36.12a.42.42,0,0,0-.24.12c.24.24.36.48.48.6A.74.74,0,0,0,50.72,70.54ZM52,85.78v-.36l-.24-.36c0-.12-.24-.24-.36-.24h-1c-.24.12-.36.24-.36.48,0,.48.24.72,1,.72A5.4,5.4,0,0,0,52,85.78ZM50.6,68.26l-.36-.12v.12l.24.12Zm1.68,5.16v-.36a.38.38,0,0,1-.36-.36l-.24-.36H51.2a.64.64,0,0,0-.36.48.9.9,0,0,1-.12.6c0,.12,1,0,1.32,0Zm-.84-6,.72-.12v-.36c.12-.12,0-.24,0-.36a2.26,2.26,0,0,0-1,.24c.12.24.12.24.12.36A.37.37,0,0,0,51.44,67.42Zm2.64-18.6c0-.12-.12-.24-.12-.48v-.6a4.82,4.82,0,0,1-1.8.36c-.24.12-.36.36-.6.48l-.24.48c0,.72.72.72,1.08.72C53.24,49.78,54.08,49.54,54.08,48.82ZM54,77.26c0-.12-.12-.12-.24-.12s-.24-.12-.24-.12a17,17,0,0,1-.36-2.52H53c-.12,0-.24,0-.24-.12h-.12a.72.72,0,0,0-.48.12c.12.36.12.48.24.6a.44.44,0,0,1,.12.36c0,.24,0,.24-.24.48-.12,0-.12.12-.12.24v1.56c0,.36.24.48.84.84h.36a1,1,0,0,1,.24-.72A1.1,1.1,0,0,0,54,77.26Zm-.6,12.12V88.9h-.72v.24c-.12.12-.12.12-.12.24Zm.6-37a.88.88,0,0,0-.72-.24l-.48.24a.26.26,0,0,1,.24.24l.24.36Zm-.48,27.24v-.72h-.24v.72Zm1-3c-.24,0-.36.12-.48.12l.24.24V76.9l.12-.12A.12.12,0,0,1,54.44,76.66Zm.84-21.84c-.24-.24-.36-.24-.36-.48a1,1,0,0,0-.72.48.44.44,0,0,0,.48.48A2.11,2.11,0,0,0,55.28,54.82Zm-.36,1.92v-.48c-.12-.24-.24-.36-.24-.48a.66.66,0,0,0-.36.6C54.32,56.62,54.44,56.74,54.92,56.74Zm.72,4.08v-.6c-.12-.12-.36-.12-.72-.12s-.48.12-.48.36.12.12.24.36a1.46,1.46,0,0,0,.6.12C55.4,60.94,55.52,60.82,55.64,60.82Zm.48,14.4c0-.24-.36-.72-1.2-.72h-.24a.12.12,0,0,1-.12.12v.84c.24.12.36.24.6.24a.7.7,0,0,1,.48-.12C55.88,75.46,56.12,75.34,56.12,75.22ZM57.8,62.74v-.36c-.12-.12-.24-.12-.48-.12H57.2l-.12.12C57.32,62.62,57.56,62.86,57.8,62.74Zm.24,9.6a.32.32,0,0,0-.36-.36l-.24.24C57.44,72.34,57.68,72.34,58,72.34Z"/></g></g></svg>