<svg xmlns="http://www.w3.org/2000/svg" viewBox="0 0 642.95 526.4"><title>kingsCupLogo_1</title><g id="Layer_2" data-name="Layer 2"><g id="Layer_1-2" data-name="Layer 1"><path d="M16.3,306.55H10.05V162.62H16.3Zm12.52,0H22.56V162.62h6.26Zm12.52,0H35.08V162.62h6.26Zm12.51,0H47.59V162.62h6.26Zm3.65-72,36.85-72h7l-36.86,72,36.86,72h-7Zm14.08,0,36.77-72h7l-36.77,72,36.77,72h-7Zm14,0,36.77-72h6.95l-36.76,72,36.76,72h-6.95Zm14,0,36.76-72h7l-36.77,72,36.77,72h-7Z" style="fill:#fff"/><path d="M155.28,162.62h6.26V306.55h-6.26Zm12.52,0h6.25V306.55H167.8Zm12.51,0h6.26V306.55h-6.26Zm12.52,0h6.25V306.55h-6.25Z" style="fill:#fff"/><path d="M221.86,172.79V306.55H215.6V162.62h7.47l88.22,143.93h-7.21Zm6.25,17.81,6.26,10.61V306.55h-6.26Zm2.18-28h7.3l88.48,143.93h-7.31Zm10.34,48.76,6.26,10.51v84.66h-6.26Zm4.43-48.76h7.39l88.39,143.93h-7.47Zm8.08,69.27,6.26,10.34v64.32h-6.26Zm6.61-69.27h7.3L349.1,296.38V162.62h6.26V306.55H348Zm58.06,74.66-6.26-10.35V162.62h6.26Zm12.51,20.51-6.25-10.52V162.62h6.25Zm12.52,20.77L336.58,268V162.62h6.26Z" style="fill:#fff"/><path d="M480.6,231.37v75.18a95.92,95.92,0,0,1-34.25,6.25,79.45,79.45,0,0,1-54.23-21.33A73.52,73.52,0,0,1,375,266.61a80,80,0,0,1-6.39-32,76,76,0,0,1,6.22-30.37,77.16,77.16,0,0,1,41.63-41.64,77.92,77.92,0,0,1,67.23,3,78.22,78.22,0,0,1,27.81,25L506.33,194a71.56,71.56,0,0,0-25.6-22.94,71.87,71.87,0,0,0-61.8-2.74,70.6,70.6,0,0,0-38.33,38.33,70.55,70.55,0,0,0-5.69,27.94A73.62,73.62,0,0,0,380.78,264a67.52,67.52,0,0,0,15.64,22.86,72.83,72.83,0,0,0,22.73,14.47,71,71,0,0,0,26.94,5.26,87.27,87.27,0,0,0,28.25-4.61v-6a84.83,84.83,0,0,1-27.2,4.35A70.09,70.09,0,0,1,427,297.38a63.9,63.9,0,0,1-18.08-8.61,65.65,65.65,0,0,1-14.52-13.56,60.3,60.3,0,0,1-9.73-18.33,69.5,69.5,0,0,1-3.52-22.3A64.22,64.22,0,0,1,390,201.64a65.39,65.39,0,0,1,23.95-23.94,65.86,65.86,0,0,1,64-1,65.77,65.77,0,0,1,23.38,21.08l-5.21,3.39a59.07,59.07,0,0,0-21.16-19,59.44,59.44,0,0,0-51.15-2.3,58,58,0,0,0-31.64,31.63,58.49,58.49,0,0,0-4.69,23.12A63.85,63.85,0,0,0,390.6,255a53.73,53.73,0,0,0,8.78,16.6,58.42,58.42,0,0,0,29.37,19.86A63.54,63.54,0,0,0,446.88,294a77.77,77.77,0,0,0,27.46-4.87v-6.25a74.17,74.17,0,0,1-26.86,4.95,57.26,57.26,0,0,1-20.25-3.61A54.63,54.63,0,0,1,410.07,274a46.59,46.59,0,0,1-11.95-16.86,56.3,56.3,0,0,1-4.44-22.6,52.15,52.15,0,0,1,7.13-26.68,53.08,53.08,0,0,1,46.07-26.51A52,52,0,0,1,472,187.65a52.59,52.59,0,0,1,18.9,17l-5.21,3.39A47,47,0,0,0,469,193.17a47.14,47.14,0,0,0-45.68.78A46.86,46.86,0,0,0,406.24,211a45.81,45.81,0,0,0-6.3,23.55,52.51,52.51,0,0,0,2.52,16.52,42,42,0,0,0,7,13.21,44.15,44.15,0,0,0,10.38,9.47,46.42,46.42,0,0,0,12.82,5.87,52,52,0,0,0,14.26,2,65.46,65.46,0,0,0,27.46-5.82v-6a65.05,65.05,0,0,1-26.68,5.48,47.35,47.35,0,0,1-15.56-2.52,41.68,41.68,0,0,1-13.17-7.39,33.6,33.6,0,0,1-9.3-12.82,44.82,44.82,0,0,1-3.43-17.95,39.58,39.58,0,0,1,3.22-15.77,40.14,40.14,0,0,1,21.68-21.69,40.53,40.53,0,0,1,35,1.61,40.52,40.52,0,0,1,14.43,13.08l-5.13,3.39a34.29,34.29,0,0,0-28.5-15,34.43,34.43,0,0,0-34.42,34.42,39.17,39.17,0,0,0,2.87,15.52,27.22,27.22,0,0,0,7.86,10.77A35.12,35.12,0,0,0,434.32,267a41.38,41.38,0,0,0,13.16,2,61,61,0,0,0,26.86-6V231.37Zm6.26,0h6.25v75.18h-6.25Zm12.51,0h6.26v75.18h-6.26Zm12.52,0h6.26v75.18h-6.26Z" style="fill:#fff"/><path d="M591.67,218.94H581.16q-6.69,0-9.65-3.44a13.41,13.41,0,0,1-3-9.08q0-12.51,18.68-12.51,17.57,0,26.42,5.21l-5,3.83q-6.07-2.79-21.38-2.79c-5,0-8.33.56-10,1.66a5.18,5.18,0,0,0-2.56,4.6A6.93,6.93,0,0,0,576,211q1.4,1.65,5.13,1.65h10.78a53.64,53.64,0,0,1,21.16,4,42.07,42.07,0,0,1,15.51,10.91,48.28,48.28,0,0,1,9.3,15.9,56.65,56.65,0,0,1,3.22,19.25,52.34,52.34,0,0,1-2.35,15.82,44.69,44.69,0,0,1-7.08,13.73,48.69,48.69,0,0,1-11.39,10.82,52.7,52.7,0,0,1-15.81,7.13,73.59,73.59,0,0,1-19.87,2.56,95.07,95.07,0,0,1-31.41-5.08,67.32,67.32,0,0,1-24.38-14.21l5-3.74a61.28,61.28,0,0,0,22.2,12.39,91,91,0,0,0,28.55,4.39,63.63,63.63,0,0,0,21.52-3.44A43.29,43.29,0,0,0,622,293.68a41.55,41.55,0,0,0,9.56-13.9,43.27,43.27,0,0,0,3.35-17A48.33,48.33,0,0,0,630,240.88,38.49,38.49,0,0,0,615.18,225Q605.23,218.95,591.67,218.94Zm-10.51,31.29h9.56q6.69,0,9.65,3.47a13.48,13.48,0,0,1,3,9q0,12.52-18.69,12.52-17.64,0-26.5-5.22l5-3.82q6.08,2.77,21.46,2.78c5,0,8.33-.55,10-1.65a5.2,5.2,0,0,0,2.57-4.61,6.81,6.81,0,0,0-1.44-4.56c-.95-1.13-2.71-1.7-5.25-1.7h-9.39a57.44,57.44,0,0,1-21.69-3.91,42.43,42.43,0,0,1-15.9-10.77,47.84,47.84,0,0,1-9.52-15.91,56.29,56.29,0,0,1-3.3-19.47,52.7,52.7,0,0,1,2.34-15.82,44.94,44.94,0,0,1,7.09-13.73,48.83,48.83,0,0,1,11.38-10.82,53.12,53.12,0,0,1,15.82-7.13,73.57,73.57,0,0,1,19.86-2.56,94.81,94.81,0,0,1,31.38,5.08A67.52,67.52,0,0,1,643,175.65l-5,3.74A61.1,61.1,0,0,0,615.75,167a90.33,90.33,0,0,0-28.51-4.39,63.53,63.53,0,0,0-21.51,3.43,43.47,43.47,0,0,0-15.82,9.43,41.73,41.73,0,0,0-9.56,13.91,43.25,43.25,0,0,0-3.34,17,48.38,48.38,0,0,0,5,22.08,37.82,37.82,0,0,0,15.12,15.77Q567.25,250.23,581.16,250.23Zm0-25h9.91q17.64,0,27.59,10.77t10,26.77q0,16.26-11.56,26.9t-32.42,10.65a85.27,85.27,0,0,1-26-3.83,55.72,55.72,0,0,1-20.08-10.77l4.87-3.91a51,51,0,0,0,17.95,9A81.33,81.33,0,0,0,584.63,294q18.35,0,28-8.78t9.69-22.51q0-13.56-8.13-22.42T591,231.45h-9.82q-12.69,0-19-6.95t-6.34-18.08q0-11.11,7.87-18.08t23.59-7A78.65,78.65,0,0,1,607.75,184a44.08,44.08,0,0,1,15.65,7.35l-5,3.82q-10.86-7.47-31.2-7.47-13.12,0-19.16,5.17a17,17,0,0,0-6,13.6q0,8.52,4.47,13.65T581.16,225.2Zm0,12.51h9.56q12.69,0,19,7t6.35,18q0,11.13-7.87,18.08t-23.6,6.95a78.75,78.75,0,0,1-20.55-2.56,44.2,44.2,0,0,1-15.69-7.34l5-3.83q10.86,7.47,31.28,7.48,13.13,0,19.17-5.18a17,17,0,0,0,6-13.6q0-8.43-4.52-13.6T590.63,244h-9.47q-17.82,0-27.86-10.65t-10-26.9q0-16.24,11.56-26.9t32.42-10.64a85.29,85.29,0,0,1,26,3.82,55.84,55.84,0,0,1,20,10.78l-4.87,3.91a51,51,0,0,0-17.9-9,81,81,0,0,0-23.21-3.22q-18.33,0-28,8.78t-9.69,22.51q0,13.65,8.17,22.47T581.16,237.71Z" style="fill:#fff"/><path d="M240.06,404.2l-5.21,3.39a71.56,71.56,0,0,0-25.6-22.94,71.85,71.85,0,0,0-61.79-2.74,70.6,70.6,0,0,0-38.33,38.33,71.47,71.47,0,0,0,0,55.89,70.63,70.63,0,0,0,38.33,38.32,71.53,71.53,0,0,0,61.84-2.82,72.32,72.32,0,0,0,25.64-23l5,3.82a78.5,78.5,0,0,1-27.81,24.82,77.95,77.95,0,0,1-67.15,3,77.19,77.19,0,0,1-41.63-41.63,77.39,77.39,0,0,1,0-60.75A77.16,77.16,0,0,1,145,376.17a77.92,77.92,0,0,1,67.23,3A78.05,78.05,0,0,1,240.06,404.2Zm-10.25,7.13-5.22,3.39a59,59,0,0,0-21.16-19,59.44,59.44,0,0,0-51.15-2.3,58,58,0,0,0-31.64,31.63,59.33,59.33,0,0,0,0,46.24,58.07,58.07,0,0,0,31.64,31.64,58.49,58.49,0,0,0,23.12,4.69,57.87,57.87,0,0,0,28.07-7,59.51,59.51,0,0,0,21.12-19l5,3.73A65.32,65.32,0,0,1,206.3,506.2a65.92,65.92,0,0,1-63.84-1.13,65.47,65.47,0,0,1-23.94-23.95,65.86,65.86,0,0,1,0-65.88,65.44,65.44,0,0,1,23.94-23.94,65.88,65.88,0,0,1,64-1.05A65.86,65.86,0,0,1,229.81,411.33Zm-10.43,6.95-5.22,3.39a46.84,46.84,0,0,0-16.64-14.9,47.12,47.12,0,0,0-45.67.78,46.79,46.79,0,0,0-17.08,17.08,47.18,47.18,0,0,0,0,47.11,46.84,46.84,0,0,0,17.08,17.07,47,47,0,0,0,45.71.74,46.8,46.8,0,0,0,16.69-15l5.13,3.56a52.78,52.78,0,0,1-18.9,17,53.5,53.5,0,0,1-51.76-.87,52.7,52.7,0,0,1-19.38-19.39,53.48,53.48,0,0,1,0-53.36,52.68,52.68,0,0,1,19.38-19.38,53.43,53.43,0,0,1,51.76-.87A52.76,52.76,0,0,1,219.38,418.28ZM209,425.41l-5.13,3.39a34.29,34.29,0,0,0-28.51-15,34.42,34.42,0,1,0,0,68.84,33.67,33.67,0,0,0,16.3-4.08,34.33,34.33,0,0,0,12.21-11l5,3.65a40.45,40.45,0,0,1-14.43,12.95,40.45,40.45,0,0,1-34.89,1.56A40.14,40.14,0,0,1,137.94,464a40.25,40.25,0,0,1,0-31.55,40.12,40.12,0,0,1,21.69-21.69,40.53,40.53,0,0,1,35,1.61A40.52,40.52,0,0,1,209,425.41Z" style="fill:#fff"/><path d="M391,456.87V376.22h6.26v80.65a65.4,65.4,0,0,1-9.83,34.81,71.14,71.14,0,0,1-26.63,25.38,76.19,76.19,0,0,1-73.1,0A71.24,71.24,0,0,1,261,491.68a65.39,65.39,0,0,1-9.82-34.81V376.22h6.26v80.65a58.77,58.77,0,0,0,5.3,24.51A63.31,63.31,0,0,0,277,501.59a69.41,69.41,0,0,0,94.39,0,63.5,63.5,0,0,0,14.26-20.21A58.93,58.93,0,0,0,391,456.87Zm-12.52,0V376.22h6.26v80.65A52.72,52.72,0,0,1,379.87,479,58,58,0,0,1,367,497.2a60.71,60.71,0,0,1-19.3,12.17,63.17,63.17,0,0,1-46.93,0,60.66,60.66,0,0,1-19.29-12.17A57.8,57.8,0,0,1,268.53,479a52.56,52.56,0,0,1-4.82-22.12V376.22H270v80.65a47.18,47.18,0,0,0,7.3,25.43A52.68,52.68,0,0,0,297,500.81a57.49,57.49,0,0,0,54.32,0,52.72,52.72,0,0,0,19.77-18.51A47.09,47.09,0,0,0,378.43,456.87Zm-12.51,0V376.22h6.25v80.65a40.42,40.42,0,0,1-3.82,17.26,45.51,45.51,0,0,1-10.26,14.21,48.29,48.29,0,0,1-15.29,9.51,50.9,50.9,0,0,1-37.2,0,48.34,48.34,0,0,1-15.3-9.51,45.32,45.32,0,0,1-10.25-14.21,40.28,40.28,0,0,1-3.83-17.26V376.22h6.26v80.65a35.11,35.11,0,0,0,5.6,19.17A40,40,0,0,0,303.29,490a45.16,45.16,0,0,0,41.81,0A40,40,0,0,0,360.31,476,35,35,0,0,0,365.92,456.87Zm-12.52,0V376.22h6.26v80.65q0,13.22-10.43,22.6a38.06,38.06,0,0,1-50.06,0q-10.44-9.39-10.43-22.6V376.22H295v80.65q0,10.61,8.57,18.17a32,32,0,0,0,41.28,0Q353.41,467.48,353.4,456.87Z" style="fill:#fff"/><path d="M461.87,477H498.2a44.22,44.22,0,0,0,17.82-3.7,47.56,47.56,0,0,0,14.82-10,46.59,46.59,0,0,0,10-15.3,49.46,49.46,0,0,0,3.74-19.16,44.25,44.25,0,0,0-6.34-22.9,48.17,48.17,0,0,0-17.08-17.13,44.19,44.19,0,0,0-23-6.38H419.46V520.15H413.2V376.22h85a50.1,50.1,0,0,1,26.07,7.25,55,55,0,0,1,19.39,19.43,50.19,50.19,0,0,1,7.21,26,59.35,59.35,0,0,1-4.26,22.73,49.22,49.22,0,0,1-11.47,17.25,51.48,51.48,0,0,1-16.78,10.64,54.11,54.11,0,0,1-20.16,3.79H461.87Zm0-12.52H498.2a33,33,0,0,0,29.16-17,36.71,36.71,0,0,0,4.74-18.6q0-13.39-10.22-23.64T498.2,395H432V520.15h-6.26V388.73H498.2A38,38,0,0,1,518,394.3a42.19,42.19,0,0,1,14.82,14.86,38.11,38.11,0,0,1,5.51,19.73,42.41,42.41,0,0,1-5.56,21.51,40.13,40.13,0,0,1-14.73,15,38.68,38.68,0,0,1-19.86,5.35H461.87Zm0-12.51H498.2a21,21,0,0,0,15.17-6q6.21-6,6.21-17.08,0-8.26-6.52-14.82t-14.86-6.56H444.49V520.15h-6.26V401.25h60q10.95,0,19.29,8.43t8.35,19.21q0,13.29-8.09,21.33a26.68,26.68,0,0,1-19.55,8H461.87ZM457,520.15h-6.26V413.76H498.2a15.35,15.35,0,0,1,15.12,15.13q0,16.86-15.12,16.86H461.87v-6.26H498.2a8.8,8.8,0,0,0,6.52-2.35q2.34-2.34,2.34-8.25a8.53,8.53,0,0,0-2.56-6.35,8.64,8.64,0,0,0-6.3-2.52H457Z" style="fill:#fff"/><g id="Layer_2-2" data-name="Layer 2"><g id="Layer_1-2-2" data-name="Layer 1-2"><path d="M133.59,53.45a18.61,18.61,0,0,0-18.33-4.8l-8.15,2.27a24.73,24.73,0,0,0-29.8-16,16.62,16.62,0,0,0-1.81.59,5.35,5.35,0,0,0,0-.58,6,6,0,0,0-3.92-5.57c2,0,4.65.07,7.93.29h.3v-1.2c-3.19-.75-5.45-2-7-3.92s-2.27-5-2.27-8.58c3.78,0,6.66.75,8.63,2.1A11,11,0,0,1,83.16,25h1.22c-.16-2-.16-3.92-.16-5.57-.15-1.66-.15-3.16-.15-4.67s0-3,.15-4.67c0-1.65,0-3.46.16-5.56H83.16a10.86,10.86,0,0,1-3.94,6.92c-2,1.5-4.83,2.27-8.63,2.27,0-3.76.76-6.63,2.27-8.58a11,11,0,0,1,7-3.92V0c-2.27.15-4.09.15-5.76.15C72.41.3,70.89.3,69.53.3S66.65.3,65,.15c-1.67,0-3.49,0-5.76-.15V1.2a11,11,0,0,1,7,3.92c1.51,2,2.27,4.82,2.27,8.58-3.79,0-6.66-.75-8.63-2.26a10.84,10.84,0,0,1-4-6.92H54.68c.15,2.1.15,3.91.15,5.57.16,1.65.16,3.16.16,4.66s0,3-.16,4.67c0,1.65,0,3.61-.15,5.57h1.21a10.84,10.84,0,0,1,4-6.92c2-1.36,4.84-2.11,8.63-2.11,0,3.61-.74,6.62-2.27,8.58s-3.79,3.16-7,3.91v1.2h.3c3.27-.21,5.92-.28,7.93-.29a5.94,5.94,0,0,0-3.92,5.57,3.69,3.69,0,0,0,0,.58,17.23,17.23,0,0,0-1.84-.61,24.74,24.74,0,0,0-29.8,16l-8.15-2.27a18.78,18.78,0,0,0-23.1,13,18.49,18.49,0,0,0,0,10.06L8.65,99.54H3.29v6.39H8.38V129.5H3.29v6.38H134V129.5h-5.09V105.93H134V99.54h-3.57l8-27.88A18.32,18.32,0,0,0,133.59,53.45ZM15.33,121a2.81,2.81,0,1,1,2.83-2.81h0A2.81,2.81,0,0,1,15.33,121ZM9.63,69.15A9.45,9.45,0,0,1,21.29,57.53l9.48,2.63a25.69,25.69,0,0,0,.44,3.27l7.34,36.11H18.28ZM27,119a.86.86,0,1,1,0-1.71.87.87,0,0,1,.87.85h0A.86.86,0,0,1,27,119ZM38.65,121a2.81,2.81,0,1,1,2.83-2.81h0a2.81,2.81,0,0,1-2.83,2.8ZM40.3,61.6a15.28,15.28,0,0,1,12-18,15.52,15.52,0,0,1,7,.22A7.42,7.42,0,0,1,64.86,51V99.54H48ZM52.65,119a.86.86,0,1,1,.86-.86h0A.85.85,0,0,1,52.65,119Zm23,3.74-6.08,4.61-6.1-4.59v-9.19l6.1-4.59,6.09,4.59ZM86.38,119a.86.86,0,1,1,.86-.85h0a.85.85,0,0,1-.85.85ZM74.17,99.54V51a7.43,7.43,0,0,1,5.53-7.16A15.39,15.39,0,0,1,98.52,54.64a15.16,15.16,0,0,1,.21,7L91,99.54ZM100.39,121a2.81,2.81,0,1,1,2.83-2.8h0a2.81,2.81,0,0,1-2.83,2.8ZM112.06,119a.86.86,0,1,1,.86-.86h0a.86.86,0,0,1-.86.85ZM123.73,121a2.81,2.81,0,1,1,2.82-2.81h0a2.81,2.81,0,0,1-2.82,2.8Zm5.69-51.84-8.66,30.39H100.5l7.34-36.12a24,24,0,0,0,.44-3.27l9.48-2.63a9.43,9.43,0,0,1,11.66,11.62Z" style="fill:#fff"/></g></g></g></g></svg>