<svg xmlns="http://www.w3.org/2000/svg" viewBox="0 0 115.3 320.73"><title>Asset 1</title><g id="Layer_2" data-name="Layer 2"><g id="Capa_1" data-name="Capa 1"><path d="M98.78,99.05l-11-9.57A19.48,19.48,0,0,1,81,75.06l.13-49.13a13.85,13.85,0,0,0,5.8-11.06C86.9,6.76,79.37.05,70,.1L46.87,0c-9.33-.09-17,6.62-17,14.64a14.42,14.42,0,0,0,5.72,11.14l-.13,49.13a19.22,19.22,0,0,1-7,14.41l-11,9.48C6.61,108.19.6,120.65.56,134L0,305.63c0,8.11,7.54,14.82,16.91,14.77l80.79.33c9.33.09,17-6.62,17-14.64l.56-171.62C115.5,121,109.63,108.45,98.78,99.05ZM47,9.31l23.14.1c3.36,0,6.17,2.41,6.14,5.32s-2.78,5.35-6.14,5.35L47,20c-3.36,0-6.16-2.4-6.14-5.32S43.64,9.32,47,9.31ZM11.35,204.91l11.89.09c3,0,5.37-2.11,5.46-4.71s-2.43-4.72-5.43-4.7l-11.88-.1V184.83l23.44,0c3,0,5.37-2.11,5.46-4.72s-2.42-4.72-5.42-4.7l-23.45,0,.06-15.69,35,.1c3.36,0,6.17,2.41,6.14,5.33l-.27,80.29c0,2.92-2.77,5.34-6.14,5.35l-35-.11ZM104.1,306c0,2.92-2.78,5.35-6.14,5.35L17.17,311c-3.36,0-6.17-2.4-6.14-5.32l.2-45.46,35,.1c9.33.09,17-6.62,17-14.64l.27-80.3c0-8.11-7.55-14.82-16.91-14.77l-35-.1,0-16.36c0-10.81,4.86-21,13.71-28.59l11-9.48A28,28,0,0,0,46.51,75l.2-45.46c.14,0,.22,0,.36,0l23.13.1c.14,0,.23,0,.36,0l-.2,45.46c-.09,7.94,3.51,15.45,9.94,21.07l11,9.57c8.81,7.7,13.62,17.86,13.59,28.66Z" style="fill:#f70b0b"/><path d="M87,129.52a5.23,5.23,0,0,0-5.47,4.72l-.15,46.13c0,2.56,2.42,4.72,5.42,4.7a5.22,5.22,0,0,0,5.47-4.72l.15-46.13C92.42,131.66,90,129.5,87,129.52Z" style="fill:#f70b0b"/><path d="M74.76,119.77a5.64,5.64,0,0,0,3.82,1.35,6.16,6.16,0,0,0,3.85-1.33,4.26,4.26,0,0,0,0-6.64l-11-9.57a6,6,0,0,0-7.67,0,4.26,4.26,0,0,0,0,6.64Z" style="fill:#f70b0b"/><path d="M40.34,291H34.2l0-15.34c0-2.55-2.43-4.72-5.43-4.69s-5.37,2.11-5.46,4.71l0,20.09c0,2.55,2.43,4.72,5.43,4.69l11.53.08c3,0,5.37-2.11,5.46-4.72A5.21,5.21,0,0,0,40.34,291Z" style="fill:#f70b0b"/><path d="M75,291.07,63.42,291c-3,0-5.37,2.11-5.46,4.71s2.42,4.72,5.43,4.7l11.52.07c3,0,5.37-2.11,5.46-4.71C80.29,293.26,77.86,291.1,75,291.07Z" style="fill:#f70b0b"/></g></g></svg>