<svg xmlns="http://www.w3.org/2000/svg" viewBox="0 0 410.7 350.21"><title>SpinTheBottle</title><g id="Layer_2" data-name="Layer 2"><g id="Layer_1-2" data-name="Layer 1"><g id="SpinTheBottle"><g style="opacity:0.8"><path d="M5,349.21V267.4H48.84l11.55,11.66v19.2l-5.11,6.88,9.44,9.55v22.86L53.06,349.21ZM15.1,301.7H45.63l4.66-6.33V282.5l-6-6.22-29.19.11Zm0,38.52H48.51l6.11-6.11V317.35l-6.44-6.66H15.1Z" style="fill:#f0f"/><path d="M92.25,349.21,80.59,337.55V279.06L92.25,267.4h38.62l11.66,11.66v58.49l-11.66,11.66Zm4.55-9h29.52l6.11-6.11V282.5l-6.11-6.11H96.8l-6.11,6.11v51.61Z" style="fill:#f0f"/><path d="M177.71,349.21V276.72H153.4V267.4h58.72v9.32H187.81v72.49Z" style="fill:#f0f"/><path d="M242.42,349.21V276.72h-24.3V267.4h58.71v9.32H252.52v72.49Z" style="fill:#f0f"/><path d="M289.82,349.21V267.4h10.1v72.48H341.1v9.33Z" style="fill:#f0f"/><path d="M353.75,349.21V267.4H407.7v9.32H363.86v24.87H403v9.21H363.86v29.08H407.7v9.33Z" style="fill:#f0f"/><path d="M122.82,216V143.52H98.52V134.2h58.71v9.32h-24.3V216Z" style="fill:#f0f"/><path d="M170.22,216V134.2h10.1v34.3h40.52V134.2h10.1V216h-10.1V177.49H180.32V216Z" style="fill:#f0f"/><path d="M252,216V134.2H306v9.32H262.13v24.87h39.18v9.21H262.13v29.08H306V216Z" style="fill:#f0f"/><path d="M79.2,82.81V73.48h40.3l6-6.1V51.06l-6-6.1H87.86L76.32,33.41V12.66L87.86,1h43.51v9.32h-39l-6.1,6.11L86.42,30l6,6.11h31.64l11.54,11.65V71.15L124.05,82.81Z" style="fill:#f0f"/><path d="M154,82.81V1H197.2l11.54,11.66V40.74L197.2,52.39H164.12V82.81Zm10.1-39.41h28.52l6-6.1V16.1l-6-6.22L164.12,10Z" style="fill:#f0f"/><path d="M220.84,82.81V73.48h10V10.32h-10V1h30.08v9.32h-10V73.48h10v9.33Z" style="fill:#f0f"/><path d="M269.34,82.81V1h13.77l36.52,65.82V1h10.1V82.81h-12l-35.86-64.6h-2.44v64.6Z" style="fill:#f0f"/><path d="M0,348.21V266.4H43.84l11.55,11.66v19.2l-5.11,6.88,9.44,9.55v22.86L48.06,348.21ZM10.1,300.7H40.63l4.66-6.33V281.5l-6-6.22-29.19.11Zm0,38.52H43.51l6.11-6.11V316.35l-6.44-6.66H10.1Z" style="fill:#f0f"/><path d="M87.25,348.21,75.59,336.55V278.06L87.25,266.4h38.62l11.66,11.66v58.49l-11.66,11.66Zm4.55-9h29.52l6.11-6.11V281.5l-6.11-6.11H91.8l-6.11,6.11v51.61Z" style="fill:#f0f"/><path d="M172.71,348.21V275.72H148.4V266.4h58.72v9.32H182.81v72.49Z" style="fill:#f0f"/><path d="M237.42,348.21V275.72h-24.3V266.4h58.71v9.32H247.52v72.49Z" style="fill:#f0f"/><path d="M284.82,348.21V266.4h10.1v72.48H336.1v9.33Z" style="fill:#f0f"/><path d="M348.75,348.21V266.4H402.7v9.32H358.86v24.87H398v9.21H358.86v29.08H402.7v9.33Z" style="fill:#f0f"/><path d="M117.82,215V142.52H93.52V133.2h58.71v9.32h-24.3V215Z" style="fill:#f0f"/><path d="M165.22,215V133.2h10.1v34.3h40.52V133.2h10.1V215h-10.1V176.49H175.32V215Z" style="fill:#f0f"/><path d="M247,215V133.2H301v9.32H257.13v24.87h39.18v9.21H257.13v29.08H301V215Z" style="fill:#f0f"/><path d="M74.2,81.81V72.48h40.3l6-6.1V50.06l-6-6.1H82.86L71.32,32.41V11.66L82.86,0h43.51V9.32h-39l-6.1,6.11L81.42,29l6,6.11h31.64l11.54,11.65V70.15L119.05,81.81Z" style="fill:#f0f"/><path d="M149,81.81V0H192.2l11.54,11.66V39.74L192.2,51.39H159.12V81.81Zm10.1-39.41h28.52l6-6.1V15.1l-6-6.22L159.12,9Z" style="fill:#f0f"/><path d="M215.84,81.81V72.48h10V9.32h-10V0h30.08V9.32h-10V72.48h10v9.33Z" style="fill:#f0f"/><path d="M264.34,81.81V0h13.77l36.52,65.82V0h10.1V81.81h-12l-35.86-64.6h-2.44v64.6Z" style="fill:#f0f"/></g><g style="opacity:0.8"><path d="M8,350.21V268.4H51.84l11.55,11.66v19.2l-5.11,6.88,9.44,9.55v22.86L56.06,350.21ZM18.1,302.7H48.63l4.66-6.33V283.5l-6-6.22-29.19.11Zm0,38.52H51.51l6.11-6.11V318.35l-6.44-6.66H18.1Z" style="fill:aqua"/><path d="M95.25,350.21,83.59,338.55V280.06L95.25,268.4h38.62l11.66,11.66v58.49l-11.66,11.66Zm4.55-9h29.52l6.11-6.11V283.5l-6.11-6.11H99.8l-6.11,6.11v51.61Z" style="fill:aqua"/><path d="M180.71,350.21V277.72H156.4V268.4h58.72v9.32H190.81v72.49Z" style="fill:aqua"/><path d="M245.42,350.21V277.72h-24.3V268.4h58.71v9.32H255.52v72.49Z" style="fill:aqua"/><path d="M292.82,350.21V268.4h10.1v72.48H344.1v9.33Z" style="fill:aqua"/><path d="M356.75,350.21V268.4H410.7v9.32H366.86v24.87H406v9.21H366.86v29.08H410.7v9.33Z" style="fill:aqua"/><path d="M125.82,217V144.52h-24.3V135.2h58.71v9.32h-24.3V217Z" style="fill:aqua"/><path d="M173.22,217V135.2h10.1v34.3h40.52V135.2h10.1V217h-10.1V178.49H183.32V217Z" style="fill:aqua"/><path d="M255,217V135.2H309v9.32H265.13v24.87h39.18v9.21H265.13v29.08H309V217Z" style="fill:aqua"/><path d="M82.2,83.81V74.48h40.3l6-6.1V52.06l-6-6.1H90.86L79.32,34.41V13.66L90.86,2h43.51v9.32h-39l-6.1,6.11L89.42,31l6,6.11h31.64l11.54,11.65V72.15L127.05,83.81Z" style="fill:aqua"/><path d="M157,83.81V2H200.2l11.54,11.66V41.74L200.2,53.39H167.12V83.81Zm10.1-39.41h28.52l6-6.1V17.1l-6-6.22L167.12,11Z" style="fill:aqua"/><path d="M223.84,83.81V74.48h10V11.32h-10V2h30.08v9.32h-10V74.48h10v9.33Z" style="fill:aqua"/><path d="M272.34,83.81V2h13.77l36.52,65.82V2h10.1V83.81h-12l-35.86-64.6h-2.44v64.6Z" style="fill:aqua"/></g><g id="Bottle"><path d="M3,349.21V267.4H46.84l11.55,11.66v19.2l-5.11,6.88,9.44,9.55v22.86L51.06,349.21ZM13.1,301.7H43.63l4.66-6.33V282.5l-6-6.22-29.19.11Zm0,38.52H46.51l6.11-6.11V317.35l-6.44-6.66H13.1Z" style="fill:#fff"/><path d="M90.25,349.21,78.59,337.55V279.06L90.25,267.4h38.62l11.66,11.66v58.49l-11.66,11.66Zm4.55-9h29.52l6.11-6.11V282.5l-6.11-6.11H94.8l-6.11,6.11v51.61Z" style="fill:#fff"/><path d="M175.71,349.21V276.72H151.4V267.4h58.72v9.32H185.81v72.49Z" style="fill:#fff"/><path d="M240.42,349.21V276.72h-24.3V267.4h58.71v9.32H250.52v72.49Z" style="fill:#fff"/><path d="M287.82,349.21V267.4h10.1v72.48H339.1v9.33Z" style="fill:#fff"/><path d="M351.75,349.21V267.4H405.7v9.32H361.86v24.87H401v9.21H361.86v29.08H405.7v9.33Z" style="fill:#fff"/></g><g id="The"><path d="M120.82,216V143.52H96.52V134.2h58.71v9.32h-24.3V216Z" style="fill:#fff"/><path d="M168.22,216V134.2h10.1v34.3h40.52V134.2h10.1V216h-10.1V177.49H178.32V216Z" style="fill:#fff"/><path d="M250,216V134.2H304v9.32H260.13v24.87h39.18v9.21H260.13v29.08H304V216Z" style="fill:#fff"/></g><g id="Spin"><path d="M77.2,82.81V73.48h40.3l6-6.1V51.06l-6-6.1H85.86L74.32,33.41V12.66L85.86,1h43.51v9.32h-39l-6.1,6.11L84.42,30l6,6.11h31.64l11.54,11.65V71.15L122.05,82.81Z" style="fill:#fff"/><path d="M152,82.81V1H195.2l11.54,11.66V40.74L195.2,52.39H162.12V82.81Zm10.1-39.41h28.52l6-6.1V16.1l-6-6.22L162.12,10Z" style="fill:#fff"/><path d="M218.84,82.81V73.48h10V10.32h-10V1h30.08v9.32h-10V73.48h10v9.33Z" style="fill:#fff"/><path d="M267.34,82.81V1h13.77l36.52,65.82V1h10.1V82.81h-12l-35.86-64.6h-2.44v64.6Z" style="fill:#fff"/></g></g></g></g></svg>