<svg xmlns="http://www.w3.org/2000/svg" viewBox="0 0 315.17 152.83">
  <defs>
    <style>
      .cls-1{fill:#fff}
    </style>
  </defs>
  <g id="Layer_2" data-name="Layer 2">
    <g id="Capa_1" data-name="Capa 1">
      <g id="TruthDare">
        <g id="HornsDare">
          <g id="Horns">
            <path class="cls-1" d="M180.54 83.78a1.62 1.62 0 00-1.26.35.82.82 0 00-.26 1c3.15 4.72 2.86 11-.72 17l12.7 6.12c2.82-5.2 3.32-10.52 1.49-15s-6.06-8.02-11.95-9.47zm9.11 23.22a23.28 23.28 0 00-9.42-4.46c3.32-5.58 4-11.43 2-16.2 8.46 3.47 11.58 11.92 7.42 20.66zM155.44 95.2c0-.39-.43-.54-1-.43a2.47 2.47 0 00-1.39 1c-4.1 6.68-5.43 13.14-3.84 18.22 1.57 4.93 5.81 8.11 11.88 9l6.85-16.6c-7.2-.75-11.94-4.87-12.5-11.19zm11.18 13.25a35.41 35.41 0 00-5.09 12.16c-9.76-2.11-13-11-8-21.57 1.59 5.32 6.29 8.73 13.09 9.41z"/>
            <path class="cls-1" d="M185 95.22a1.65 1.65 0 010 .7c0 .51-.09 1-.17 1.47a5.31 5.31 0 00.65-3.72zM184 98.67a13.7 13.7 0 00.83-1.13v-1.48zM188.6 101c.18-.76.41-1.56.58-2.32.1-.42.18-.88-.12-1.1z"/>
            <path class="cls-1" d="M184.81 98.12c.05-.26.05-.5.1-.77 0 .08-.08.11-.11.19zM184.8 94.89v1.17l.26-.87a.8.8 0 00-.26-.3zM188.4 93c.08-.46 0-1-.35-1v3.58c.13-.89.26-1.74.35-2.58zM155.53 112.68l-2.26-1.52a2.52 2.52 0 002.26 1.52zM154.19 108.21l-1.67-2.1c.23 1.15.84 1.98 1.67 2.1zM158.94 109.52l-2.4-1.38a2.58 2.58 0 002.4 1.38z"/>
          </g>
          <g id="Dare">
            <path class="cls-1" d="M166.56 151.66l-8-43.92a1.39 1.39 0 01.8-1.6l6.6-3.36a34.32 34.32 0 0110.24-3.27 14.28 14.28 0 0114.31 7.15 36.28 36.28 0 014.46 18.55 31.35 31.35 0 01-5.4 17.3 19.32 19.32 0 01-9.32 7.12c-1.58.53-3.09 1-4.63 1.41l-7.28 1.75a1.41 1.41 0 01-1.78-1.13zm-3.37-30.08l-.12-.49c-.09-.35-.2-1.13-.32-1.92a2.73 2.73 0 00-.1-.72 11.24 11.24 0 000-1.55c0-.23-.36-.58-.57-.83l.71 6.35c.06-.09 0-.16.13-.1s.14 0 .12-.11a4.6 4.6 0 00.15-.63zm-1-15.23l.17.1.06-.08-.25-.09zm3.38 22.07a3 3 0 00-1-.36l.14.56.42-.1a.47.47 0 00.44-.1zm.13 10.41v-.07c-.07 0-.07 0-.09-.06v-.07c-.31.07-.05.23.09.2zm-.77-32.18a1.13 1.13 0 00-.78-.18.28.28 0 01-.13.1h-.14v.07c0 .07 0 .14.1.12v.14a6.5 6.5 0 00.95-.25zm3.07 38.07h.37v-.08h-.45zm1.92 1.83a2.53 2.53 0 00-.24-.39c-.1-.12-.21-.24-.17-.4l-.63.15a1.61 1.61 0 01-.58.07.23.23 0 01.12.19.32.32 0 00.13.19 4 4 0 01.41.79 1.16 1.16 0 00.48.48 1.1 1.1 0 01.29-.66c.1-.18.21-.35.19-.42zm.28 2.38a2.55 2.55 0 01-.46 0 .83.83 0 00-.33.15c0 .09-.19.12-.33.16s.4.12.61.07.28-.06.33-.15.11-.16.18-.23zm.56-4.43c-.08-.35-.62-.44-.76-.41-.35.08-.53.27-.46.55v.14c.07 0 .09.06.11.13.28-.07.54-.21.75-.26a1.14 1.14 0 01.36-.15zm-2-39.81l-.42.11c-.08.31-.13.4-.08.61s.4.12.61.07l-.05-.21c.07-.02.02-.27-.06-.58zm3.5 28.78c0-.14-.21-.24-.36-.28l-.42.1c-.11.18-.09.25 0 .23 0 .14.12.19.14.26s.12-.1.26-.13a1.18 1.18 0 01.38-.18zm-1-19.9l.23 1.28h-.07a1.84 1.84 0 01-.71.76 3.93 3.93 0 01.76 1c0 .14.19.18.35.21l2.9 16.71-.56.13c-.23.28-.4.47-.39.54l.09.35a1 1 0 00.26.46.72.72 0 00.8.25h.07l.55 2.91c4-1.78 6-4.17 6.65-7.75a32.43 32.43 0 00.75-4.92 32.11 32.11 0 00-.25-5.34c.1.12.19.17.26.16a.38.38 0 00.4.12c.21 0 .68-.24.58-.66 0-.14-.36-.28-1-.27a1.32 1.32 0 00-.2.42 16.33 16.33 0 00-2.78-7c-1.38-2-3.11-1.84-5.46-.83-1.23.55-2.3 1.03-3.23 1.47zm3 29c.09-.24 0-.37-.36-.28l.07.28a.55.55 0 00.32-.03zM173 106.78l.79-.12v-.59l-.78.18zm4.26-3.54c0-.14 0-.21-.14-.27s-.1-.12-.13-.26l-.49.12c-.14 0-.18.19-.13.4a.65.65 0 00.33.44c.3-.23.61-.36.59-.43zm.08-1.21v-.14c-.07 0-.09 0-.1-.12v-.14h-.3a.18.18 0 00-.15 0 1.63 1.63 0 00-.37.61 1.45 1.45 0 00.5 0zm4.33 43.62c0-.14-.12-.2-.19-.18a.23.23 0 00-.12.1c-.07 0-.12.11-.19.13l.21-.06a.58.58 0 00.32.01zm-.14-33.29c-.23 0-.37 0-.48.19a1 1 0 00.46 0c.07 0 .14 0 .1-.17s.02-.04-.05-.02zm1.84 4.89l-.14-.56c0-.07-.1-.13-.1-.13a.25.25 0 01-.16 0 .65.65 0 01-.44.33.55.55 0 01-.31-.08c.19.18.29.3.26.46s.26.16.71.2zm.12-4.11l-.17-.1-.42.1c-.21 0-.33.15-.28.36a.07.07 0 01.08.06h.09l.42-.1c.1.03.14-.13.31-.32zm-.89-3.71l-.07-.28h-.14l.07.28zm2.78 9.7l-.63-.14a.61.61 0 00-.12-.19c-.09-.06-.12-.2-.23-.32a.77.77 0 00-.8-.25h-.14a.07.07 0 01-.05.09c.1.12.17.1.33.14s.09.05.1.12a.24.24 0 010 .23c-.07 0 0 .09 0 .16s.55.75 1 .65c.14 0 .21-.05.26-.13h.21a.32.32 0 00.1-.36zm-.28-6.08c0-.07 0-.14-.17-.1s-.3 0-.32-.08l-.17-.1c0-.07 0-.14-.19-.18l-.28.07a.38.38 0 00-.25.21c0 .07 0 .15-.16.26.53 0 .84.09.94.51.19.04.71-.24.63-.59zm.7 17.39a.85.85 0 00-.37 0l.07.28c.14 0 .14 0 .24-.2a.08.08 0 00.09-.08zm0-8h-.09l-.35.08-.1.17h.38a.19.19 0 00.19-.25zm.21-13.9c0-.07-.1-.12-.13-.26l-.09-.35a3 3 0 01-1 .46c-.12.1-.16.26-.28.36l-.07.32c.1.42.52.32.73.27.52-.12.98-.34.83-.8zm-.35 7.79a.26.26 0 00-.22 0 .45.45 0 00-.3 0 .57.57 0 00-.2.42c.07.28.23.32.47.11l.22-.35c.01-.1.08-.11.06-.18zm.86 5.12l-.06-.28c-.09 0-.18-.11-.19-.18a.44.44 0 00-.3 0l-.26.14c0 .21.08.35.17.4s.1.13.1.13l.35-.09c.1-.02.15-.1.22-.12zm-.14 8.63l-.11.17s0 .07.17.11.07-.16-.03-.28zm.67-2.76l-.33-.14c-.07 0-.13.1-.2.12a.25.25 0 01-.12.11v.13l.19.18a1.11 1.11 0 00.49-.4zm-.6-16.66a.49.49 0 00-.45 0l-.25.2a.16.16 0 01.17.11l.19.18zm.26 9.71h-.23v.07h.16zm.72 3c0-.07 0-.14-.1-.12s-.09-.06-.16 0l-.42.1a.67.67 0 00.31.37h.14l.06-.09h.07v-.08h.07zm-.33-1.7c-.07 0-.13.11-.19.12a.3.3 0 00-.13.11c.18.1.28.23.37.28a.47.47 0 00-.02-.5zm1.35 6.57a2.38 2.38 0 01-.48-.18c-.35-.22-.53-.32-.42-.2a.93.93 0 00-.15.63c0 .14.38.35.56.16a.62.62 0 01.52-.4zm-1.37-8.49l.41-.17-.06-.21c.06-.09 0-.14-.05-.21a1.23 1.23 0 00-.52.28c.1.12.1.12.12.19a.18.18 0 00.13.13zm.69 6.87l.7-.17c0-.07 0-.14-.1-.12a.25.25 0 00-.11-.12h-.29v-.07c.07 0 .07 0 .05-.08a.52.52 0 00-.42-.2c-.05.09-.05.09-.12.11s0 .14 0 .15a.27.27 0 000 .23c0 .07 0 .14.19.18zm.64-3.48l-.05-.22a.22.22 0 01-.26-.15l-.19-.18-.28.07a.38.38 0 00-.14.33c0 .14.07.28 0 .36s.56-.13.77-.18zm-.85-11.28c-.18-.1-.25-.09-.28-.23a.6.6 0 00-.35.38.26.26 0 00.34.22 1.26 1.26 0 00.32-.36zm.06 1.17l-.07-.28c-.11-.12-.19-.17-.21-.24a.41.41 0 00-.13.4c.07.15.16.2.44.09zm1 2.28l-.09-.35h-.43c-.21 0-.27.14-.23.28s.08 0 .19.18a.92.92 0 00.36 0c.09.01.15-.08.22-.1zm1.38 15.08l-.05-.21-.19-.18c0-.07-.17-.1-.24-.09l-.56.14c-.12.1-.18.19-.14.33s.24.39.66.28a2.6 2.6 0 00.52-.27zm-.07-5.24c0-.07-.09-.05-.16 0s-.15 0-.15 0a10.44 10.44 0 01-.57-1.42h-.27a.54.54 0 00-.27.14c.12.19.14.27.23.32a.28.28 0 01.12.19c0 .14 0 .14-.07.31-.07 0-.06.09 0 .16l.22.91c.05.21.21.25.61.38l.21-.06a.63.63 0 010-.45.62.62 0 00.17-.48zm.06 1.47l-.1-.42h-.14l.1.42zm.14-1.89c-.14 0-.2.12-.27.14l.18.11v-.16a.08.08 0 01.12-.09zm.78-1.07c0-.14-.32-.37-.81-.25h-.14a.06.06 0 01-.05.08l.12.49c.16 0 .24.1.38.06a.45.45 0 01.27-.14c.15-.07.32-.17.26-.24zm-.77-7.52v-.21c-.09-.05-.16 0-.3 0h-.07l-.05.09c.15.12.28.22.45.12zm1.14 16.17l-.07-.28-.42.1v.14c-.06.08-.06.08 0 .15zm.34-10.6a.19.19 0 00-.26-.16l-.1.17c.04.07.18.04.39-.01zM241.19 135.28l-10.57 2.54a1.29 1.29 0 01-1.7-.92l-2.75-8.38-10.07 4.64V140a1.38 1.38 0 01-1.14 1.38l-10.42 2.28a1.49 1.49 0 01-1.76-1.5c.15-5.81.49-11.82.86-17.68.28-4.37.79-8.71 1.39-13 .83-5.83 1.79-11.69 2.77-17.48a1.65 1.65 0 01.85-1.09c1.47-.65 2.92-1.37 4.48-2a16.07 16.07 0 014.05-1c2.78-.45 4.93 1.41 6.55 3.53.93 1.41 1.84 3 2.63 4.48.28.53 2.09 4.09 3.53 7.3l12.3 28.07a1.45 1.45 0 01-1 1.99zm-32.65-4v.14l.24.09c.14-.18.05-.23-.24-.23zm-1.21-24.45c0 .14.46.71.6.67a3 3 0 00-.27-1.12c.04-.15-.36.31-.33.45zm.77 1.67l.18.77.28-.07-.2-.84zm2.82 25.91l.45-.26-.06-.28c-.09-.05-.18-.11-.25-.09a1.3 1.3 0 01-.33-.14 1.16 1.16 0 01-1 .9c0 .07.42.49.77.41.07 0 .12-.11.17-.19s.14-.18.25-.35zm.08 2.2c-.07 0-.42-.2-.56-.16a.33.33 0 00-.28.36c.09.06.23 0 .42-.1zm-.83-3.13l.55.09.12-.1-.09-.36c0-.13-.19-.17-.47-.1-.05.08-.05.08-.12.1a.07.07 0 000 .09zm2 2.93a.37.37 0 00-.37-.28c-.24.21-.36.31-.35.38l.49.18c.06-.18.13-.26.2-.28zm-2.64-41.5l.28-.07-.1-.42-.28.07zm2.44 36.66a.54.54 0 00-.06.38c0 .07.09.06.16 0s.07 0 .05-.09-.01-.18-.18-.29zm-1.56-33.91a.27.27 0 01-.15 0l.21.91a2.08 2.08 0 01.15-.92zm1.57 21l-.28.07a2.81 2.81 0 000 .66.43.43 0 00.32.37 1.28 1.28 0 00.07-.61zm2.45 11.12a1.07 1.07 0 01-.24-.39 1 1 0 01-.24-.39 5.29 5.29 0 00-.93-.15.64.64 0 00-.56.73 1 1 0 001.08.48.23.23 0 00.19-.12zm-.49 5.37l-.17-.11c-.07 0-.14 0-.12.11h-.14a.68.68 0 01-.27.14c.18.1.25.09.33.14a.85.85 0 01.3 0c.13-.05.13-.12.04-.26zm1.23-21.4a2.44 2.44 0 00.54-1.17 1.93 1.93 0 000-.59c0-.23.13-.7.35-1.64l-.39-.05a1.36 1.36 0 00-.28.36c-.1.17-.21.35-.28.36a13.4 13.4 0 01-.05 1.35c-.07.31-.09.54-.16.56a.39.39 0 01-.14.33 1.06 1.06 0 00-.1.54c0-.16 0 .68-.12 1.66v1a2.71 2.71 0 01-.36 1.27 2.39 2.39 0 00-.33 1.41 1.68 1.68 0 000 .67 3 3 0 01-.18 1.08 4.41 4.41 0 00-.15.92c.07.28.19.48.26.46a.33.33 0 00.35-.08c0-.07.1-.18.16-.26a4.73 4.73 0 00.13-1.29 2.86 2.86 0 01.22-1.24 1.24 1.24 0 01.27-.73l.1-.84c0 .14.21-2.2.39-3.28zm-2.39-7.5s0-.07.12-.1.23 0 .26-.14h-.38c-.07 0-.05.08 0 .15zm2.77 21.4l-.77.19.08.35.77-.19zM215 100h.15v-.23h-.07zm.63 7.55c.36.58.58.6 1.08.19l.07-.61c0-.07-.1-.12-.1-.12s-.1-.13-.19-.18a1 1 0 00-.85.67zm6.37 11.02l-1.23-3.26c-.41-1.09-.82-2.18-1.3-3.25-.63-1.4-1.26-2.8-2-4.19l-.72 12.1zm-5.8-9.94l-.07.61h.15l.08-.61zm-.25-8.46l.15.33.35-.08c.09 0 .14 0 .28-.07a.57.57 0 00-.24-.38c-.21 0-.26.13-.26.13zm2.2-4.38l.26.16a1 1 0 000-.59c-.21 0-.35.08-.37 0zm.33-1.11l.21-.05-.14-.57-.21.06zm.36 1.17l.16.15v-.14l-.21-.25zm.85-.43l-.78.12.07.28c.08.05.08.05.12.19l.28-.07c0-.07 0-.16.14-.33a.4.4 0 01.17-.19zm.38 1.24l.17.11.91-.22c.07 0 .12-.1.25-.21-.25-.09-.4-.12-.45-.33l.09-.25a2 2 0 01-.6.3c-.21.05-.32.22-.37.6zm.4 1.68a.53.53 0 00.38.06.78.78 0 01.39.06c0-.09.11-.18.09-.25s0-.07 0-.15a1.16 1.16 0 00-.68-.06.25.25 0 00-.18.34zm2 23.67l-.35.08v.14l.35-.08zm-.38-7.76l.42-.1c0-.07-.1-.12-.19-.17a.77.77 0 01-.3 0zm1.26 12.66l-.1-.12-.19.12.1.12zm-.23-11.13l-.56.14v.14l.56-.14zm-1-15.53c-.07 0-.12.1-.09.24s.11.12.19.18l.42-.1a.58.58 0 00.22-.35.35.35 0 00-.44-.27c-.04.16-.18.19-.31.3zm.93 11l-.35.08c.11.15.38.01.3-.12zm-.37-3.69l.25.09.12-.11-.17-.1zm1.51 14.89a1 1 0 00-.44.33l.28-.07.17.11c.05-.13.01-.27-.02-.41zm.39-2.69h-.21l.07.29.21-.06zm-.07 1.58h.21v-.14h-.21zm-.33-7.55a.44.44 0 00-.11.47l.42-.1c-.17.19-.21.34.05.5l.63-.15v-.21h.07a.85.85 0 00-1.07-.55zm.4 3.83h-.14v.23h.16zm-.18-.77l.29.3a.94.94 0 01.41-.18 2.85 2.85 0 00.5 0c.21 0 .44-.33.41-.47l-1.05.25a1.39 1.39 0 00-.57.06zm.06-6.83v-.14a.07.07 0 01.05-.09H224l.07.28zm.18 8.47l-.1.17c.13-.07.18-.16.09-.21zm-.69-13.39v.15l.49-.12v-.14zm1.73 13.07a2 2 0 00-.44 0l-.11.17v.16h.52v-.15c0-.01.05-.08.02-.22zm0-2.36l-.1-.12-.49.11.06.28.42.2v-.07c.07 0 .07 0 .13-.1h.14c-.12-.22-.2-.27-.22-.34zm-1.11-9.88a.5.5 0 000 .23l.1.12.42-.1c-.09-.25-.3-.36-.58-.29zm1.43 19.81l-.21.06.06.28h.21zm-.26-10.3l.42-.1-.08-.35h-.23a.27.27 0 00-.23 0 .45.45 0 00-.24.5.56.56 0 01.38-.05zm.34 4.8l.09.36.28-.07-.09-.35zm.17 2.56a2.29 2.29 0 00.75 0c.23-.28.39-.54.36-.68s-.11-.12-.28-.23-.23 0-.24-.09l-.32.52a1.71 1.71 0 01-.25.48zm-.25-12.53v-.14h-.46v.14zm1 15.73l.71-.16-.06-.21-1 .23c.22.05.35.14.35.14zm-1-12.42c.09 0 .1.12.24.09l.09-.25c0-.07-.16 0-.43 0 0 .13 0 .13.1.19zm.47 2.25h-.14l.34.8a1.93 1.93 0 00.11-.76h-.23a.07.07 0 01-.09-.01zm1.78 3.72a.57.57 0 01-.24-.38 1.09 1.09 0 01-.24-.39 1.58 1.58 0 00-1.21-.08c0 .07.18.11.25.09s.41.19.64.51l.1.42zm-.16 9.22l-.49.12.07.28.49-.12zm-1.18-15.41c.21 0 .42-.1.39-.24s-.18-.11-.18-.11h-.14a.16.16 0 00-.1.18zm.67 10.8c.06.28.24.38.55.46l-.13-.56zm-.65-11.32c.28-.07.33-.16.28-.37zm.16 1.29a1.14 1.14 0 001.11-.34.89.89 0 00-.63-.15l-.56.14zm1.42.33l-.7.17c-.71.76-.67.6-.62.81s.33.44.91 1l1-.24c.07 0 .13-.1.27-.13a.63.63 0 00-.58-.24 1.14 1.14 0 01-.8-.25c.26-.14.46-.26.49-.41a1.31 1.31 0 01.32-.52c-.15-.13-.23-.18-.3-.16zm.79 15.65l-.47-.11c-.22 0-.29 0-.38-.05l.19.47zm-.66-11.69c0-.07-.1-.12-.27-.23a.33.33 0 01-.2.12c-.07 0-.07 0 0 .09s.38.06.45 0zm-.19 5.38v.14l.35-.08v-.14zm.69 5.61l.42-.1c-.05-.21-.19-.18-.49-.18zm.77 2.93l.77-.19c0-.14-.21-.25-.38-.35a1.19 1.19 0 01-.3.29zm1-4.47l-.49.12c0 .07.06.21.12.2s.18.1.27.15 0-.08.08-.24.03-.1.01-.2zm-.48-3.88a.75.75 0 00.78.48c.21 0 .35-.08.4-.17 0 .07.14 0 .4-.17-.1-.12-.17-.11-.24-.09l-.33-.14c-.09-.06-.14-.27-.22-.62 0 .23-.07.32-.28.37zm1.8 11.2a1.6 1.6 0 01-.38-.65l-.7.17a3.47 3.47 0 001 .72c.05-.09.05-.09 0-.16a.07.07 0 01.07-.05zm-1.5-16.09l.42-.1h-.44zm6.82 14.21c-.3-.66-.51-1.21-.68-1.61s-.38-.95-.68-1.61a1.92 1.92 0 01-.37-.28c-.12-.2-.21-.25-.22-.32s0-.3.23-.58c-.47-.1-.73-.26-.71-.49a1.47 1.47 0 00-.5-1.44 1 1 0 01-.32-.44.25.25 0 01.14-.33c.12-.1 0-.45-.36-.87l-.39.53c-.17.19-.28.37-.4.47l-.25-.09-.16-.7c-.07-.28.12-.4.54-.5l.33.14-.13-.56a4.51 4.51 0 00-1.14-.09c-.42.1-1.24.66-1.14 1.09 0 .06.1.12.19.17-.16 0 0 0 .33.14-.11.18-.07.32.12.49a1 1 0 01.33.15c.15 0 .17.1.17.1a.78.78 0 01-.46.26c-.42.1-.59.29-.54.5s0 .44 0 .53c.2-.12.51 0 .48.11a.17.17 0 01-.11.17c-.07 0-.07 0-.05.09a.29.29 0 010 .22.58.58 0 00-.08.32l.15.63c.32.07 1.68.19 1 .72a3.09 3.09 0 00.86-.13.62.62 0 00.27-.1l.42-.11.24 1h-.07v.07h-.07l.26.16c.08 0 .1.12.26.16a.14.14 0 00.17.1c.1.13.17.11.26.16s.16.34.22.62a1 1 0 00.63.44.32.32 0 010 .23v.14a1.32 1.32 0 00.89.6.39.39 0 00.33-.23zm-4-9.17l.28-.06v-.14l-.29.06zM277.28 119.06a1.35 1.35 0 010 1.94l-6.49 6.89a1.53 1.53 0 01-1.07.48 1.35 1.35 0 01-1.1-.55 85 85 0 00-5.53-6.67v-.07c-1.92-2.14-4-4.16-5.93-6.21l-3.67 2 2.85 12.79a1.3 1.3 0 01-1.07 1.74l-8.61 2.06a1.41 1.41 0 01-1.75-1.13l-7.54-44a1.38 1.38 0 01.87-1.61l10.25-3.87h.07l1.91-.68a30.59 30.59 0 019.73-2c8.25-.21 12.53 9 11.66 17.71a17.36 17.36 0 01-2.39 7 25.05 25.05 0 01-2.19 2.89zM240.39 91h.14l-.08-.35h-.14zm3.8 16.71l.35-.08c0-.07-.2-.18-.37-.29l.05.21c-.07-.01-.05.06-.03.13zm-.12-4.49c0 .14.1.12.19.18s.05-.09.12-.11v-.07a.42.42 0 00.09-.24l-.42.1zm1.76.54c-.4-.12-.66-.28-.94-.22-.07 0-.13.11-.25.21a1.44 1.44 0 00-.35.38h.29a.38.38 0 00.32.08c.1-.07.26-.21.93-.48zm-.92 1.71l-.26-.46h-.14l.25.46zm.77-2.34a1 1 0 00-.38-.35c-.16 0-.18-.11-.21-.25-.09.25-.28.37-.62.52a2.45 2.45 0 01.6 0c.15 0 .31.07.33.14zm-.72 2.55h-.16l-.07.31h.15zm1.7 2.18h-.15l-.39.24v.07zm.34-2.6l-.35.08.07.28.35-.08zm3.22 24.18l-.28.07c.05.21 0 .29-.07.31a.39.39 0 00.35-.41zm9.38-32.17c.36-1.57.73-3.73-.34-5.1v-.07a2.12 2.12 0 00-1.87-.74 9.35 9.35 0 00-2.9.92l-4.63 2.3 1.37 10.33c3.7-1.51 7.32-3.42 8.37-7.67zm-8.85-6.32a1.09 1.09 0 01.24.39c0-.07 0 .07.24.39l.25-.21c0-.07-.11-.12-.12-.19s-.09-.06-.11-.13l-.05-.2c0-.07 0-.15.18-.19zm1.42-2.11l.24-.21-.1-.13-.18.2zm.12-.7l.5-.12c.08-.24-.44-.56-.52-.62-.27.25-.27.48.02.71zm.24-2.43l.63-.15v-.14l-.63.15zm.24.39l-.06.09v.21l.35-.09a.42.42 0 01.09-.24l.06-.09zm.88.6h.16c.02 0 0 .07.09.05s.14 0 .12-.1v-.07zm2.17 19.18l-.33-.14a.36.36 0 00-.2.41l.31.08a1.17 1.17 0 00.22-.38zm-.09 2.1v-.15l-.28.07v.14zm.34 1.1h.21c0-.3 0-.37-.09-.35s-.26.13-.23.28.04.06.11.04zm-1.13-21.68l.72-.1.08-.24h-.59c-.14 0-.15.17-.21.34zm1.37 15.89l-.4-.13.07.28zM255 86.21h.14l.11-.18h-.14zm.44 1.82l.06.28h.14l-.06-.28zm1.74 23.58l-.13-.19-.12.1.11.12zm-1-22.87a1 1 0 00-.23.27l.7-.16-.12-.49a1.61 1.61 0 01-.38.38zM256 85.8l.24-.21c0-.07-.08 0-.15 0a.16.16 0 01-.18-.11zm.12 1.16a.27.27 0 00.13.19c.08 0 .08 0 .1.12l.42-.1-.09-.35zm1.2 1.26c0 .08.16 0 .33.15-.09-.06 0 0 .3 0h.07V88.22c-.02-.08-.17-.11-.66 0zm0-.66l.28-.07c.05-.08 0-.15 0-.14l-.17-.1c-.05.08 0 .15-.11.17zm1 14.26a.7.7 0 00.46 0l.08.35c.35-.08.33-.15.65-.38a1.19 1.19 0 00-.75 0v-.14a.22.22 0 00-.07-.28.47.47 0 00-.29.45zm.76 1.3l.56-.13h1.19l-.09-.06c-.09 0-.09 0-.1-.12v-.07l-.7.17-.26-.46a2.78 2.78 0 00-.52.67zm-.93-16.51h.07l.09.06h.07c.24-.21.28-.37.26-.44s-.1-.12-.19-.17a2.32 2.32 0 00-.22.55zm2 17.88c.23-.27.34-.45.29-.66a.25.25 0 01-.11-.12h-.08c-.09-.06-.09-.06-.23-.32l-.11.17h-.14l-.1.17.17.7a.39.39 0 01.39.06zm-.15-3.07l-.42.1c.21.25.42.49.58.53a.54.54 0 00-.08-.63zm-.57-13.19l-.32-.08s-.05.09-.26.14l.22.32c.13-.11.18-.19.25-.21zm.13.26c-.12.1-.24.21-.21.35s.18.1.32.07a2.33 2.33 0 01.36 0 1.22 1.22 0 00-.17-.7zm1.68 16.85c0-.14-.21-.24-.36-.28s-.37.31-.35.38a.89.89 0 00.43 0zm-1.44-16.22v.37l.09.05.28-.07v-.07h.14l-.05-.21a1 1 0 00-.46-.07zm1 15.45c0 .14.19.18.47.11h.14l-.12-.49c-.29.05-.5.17-.45.38zm-.72-18.71c.07 0 .06-.09 0-.16s.07 0 .11-.17h-.51c.04.2.32.36.44.33zm1.17 17.49c.07 0 .14 0 .12-.1a.47.47 0 00-.14-.27l-.26-.16c-.14.33-.16.56 0 .67s.25-.12.32-.14zm.09-2.09v-.14l-.2-.25-.32.52zm.52-2.13l-.08-.35-.58.06c-.19.12-.24.21-.17.19s-.13.11-.09.25.1.12.1.12c.49.04.74.13.86-.27zm-.47 6l.42-.1c.18-.19.14-.33-.12-.49-.2.24-.31.46-.26.63zm.59-1.25l.54-.21-.07-.28-.52.28zm1.17 1.49l-.08-.35c0-.07-.09 0-.16 0a.08.08 0 01-.09-.06.22.22 0 00-.15 0l-.49.11a1.23 1.23 0 01.27.53.32.32 0 00.35-.08zm-.12 3.21a.53.53 0 00-.61.23.62.62 0 00.52 0 .16.16 0 00.11-.18zm-.08-2.2c.05-.08.11-.17.09-.24a1.11 1.11 0 00-.67 0l.25.39c.18.01.32-.02.38-.11zm0 1.26c0-.07-.11-.12-.21-.25a1 1 0 00-.2.72.23.23 0 01.16 0l.49-.11zm-.28-9.78a.37.37 0 00-.19-.18.78.78 0 00-.39-.06v.53zm.27-1.62a.87.87 0 00-.88-.31zm-1-5l.35-.08a.28.28 0 00-.12-.19.62.62 0 01-.3 0zm.48.78a.63.63 0 00.11-.47l-.28.06c-.12.11-.18.19-.25.21s-.1.18 0 .16zm-.69-6.28l.28-.07-.05-.21-.28.07zm1.8 22.3h-.3l-.14.33h.3zm-.34-8.8H263l-.07.32h.3zm-.83-11.8l.17.7a1.53 1.53 0 00.31-.22.73.73 0 00-.39-.4zm2.23 20.72H264c-.09.24-.07.31.08.35a1.13 1.13 0 00.6-.27zm-1.21-19.56a2.42 2.42 0 00-.53.57l.57-.06c.22-.02.17-.23.05-.43zm-.28 3.77a2 2 0 00.52 0s-.09-.06-.1-.13a.32.32 0 00-.23 0h-.07c.11.18.04.2-.03.21zm1.13 4.1l-.63.15.05.21.63-.15zm-.58-5.19l-.35.08.07.28a.33.33 0 00.37-.28zm-.22 1.53l.24.09h.07l-.26-.15zm1.63 19.46c0-.14 0-.22-.13-.27a.08.08 0 01-.06.09v.09h-.07zm-1-23.15c0 .07.1.12.19.17s.17.11.24.09c-.12-.19-.21-.25-.27-.23a.23.23 0 00-.11.05zm4.61 2.22c.08 0 .22 0 .38.06a3 3 0 00.44 0v-.16a.24.24 0 000-.23 1.12 1.12 0 00-.43-.56l.14.56-.49.12c.13.19.08.27.01.29zM270 93.2l-.39-1.61h-.14l.39 1.61zm.48.77c-.3 0-.4-.13-.44-.27s-.06-.28-.17-.4l1.2 5a1.58 1.58 0 00.08-.91c-.05-.21-.19-.47-.28-.82a2.87 2.87 0 01-.23-.68.54.54 0 010-.37 2.31 2.31 0 00-.31-.67c-.18-.22-.17-.52.11-.85zm1 20l.26.16c.07 0 .12-.1.09-.24zm.71.5l-.35.08.1.42a.81.81 0 00.61.08.65.65 0 01-.24-.39c-.03-.1-.12-.15-.14-.22zm1.51 5h-.23l-.24-.09a1.24 1.24 0 00-.51 0c-.21 0-.39.24-.35.38a.89.89 0 00.63.15 1.92 1.92 0 00.68-.43zm-.65-3.62h-.16l-.08.25h.15zm1.58 2.58c0-.14-.2-.24-.5-.25-.11.17-.16.26-.14.33a.72.72 0 00.62.45.81.81 0 010-.23zM306.27 69.59l1.79 8.41a1.38 1.38 0 01-1 1.72l-18.76 6.63.91 5.93L303.45 88l1.64 6.86.28-.07-1.64-6.79a1.5 1.5 0 011.8 1l1.75 7.28a1.36 1.36 0 01-.85 1.69l-14.85 5.71 1.05 5.9 18.56-5a1.44 1.44 0 011.8 1l2.12 8.82a1.3 1.3 0 01-1 1.72L285 124.76a1.44 1.44 0 01-1.82-1.12c-1.58-6.88-3.1-14.14-4.55-21.72-1.52-7.85-2.74-15.71-3.82-23.59a1.33 1.33 0 011.1-1.6l28.46-8.24a1.49 1.49 0 011.9 1.1zm-27.94 13.15h-.07l-.13.1h.16zm6.2 37.84l-.84.2c.22.31.73-.03.84-.2zm-3.08-41.48a.68.68 0 00.14.27v.14l.28-.07a.42.42 0 01.09-.24c.06-.09.13-.11.11-.18zm.21-1.9l1.47-.35-.05-.21-1.47.35zm3.55 41.58l-.91.22.1.42.7-.17a.43.43 0 01.11-.47zm1.48 1.57h-.13l-.07-.28-.63.15.07.28.63-.15.06.28h.14zm-2.28-43.73l.21-.05v-.14h-.21zm1.64 23.15l.24.09c.07 0 .12-.1.26-.13 0-.14 0-.16.16-.27a.29.29 0 01-.22 0 1.31 1.31 0 00-.3 0 .39.39 0 00-.14.31zm1.44 19.58l.77-.19-.07-.28-.77.19zm-2.7-44.53h.14l-.05-.21h-.14zm2.51 33.24a.46.46 0 00.25-.5l-.42.1a.32.32 0 00.17.4zm-.46-5l.35-.08c.05-.09 0-.16-.07-.28-.26.14-.3.3-.28.36zm-.19-27.28l-1 .24v.07h-.14c-.19.12-.32.23-.3.29l.49-.11.05-.09.91-.22zm.47 30.33h.46v-.31a1.37 1.37 0 00-.37 0c-.05.2-.1.2-.09.31zm.73 3c0-.07 0-.09.09-.25l-.25-.09a1.14 1.14 0 00-.31.23l.13.26c.21-.04.28-.06.34-.14zm.95 12.58l-.56.13.06.28.56-.13zm.64-1.64l-1.19.29.15.63a3.38 3.38 0 011-.1.8.8 0 000-.36.71.71 0 00.04-.45zm-1.93-18.2c-.07 0-.3.3-.28.37a.61.61 0 00.49-.12zM286.36 85h.14l.05-.08c-.07 0-.09-.06-.1-.13s-.13.11-.09.21zm1.2 15.78a.7.7 0 00.13.26.6.6 0 00.39-.24.6.6 0 00-.4-.42c-.24.24-.28.4-.12.44zm-.81-12.32h.36c.06-.08 0-.15-.08-.35-.07 0-.13.11-.18.19s-.12.13-.1.2zm1.11 11.73l-.09-.06h-.15c-.08 0-.06.08-.13.1v.07c.19.12.26.1.37-.07zm.95 5.17a3.78 3.78 0 01-.42-.49l-.47.19.42.2a.44.44 0 00.47.14zm.77 12.48l-.77.19.07.28.77-.19zm-1-19.53a.36.36 0 01-.31-.08h-.09l-.35.08a1 1 0 00-.11.48 1.29 1.29 0 01.41-.18c.22-.06.36-.09.46-.26zm-1-8.71v-.09h-.37v.07zm1.42 20.21l-.05-.21c.07 0 0-.07-.06-.21-.2 0-.28.36-.28.36a.61.61 0 00.39.06zm-.75-6.49l.65-.08.07-.31c-.08-.06-.17-.11-.19-.18l-.35.08a.88.88 0 00-.2.49zm0-4.51L288 99a1.09 1.09 0 00.28.23c0-.23.14-.34.3-.3a1.94 1.94 0 00.61-.22 6.57 6.57 0 01-1 .1zm0 3.25l.08.35a1.08 1.08 0 00.7.13l.21-.05.17-.19-.21-.91a1 1 0 01-.33-.14 1 1 0 00-.3 0c-.37.08-.39.6-.34.81zm.49 5.74h.15a.26.26 0 00.2-.12l-.16-.33h-.14a.07.07 0 010 .09h-.14l.07.28zm1-8.6a.45.45 0 01-.3 0l-.28.07a.75.75 0 00-.39.24 2.56 2.56 0 00-.51.35c.32.07.61.07.7.12 0 .23-.06.39 0 .51l.59-.29c-.2-.26-.06-.59.14-1zm-1.53-3.56c0 .14.12.19.28.23a.89.89 0 00.66 0h.21l-.05-.21-.42.1a1.66 1.66 0 00-.73-.12zm.67 9.24l.79-.11c.07 0 .1-.18.09-.25l-.79.12c-.03.07-.09.15-.14.24zm.68 3.76l-.35.09v.07h.29zm-.75-15.44h-.29l-.06.09a.31.31 0 00-.14.33c.05.21.29.3.64.22a.47.47 0 00.27-.14l-.12-.49a.44.44 0 01-.35-.01zm.3 10.81l.21.25a.56.56 0 00.39-.25 1.19 1.19 0 00-.65-.01zm-.25-6.9A.7.7 0 00289 97h-.23c-.07 0-.14 0-.12.1s.13.17.16.01zm1 17.54l.1.42c0-.07.05-.08.11-.17l.21-.35zm-.09-9c-.11-.12-.21-.25-.16-.33s0-.23-.06-.28l-.16.26c-.07 0-.06.08 0 .15l.07.28zm-.32.22l.07.28h.21l-.07-.28zm-.59-10.15h.07zm-.14-3.37l.35-.09-.08-.35-.35.09zm1.11 10.77l-.17-.41c-.21 0-.34.16-.29.37l.07.28zm-2-26.62c0-.07.11-.17.22-.35s0-.15-.16 0-.25.06-.18.34zm3.09 41.84a1.82 1.82 0 00-.51.34 4.19 4.19 0 01.64 1.41 1.35 1.35 0 00-.25-1.76zm.2-18l-.35.08c-.14 0-.19.12-.17.2a.17.17 0 01-.11.17.45.45 0 00-.31-.37l-.42.1a.16.16 0 00.17.11l.26.16-.44.32a1.63 1.63 0 00-.28.37h.38l.42-.1c.14 0 .16 0 1-.53zm-2.21-21.24l-.24-.39c-.32.23-.5.42-.46.56s.22 0 .28-.07zm1 26.8c0 .07 0 .14.1.12s0 .07.1.13l.46-.26c-.07 0-.09-.06-.1-.13v-.07a1.64 1.64 0 00-.33.16zm.4-2l.17-.19h-.59l.07.28zm1-1a.16.16 0 00-.17-.11l-.18-.1a1.67 1.67 0 01-.61.22.7.7 0 00-.26.13.3.3 0 01-.13.11l.42.19a1.64 1.64 0 01.46-.25zm.07 13.24l-.56.13.08.35.56-.13zm-1.65-16.44c.16.33.3.3.58.23a1.61 1.61 0 00.45-.25l-.26-.16zm1.29 6.58l-.42.1.06.28.42-.1zm-1.21-28.44v-.07l.26-.44a.52.52 0 01-.24.21h-.14c-.07 0-.06.09-.2.12h-.14a1.11 1.11 0 00-.42.69l.17.11.84-.2c.14 0 .12-.11.12-.11h.07l.11-.18c-.24.03-.39.03-.43-.13zm1.76 36.6v-.14-.09l-.42.11c.05.14.21.17.42.12zm-.69-12.13c0-.13-.21-.24-.37-.28l-.07.32a.92.92 0 00.44-.04zm-.81-7.06l.35.21a2.35 2.35 0 00.36 0l.06-.09h.14l-.09-.35a.62.62 0 01-.45 0l-.12.1a.08.08 0 00-.06.09.61.61 0 00-.19.04zm1 6.21l-.42.1-.09.25.42-.11c.02-.01.1-.1.02-.24zm-.82-21.94a1.6 1.6 0 00-.68-.06c-.21.05-.34.15-.27.43l.4.13H290c.07 0 .1-.17.09-.24zm1.11 25.28l-.35.08.07.28a.33.33 0 00.25-.36zm-1.71-30.55a.14.14 0 01-.17-.1c-.16.1-.07.16.14.1zM291 94.58c.26-.14.23-.28-.1-.42zm3 24.16a2.74 2.74 0 00-.75.26c-.13.1-.27.14-.39.24s-.19.12-.33.15c.15 0 .59.31.62.45a4.33 4.33 0 00.57-.73c.11-.18.28-.28.28-.37zm-2.88-44c0-.13-.2-.24-.48-.17a.69.69 0 00-.57.43 1 1 0 01-.14.33.39.39 0 00.14-.33c.07 0 .2-.12.34-.16s.47.11.5.25l.07.28a.36.36 0 01.07-.31.33.33 0 00.08-.36zm.52 5.21c0-.14-.14-.26-.42-.19-.07 0-.06.09-.13.1h-.07v.09a.35.35 0 00-.07.31c0 .07.1.12.1.12l.49-.11c.1-.06.16-.15.11-.36zm.35-1c0-.07-.12-.19-.45-.34l-.11.47zm.07 4.28h-.14l.05.21h.14zm2.2 33.83l.08.35.56-.13-.08-.35zm-1.06-23.6l.41.2a.28.28 0 000-.51zm-.76-18.25l-.28.06v.14l.28-.06zm1 19.16c0 .07.11.13.21.25l.49-.12-.24-.09c-.16 0-.17-.1-.33-.14a.19.19 0 01-.16.1zm0-15a.49.49 0 00-.4-.43.44.44 0 01-.26.14.6.6 0 00-.26.14l.22.32.35-.09a.33.33 0 00.34-.11zm.1 16.12l.56-.14a.21.21 0 00.09-.24l-.07-.28-.56.13a.51.51 0 010 .3.35.35 0 01-.03.2zm-.87-17.79h.07l.09.06v-.23h-.21zm2.2 36l.21.25h.14l-.28-.23zm.53-2.72l.56-.13v-.14l-.56.13zm.22.91l.18.11c.19-.12.24-.21.07-.31s-.14 0-.13.1h-.14zm-1.13-19.5h.07v-.07zm1.8 18.6l-.42.1v.14l.42-.1zm-1.45-18.68v.07l.12-.11zm.06-13.94c0-.07-.1-.12-.19-.18l-.17-.1c-.32.22-.5.41-.46.55zm.5 14.4l-.28.06-.08.32.32.07zm1.74 21.13l-.17-.11h-.14l.2.25a.08.08 0 01.06-.09.06.06 0 00.04-.1zm.58-2.51l.26.45a.06.06 0 000-.08c.07 0 .06-.09 0-.16s.05-.09 0-.16a.55.55 0 00-.27-.1zM296 73.82l-.56.14.07.28.56-.14zm2.25 43.18a.89.89 0 00.16.34l1-.24c0-.07 0-.16.07-.31a.44.44 0 000-.3l-.43-.27-.84.21a1.32 1.32 0 00.04.57zm-.34-6.36a.4.4 0 01.28.23l.35-.08a.48.48 0 00.09-.25.22.22 0 010-.15l-.22-.32c0 .07-.09.24-.23.28-.18.17-.18.26-.27.27zm1.31 2.36h-.14v.23h.21zm0-1.33l.35-.09a.29.29 0 010-.22.21.21 0 00-.1-.13.48.48 0 00-.28.42zm.45-.92l.26-.14c0-.07 0-.07-.08 0s-.09-.06-.18-.11zm2 1.52a.34.34 0 00.44.26l.09-.24a.23.23 0 000-.16zm.57 5.12l.49-.12v-.14l-.49.12zm.07-7.72h.14v-.16h-.08zM301.45 72h-.14l.05.21h.14zm.37 5.24h-.14l.08.35h.14zm1.34 21.3l.84-.2-.05-.21-.84.2zm1.55-7.7a.66.66 0 01.37 0 2.47 2.47 0 01.37 0l.19-.42-.13-.56a1.48 1.48 0 00-.61-.08l-.36.39zm1 5.91a2.24 2.24 0 01.19-.42 1.25 1.25 0 00.1-.33l-.26-.46a2.74 2.74 0 01-.43-.56zm4.84 16.25l.87-.06-.05-.21h-.75zm.67 3.4a.67.67 0 00.37-.31l-.28.06c.03.13-.02.22-.09.24z"/>
          </g>
        </g>
        <g id="Or">
          <path class="cls-1" d="M166.05 76.58a1.31 1.31 0 01.25-.69 1.36 1.36 0 01.52-.44 1.58 1.58 0 01.65-.14 1.11 1.11 0 01.62.19 1.45 1.45 0 01.44.55 1.84 1.84 0 01.12.92 5.62 5.62 0 01-1.45 3.39 5.53 5.53 0 01-1.46 1.17 5.2 5.2 0 01-1.81.63 3.85 3.85 0 01-.66.06h-.61a5.92 5.92 0 01-.9 1.23 5.58 5.58 0 01-1 .86 5.38 5.38 0 01-1.14.54 7 7 0 01-1.18.3 5.93 5.93 0 01-1.88 0 4.64 4.64 0 01-1.69-.62 4.33 4.33 0 01-1.3-1.26 4.57 4.57 0 01-.72-1.87 6.63 6.63 0 01-.07-1 7.89 7.89 0 01.1-1.08l1.45-9.3a6.73 6.73 0 01.72-2.27 6.07 6.07 0 011.21-1.6 5.41 5.41 0 011.49-1 6.25 6.25 0 011.57-.48 6 6 0 012 0 5.3 5.3 0 011.79.69 4.7 4.7 0 011.35 1.28 4.3 4.3 0 01.71 1.81 4.83 4.83 0 010 1.61l-1.42 9.08a.75.75 0 000 .26 2.83 2.83 0 001.57-1 3.83 3.83 0 00.73-1.82zm-8 5.7a2.07 2.07 0 00.92-.39 2.82 2.82 0 00.73-.83l-.27-.25a3.44 3.44 0 01-.27-.27 1.91 1.91 0 01-.47-.54 2.24 2.24 0 01-.26-.74 2 2 0 01.32-1.48A1.74 1.74 0 01160 77a2 2 0 01.35 0h.33l1.13-7.33a2.38 2.38 0 000-.75 1.62 1.62 0 00-.69-1.12 1.73 1.73 0 00-1.3-.28 2.37 2.37 0 00-1.29.73 3.47 3.47 0 00-.84 1.83L156.1 80a2.48 2.48 0 000 .45v.39a1.61 1.61 0 00.68 1.14 1.64 1.64 0 001.22.3z"/>
          <path class="cls-1" d="M176 75.55a1.17 1.17 0 01.53-.92 1.57 1.57 0 011-.25 1.4 1.4 0 01.89.37.94.94 0 01.28.93 11.76 11.76 0 01-1.7 4.84 4.49 4.49 0 01-3 2.09 3.41 3.41 0 01-2.41-.52 3 3 0 01-.86-.9 3.37 3.37 0 01-.48-1.3 5.06 5.06 0 010-1.5l.49-2.92a1.07 1.07 0 00-.08-.67.93.93 0 00-.38-.38 1.56 1.56 0 00-.54-.18l-.57-.1-.63 3.6a1.49 1.49 0 01-.55 1 1.55 1.55 0 01-.94.35 1.22 1.22 0 01-.87-.36 1.27 1.27 0 01-.27-1.12l.82-4.72a2.64 2.64 0 01-.79-1.53 3.16 3.16 0 010-.55 2.47 2.47 0 01.07-.57 1.94 1.94 0 01.49-1.11 1.75 1.75 0 011.91-.48 1.89 1.89 0 01.72.46 2.06 2.06 0 01.48.74 1.79 1.79 0 01.1.93 10.55 10.55 0 011.14.22 6.11 6.11 0 011.34.47 4.18 4.18 0 011.17.82 2.38 2.38 0 01.64 1.33 4.08 4.08 0 010 .61 5.29 5.29 0 010 .67l-.65 3.93a1.46 1.46 0 000 .51.85.85 0 00.17.41.37.37 0 00.37.11 1.15 1.15 0 00.65-.41 4.06 4.06 0 00.59-.92 9.05 9.05 0 00.51-1.33 14.25 14.25 0 00.36-1.65z"/>
        </g>
        <g id="Truth">
          <path class="cls-1" d="M34 50.91l-9.09 2.87 4.94 20a.68.68 0 00-.45.49c.31.06.33.12.53.07H30l.34 1.66h-.21a.37.37 0 01-.23.21 1.13 1.13 0 01-.3.23 1.13 1.13 0 01.35.48l.06.21-.1.17h-.07v.22l.39.62.3.57a.62.62 0 01-.11.39c-.1.17-.15.26-.13.33s.11.11.15.25l.19.16a.47.47 0 01.11.41c0 .35.15.54.35.48l.4-.11.05.42a1.53 1.53 0 00-.28-.21.35.35 0 01-.26.36 1 1 0 00-.39.18.08.08 0 00-.05.09h-.06v.13c0 .14.11.12.18.1a1.29 1.29 0 01.31-.16h.23v.14a.49.49 0 01-.06.3 1 1 0 000 .45.7.7 0 00.35 0l.25.08c.17.1.07.27-.11.39s-.37.25-.35.32c.32.12.43.24.45.31s-.06.3-.32.45a.6.6 0 00.23.3c0 .13.19.16.35.19-.12.11-.1.17-.17.19s-.12.11-.1.18a1.18 1.18 0 00.2.45 2 2 0 01.22.52 1.11 1.11 0 00-.09.46.59.59 0 00.29.28c.17.1.26.15.28.22a.58.58 0 01-.09.46 1 1 0 00-.09.46c0 .13.44.53.77.44h.07l.06.49a1.28 1.28 0 01-.91 1.71l-9.12 2.73a1.38 1.38 0 01-1.74-1l-2.68-10.92a.06.06 0 01.05-.08h-.07l-2-8.37.31.06c.07 0 .14 0 .12-.11v-.13a.48.48 0 00-.41.11l-3.63-14.54-8.83 4.32a1.36 1.36 0 01-2-.9l-2.4-10.3a1.33 1.33 0 011-1.73l30.13-9a1.43 1.43 0 011.81 1l1.9 7.69a1.31 1.31 0 01-.89 1.76zM2.36 57.45l-.61.16.05.21.61-.17zm3.24-.9l-.48-.15-.41.11c-.13.32-.14.54 0 .71a1.53 1.53 0 01.72 0l.19-.35zm-.6.75l.08.27.84-.38zm1 1l-.4.11.07.27.41-.11zm.82-2a.66.66 0 00-.48.35A1.79 1.79 0 016 57c.11.12.31.06.47.09s.22 0 .38-.18c-.17-.1-.14-.25 0-.37 0-.07 0-.09.1-.18s.12-.1.25-.14c-.15 0-.22 0-.3-.06zm.37-.76l-.4.11v.21l.41-.11zm.76 1.68l-.27.08H7.39c-.18.42-.24.72.46.6l.23-.21zm2.4.28l-.06-.2a6.52 6.52 0 00-1 .13c-.27.07-.37.24-.43.55a.88.88 0 01.43 0l.2-.06a.25.25 0 00.22 0c.43-.15.62-.27.63-.5zm.58-2.63l.11.41a.51.51 0 00.29 0v-.08h.13c.07 0 0-.15 0-.22l-.06-.2zM12.72 56l-.2.06c0 .13.14.25.38.33a.69.69 0 00.1-.49c-.17.04-.22.1-.28.1zm.39-2l-.34.09.08.27.33-.09zm6.64 21.69l-.21-.23-.1.17-.16.19h.15v.07zm.67 1.92c0-.13-.12-.18-.34-.19s-.22 0-.3-.28a2.09 2.09 0 000 1.81v.22c-.06 0 0 .09 0 .16a.36.36 0 00.2.23l-.14.26c-.05.09-.12.1-.08.24a.49.49 0 00.26.15c.17.09.26.14.27.21a1.08 1.08 0 01-.1.68l.13.47c.09 0 .14.26.17.61l.27 1.52c.06.21.07.5.14.77a.28.28 0 00.22 0c.09 0 .22 0 .31.06a1.79 1.79 0 00.49-.07.2.2 0 00.18-.12l.05-.09a.15.15 0 00-.17-.09c-.15 0-.17-.1-.26-.15.2-.06.25-.14.33-.38a.41.41 0 01-.35-.49 7.65 7.65 0 00-.37-1.14.25.25 0 01-.16 0c.24-.21.27-.36.21-.57l-.31-.34a2.71 2.71 0 01-.32-.64c0-.14-.17-.32-.14-.48a.37.37 0 00-.22-.29c.18-.13.2-.86.14-1.06l-.1-.63zm2.37 9.88l-.9-2.73h-.22c-.06 0-.18-.1-.24-.08-.17.19-.42.84-.32 1a.85.85 0 00.16.32c.09 0 .11.12.14.25a5.19 5.19 0 00.16.83.22.22 0 010 .15.25.25 0 010 .22c.19.17.22.3.16.32s-.14 0-.12.11.09.34.25.37a2.13 2.13 0 00.5.51c.07 0 .19-.12.32-.16a1.17 1.17 0 000-.66c-.2-.17-.08-.27.11-.4zm4.4-13.27l-.41.11v.14a.22.22 0 01.15 0 .07.07 0 01.05-.09c.11.07.11.07.21-.11zM30 80.18l-.2.06a.25.25 0 01-.22 0l.05.2h.29c.08-.12.08-.12.08-.26zm.62-3l.06.2h-.07a.1.1 0 010-.13c.01 0 .01 0-.01-.07zM78.15 70.53a1.31 1.31 0 010 1.88l-6.08 6.91a1.49 1.49 0 01-1 .5 1.28 1.28 0 01-1.08-.5c-2.48-2.95-4.22-5-5.59-6.3v-.07c-1.93-2-4-3.91-6-5.83l-3.5 2 3.18 12.34a1.25 1.25 0 01-1 1.72l-8.3 2.29a1.37 1.37 0 01-1.74-1l-8.73-42.53a1.35 1.35 0 01.79-1.6l9.84-4.09h.07l1.83-.72a29.52 29.52 0 019.39-2.3c8-.47 12.46 8.32 11.9 16.83A16.92 16.92 0 0170 56.93a24.58 24.58 0 01-2 2.89zm-36.76-26.1h.14l-.1-.34h-.13zm4 11.76c0 .13.11.11.19.16s.05-.08.12-.1v-.07a.35.35 0 00.08-.24l-.41.11zm.26 4.36l.34-.1c0-.06-.2-.16-.37-.26l.06.2c-.1.02-.08.09-.06.16zm1.47-3.89c-.4-.11-.65-.26-.92-.19-.07 0-.12.11-.24.21a1.65 1.65 0 00-.33.39h.29a.36.36 0 00.31.06c.1-.05.22-.13.86-.47zm-.17-.61a.92.92 0 00-.38-.33c-.16 0-.17-.1-.21-.23-.08.24-.26.36-.58.52a1.75 1.75 0 01.57 0c.16 0 .31.06.33.12zm-.68 2.29l-.27-.43h-.14l.27.44zm.06.2h-.15l-.06.31h.15zM48 60.61h-.15l-.37.24v.07zm.25-2.54l-.34.09.07.27.34-.09zm12-8.17c.3-1.53.59-3.65-.5-4.95v-.06a2.06 2.06 0 00-1.85-.66 8.87 8.87 0 00-2.77 1l-4.44 2.37 1.67 10c3.56-1.6 7.01-3.53 7.9-7.7zm-8.06 31.57l-.27.07c0 .2 0 .29-.06.31a.39.39 0 00.33-.38zm-.74-37.42a1 1 0 01.25.37c0-.07 0 .07.25.37l.23-.21c0-.07-.11-.12-.12-.19s-.09 0-.11-.11l-.05-.21c0-.06 0-.15.16-.19zm1.41-2.78l.48-.14c.07-.23-.44-.53-.53-.58-.21.28-.22.5.05.72zm-.1.68l.23-.21-.1-.12-.17.19zM53 38.9l.61-.17v-.13l-.61.17zm.25.37v.29l.34-.1c0-.06 0-.15.08-.24v-.08zm.88.55h.15c.02 0 0 .07.09 0s.13 0 .11-.1v-.07zm1.24-.48h.14l.09-.17h-.13zm0 1.15l.69-.12.08-.24h-.58c-.14 0-.05.19-.15.36zm.46.6l.07.27h.14l-.04-.31zm1 17.3l-.33-.13a.36.36 0 00-.17.41l.3.06a.94.94 0 00.23-.34zm0 2v-.14l-.27.08v.13zm-.41-21.49l.24-.21c0-.06-.09 0-.16 0a.15.15 0 01-.17-.09zm.21 2.85a.78.78 0 00-.21.28l.67-.19-.09-.47a1.58 1.58 0 01-.37.38zm.63 14.13l-.39-.11.07.27zM56.59 40c0 .07 0 .14.12.18s.09 0 .11.12l.4-.11-.09-.34zm.62 21.47l.2-.06c0-.28 0-.35-.09-.33s-.25.14-.22.27.04.16.11.14zm1.11 2.45l-.12-.18-.12.1.11.12zm-.56-23.37l.26-.08v-.13l-.17-.1c0 .09 0 .16-.1.17zm0 .64c0 .07.15 0 .32.13-.08-.05 0 0 .29 0h.07v-.16c-.03-.05-.18-.08-.65.05zm.79-1.59H58.77c.24-.21.27-.37.25-.43s-.11-.12-.19-.17a2.12 2.12 0 00-.25.62zm.66 14.77a.83.83 0 00.45 0l.09.33c.34-.09.32-.16.62-.39a1.21 1.21 0 00-.73 0v-.14a.22.22 0 00-.07-.27.47.47 0 00-.33.49zm.63-13.24l-.3-.06a.45.45 0 01-.25.14l.22.3c.12-.11.17-.19.24-.21zm.16 14.5l.54-.15h1.16l-.09-.05c-.09 0-.09 0-.11-.11v-.07l-.68.19-.25-.44a2.45 2.45 0 00-.57.63zm0-14.23c-.12.1-.24.21-.2.34s.17.1.31.06.29 0 .35 0a1.18 1.18 0 00-.18-.68zm.38-2.58c.06 0 .05-.08 0-.15s.06 0 .09-.17l-.49.06c.02.15.28.3.42.26zM60.86 54l-.4.11c.21.23.42.46.57.49a.51.51 0 00-.17-.6zm-.68-12v.35h.09l.27-.07v-.07h.13v-.2a1 1 0 00-.49-.01zm.93 14.92c.21-.28.31-.45.25-.65a.25.25 0 01-.1-.12h-.09c-.09 0-.09 0-.23-.3l-.1.17h-.13l-.1.17.19.68a.36.36 0 01.31.06zm1.08.79c0-.14-.2-.23-.36-.26a.49.49 0 00-.33.38.84.84 0 00.42-.05zm-.07-4v-.14l-.21-.23-.29.51zM61.7 57c0 .14.19.17.46.09h.14l-.13-.48c-.34.05-.52.17-.47.39zm.4-1.2c.07 0 .13 0 .11-.1s-.05-.2-.14-.25l-.26-.15c-.13.33-.14.55 0 .65s.19-.15.29-.17zm.46-4.12l-.09-.33-.56.08c-.19.12-.24.21-.17.19s-.11.1-.08.24.11.11.11.11c.44.03.68.09.79-.31zm-.27 5.89l.41-.12c.16-.19.13-.32-.13-.47-.24.19-.33.36-.28.57zM62 38.73l.27-.07-.05-.2-.27.07zm.39 5.34l.33-.09a.24.24 0 00-.12-.18.54.54 0 01-.29 0zm.49.74a.58.58 0 00.09-.46l-.27.07c-.12.11-.17.19-.23.21s-.1.18 0 .16zm-.1 11.5l.52-.22-.07-.27-.5.29zm.71-7.46a.86.86 0 00-.88-.26zm-.22 1.59c0-.07-.11-.12-.19-.17a.7.7 0 00-.38 0v.51zm.7 7.28l-.09-.33c0-.07-.09 0-.15 0a.07.07 0 01-.09 0 .24.24 0 00-.15 0l-.48.13a1 1 0 01.29.5.31.31 0 00.33-.09zm-1.3-17.36l.19.68a1.31 1.31 0 00.3-.23.75.75 0 00-.45-.45zm1.14 18.35a.35.35 0 00.08-.24 1.06 1.06 0 00-.65 0l.25.36a.47.47 0 00.36-.12zm.19 2.14a.52.52 0 00-.59.24.61.61 0 00.51 0 .15.15 0 00.1-.17zm-.1-.91c0-.07-.11-.12-.21-.24a.94.94 0 00-.17.7.2.2 0 01.15 0l.47-.13zm-.16-18.48a2.66 2.66 0 00-.5.57l.56-.03c.12-.15.06-.36-.06-.54zm.16 10.34h-.29l-.06.3h.29zm-.31-6.67a1.78 1.78 0 00.51 0A.25.25 0 0164 45a.25.25 0 00-.22 0h-.06c0 .1-.06.11-.13.13zm.93 15.22h-.29l-.13.33h.29zm-.43-16.3l-.34.09.08.27a.31.31 0 00.26-.36zm-.17 1.5l.24.08h.07l-.23-.17zm.9 3.53l-.61.16.06.21.61-.17zm-.44-7.14c0 .07.1.11.19.16a.35.35 0 00.24.08c-.12-.18-.21-.23-.28-.21a.2.2 0 00-.15-.03zm1.18 18.48h-.65c-.08.24-.06.31.09.34a1.11 1.11 0 00.56-.34zm.58 4c0-.14 0-.2-.14-.25a.06.06 0 010 .08v.09h-.06zM68.93 44h.37a3.46 3.46 0 00.43 0v-.15a.31.31 0 000-.23 1.2 1.2 0 00-.44-.53l.15.54-.47.13c.03.09.03.17-.04.24zm1.26 1.69l-.43-1.56h-.13l.43 1.55zm.49.73c-.28 0-.39-.11-.43-.24s-.07-.27-.18-.39l1.33 4.79a1.43 1.43 0 000-.88c0-.2-.2-.46-.29-.79a2.49 2.49 0 01-.25-.66.52.52 0 010-.36 2 2 0 00-.32-.63.73.73 0 01.14-.89zm1.65 19.38l.25.14c.07 0 .12-.1.08-.24zm.7.45l-.34.1.12.4a.75.75 0 00.59 0 .54.54 0 01-.24-.36c-.02-.07-.11-.12-.16-.19zm1.63 4.86h-.22L74.2 71a1.15 1.15 0 00-.49.07c-.2 0-.37.24-.33.38a.8.8 0 00.61.12 1.75 1.75 0 00.67-.51zm-.75-3.5h-.15l-.08.24h.15zM75.54 70c0-.13-.21-.23-.5-.22-.1.17-.15.26-.13.32a.66.66 0 00.62.41.51.51 0 010-.22zM96.06 60.72c4.25-1.17 4.51-3.93 4.22-6.83a8.57 8.57 0 00-.21-1.54c-.08-.55-.24-1.38-.5-2.62-.47-2.48-1.1-5.29-1.8-8.36v-.07L94.13 25a1.24 1.24 0 011-1.66l8.31-2.29a1.48 1.48 0 011.74 1.05l3.88 16.43 1.21 4.47a56.83 56.83 0 011.88 10.23 20.4 20.4 0 01-1.66 10.05c-2.56 5.21-7.53 8-13 9.31-3.06.77-7 1.36-9.92-.16s-4.69-4.37-5.87-7.32a58.57 58.57 0 01-2.35-7.48c-.9-3.53-1.6-7.12-2.23-10.72L74.4 30.39a1.26 1.26 0 011-1.59l8.3-2.29a1.48 1.48 0 011.76 1.11l3.2 16.62 1.85 9.08c.81 4.43 2.11 8.35 5.55 7.4zm-18.93-21.5l.6 2.45c0 .06 0 .06.11.11a.15.15 0 01.17.1c.07 0 .18-.12.26-.36a1.82 1.82 0 000-.87c-.1.17-.16.19-.23.21s-.09 0-.15 0v-.13a1.81 1.81 0 00.34-.61l-2-8.68-.34.09a.4.4 0 00-.23.21c0 .07-.11.11-.32.16.4.11.41.18.68.62l.13.47a.7.7 0 01-.14.55s.14.25.09.33a.39.39 0 01-.07.24l.17.9c-.05.09-.1.17-.08.24s.1.12.12.18.18.1.19.17a5.48 5.48 0 010 .8v.51a1.71 1.71 0 00.23.3 1.19 1.19 0 01.23.3c0 .2.16.31.2.45a1.59 1.59 0 01.17.39 2.64 2.64 0 010 .44.58.58 0 00-.13.43zm2.71 8.26l-.22-.81a1.54 1.54 0 01-.45.19c-.14 0-.19.13-.25.15v.28a1.32 1.32 0 00.92.19zm.37 1.85c-.35.32-.63.61-.64.84a.33.33 0 00.39.11c.54-.15.35-.61.25-.95zM95.22 64l.73-.27a1.4 1.4 0 00-.69-.39c-.1.17-.22.28-.18.41a.38.38 0 01.14.25zm2.19-2.85h-.29c-.14 0-.55.09-1.16.25-.1.18-.15.26-.13.33.35.48.65.26 1 .16s.46-.13.58-.74zm2-.56h-.22v.22h.15zm.25 1.17l-.2.05.29 1.19h.07zm1.6-2.62l-.47.13-.06.3.6-.16c.08-.09.06-.16-.04-.27zm-.21-17.88h-.43l.06.2a.15.15 0 00.17.1.07.07 0 00.05-.09c.1.03.1-.11.18-.21zm2.78 8.52c-.08-.05-.15 0-.28 0h-.14c0 .06 0 .08-.12.1.16 0 .24.08.26.15a.27.27 0 00.19-.13zm.07-26.09l-.07-.27c-.06-.2-.13-1-.74-.81s-.3 1-.26 1.16l.11.41a1.72 1.72 0 01.28.72l.22.81a4.89 4.89 0 01.29.79l.74-.2c-.06 0-.06 0-.08-.05a.07.07 0 00-.09-.05 7.92 7.92 0 01-.21-1.54 7.94 7.94 0 00-.16-.97zm.15 31.62v-.13l-.17.19v.14zm.51-7.91l-.47.13-.07.31.55-.15c.14-.1.12-.17.02-.29zm.63 8.62v-.29l-.2.05v.29zM141.59 21.22l-9.09 2.87 4.94 20a.72.72 0 00-.45.49c.31.06.33.13.53.07h.06l.38 1.64-.2.06a.36.36 0 01-.23.2 1.13 1.13 0 01-.3.23 1.15 1.15 0 01.35.49l.06.2-.1.17h-.07v.22l.39.62.3.57a.6.6 0 01-.11.39c-.1.18-.15.26-.13.33s.11.12.14.25l.2.17a.45.45 0 01.11.4c0 .36.15.54.35.48l.4-.11v.43a1.34 1.34 0 00-.28-.22.37.37 0 01-.26.37.85.85 0 00-.39.17.07.07 0 000 .09h-.06v.13c0 .14.11.12.17.1a1.76 1.76 0 01.32-.16h.22v.14a.52.52 0 01-.06.31.94.94 0 000 .44.7.7 0 00.35 0l.24.08c.18.1.08.27-.11.39s-.36.25-.34.32c.32.13.42.24.44.31s-.06.31-.31.45a.55.55 0 00.23.3c0 .13.19.17.34.2-.11.1-.09.17-.16.19s-.12.1-.1.17a1 1 0 00.2.45 2.09 2.09 0 01.22.52 1.11 1.11 0 00-.09.46c0 .07.12.19.29.29s.26.14.28.21a.62.62 0 01-.09.46 1 1 0 00-.09.46.8.8 0 00.77.44h.07l.06.49a1.28 1.28 0 01-.91 1.71l-9.07 2.7a1.37 1.37 0 01-1.74-1l-2.71-10.88v-.08h-.07l-2-8.38.31.06c.07 0 .13 0 .12-.1v-.14a.47.47 0 00-.41.11l-3.6-14.57-8.83 4.32a1.34 1.34 0 01-2-.9l-2.4-10.3a1.32 1.32 0 011-1.72l30.14-9a1.44 1.44 0 011.81 1l1.9 7.68a1.31 1.31 0 01-.93 1.76zM110 27.76l-.61.17.05.2.56-.13zm3.23-.89l-.47-.16-.41.11c-.13.33-.14.55 0 .71a1.65 1.65 0 01.71-.05l.2-.34zm-.59.74l.08.27.84-.38zm1 1l-.4.11.07.27.41-.11zm.82-2a.68.68 0 00-.48.35 1.63 1.63 0 01-.32.45c.11.12.31.06.46.09s.23 0 .39-.18c-.17-.09-.14-.25 0-.37 0-.07 0-.09.1-.17s.12-.11.25-.14c-.15 0-.22 0-.31-.07zm.37-.75l-.4.11v.2l.41-.11zm.76 1.68l-.27.07H115.03c-.18.41-.24.72.45.6l.24-.21zm2.4.28l-.06-.21a8.14 8.14 0 00-1 .13c-.27.08-.37.25-.43.55a1 1 0 01.43 0l.2-.06a.29.29 0 00.22 0c.42-.15.65-.23.65-.49zm.58-2.63l.11.4a.68.68 0 00.29 0v-.09h.13c.07 0 0-.15 0-.22l-.06-.2zm1.8 1.25l-.21.05a.52.52 0 00.38.33.65.65 0 00.08-.53c-.16-.04-.21.05-.27.07zm.39-2l-.34.09.08.27.33-.09zm6.64 21.7l-.21-.24-.1.18-.16.19h.15v.06zm.67 1.92c0-.14-.12-.19-.34-.2s-.22 0-.3-.28a2.07 2.07 0 000 1.82v.22c-.06 0 0 .08 0 .15a.37.37 0 00.21.23l-.14.26c-.05.09-.12.11-.08.24a.49.49 0 00.26.15c.17.1.25.14.27.21a1.08 1.08 0 01-.1.68l.13.48c.09.05.14.25.17.6l.27 1.53c.06.2.07.49.14.76a.25.25 0 00.22 0c.09 0 .22 0 .31.06a2 2 0 00.49-.06.25.25 0 00.18-.13l.05-.08a.15.15 0 00-.17-.1c-.15 0-.17-.1-.26-.15.2-.05.25-.14.33-.38a.4.4 0 01-.35-.48 8.62 8.62 0 00-.36-1.29.25.25 0 01-.16 0c.24-.21.27-.36.21-.56l-.31-.35a3 3 0 01-.33-.64c0-.14-.16-.32-.13-.47A.41.41 0 00128 50c.18-.13.2-.86.14-1.06l-.1-.62zm2.36 9.88l-.89-2.73h-.22c-.06 0-.18-.09-.24-.08-.17.2-.43.85-.32 1a.79.79 0 00.16.32c.09 0 .1.12.14.25a4.73 4.73 0 00.16.83.25.25 0 010 .16.28.28 0 010 .22c.19.16.22.3.16.32s-.14 0-.12.1.09.34.25.37a1.65 1.65 0 00.5.51 3.11 3.11 0 01.32-.16 1.17 1.17 0 000-.66c-.22-.31-.1-.39.08-.53zm4.41-13.27l-.41.11v.13a.22.22 0 01.15 0 .06.06 0 01.05-.08c.09-.07.09-.07.19-.24zm2.79 5.91h-.2a.27.27 0 01-.23 0l.06.2h.29c.1-.15.1-.15.06-.28zm.62-3l.06.2h-.07a.09.09 0 010-.13c.01-.09.01-.09-.01-.16zM178 1.17c1.59 7.84 3.19 15.75 5.13 23.57 1.69 6.94 3.59 13.82 5.45 20.57a1.2 1.2 0 01-1 1.72l-10 2.76a1.36 1.36 0 01-1.72-1l-.23-.81c.12-.1.23-.21.22-.28l-.06-.2-.2.06-.46-1.91c.07 0 .12-.11.24-.21 0-.14-.18-.1-.35-.2l-3.16-14.37c-.46.19-.86.31-1.25.48l-1.16.54a4.79 4.79 0 00-.91.4 5.42 5.42 0 00-1 .41 48.6 48.6 0 00-4.25 2.77l4.16 16.14a1.23 1.23 0 01-1 1.72l-9.87 2.94a1.42 1.42 0 01-1.83-1.09l-9.18-44.89a1.27 1.27 0 011-1.66l8.59-2.58a1.38 1.38 0 011.8 1l3.37 16.43 2.62-.79.19.16c0 .07.17.1.37 0s.2-.34.2-.34a3 3 0 00-.36 0l6.2-2-3.5-16.39a1.23 1.23 0 011-1.65L176.2.06a1.48 1.48 0 011.12.12 1.37 1.37 0 01.68.99zm-28.6 10.2c0-.13-.18-.1-.26-.15s-.16 0-.19-.16a.22.22 0 010-.15l-.06-.21c-.13 0-.25.14-.38.18s-.12.11-.19.12l.19.68a.41.41 0 00.46.09c.1-.02.19-.19.43-.4zm.56 1.51l.2-.05-.09-.34-.2.06zm5.88-3.94a1.81 1.81 0 00-.63-.19c-.27.08-1.32.22-1.32.22h-.13c-.14 0-.39.18-.59.23l-.41.11a2.22 2.22 0 01-.66.26l-.4.11h-.22l-.06-.21-.54.15c-.14.26-.24.43-.38.47s-.27.07-.52.22a3.36 3.36 0 001.22-.05l.44-.26a3.79 3.79 0 00.45-.2 4.69 4.69 0 00.76-.14c.48-.13 1.24-.27 2.32-.57l.24.08a.41.41 0 00.29 0zm-3.47 7.42v-.22h-.07l-.09.17zm4.1 32.78a3.38 3.38 0 00-.78.07.19.19 0 00-.14.26.87.87 0 00.82.07.62.62 0 00.18-.13zm-.6-5.35h.13l-.05-.2h-.14zm.4.4h-.15l-.12.1h.15zm.26-27.74a.37.37 0 00-.27-.22.21.21 0 01-.08-.27c0-.13-.05-.2-.14-.25l-.27.08-.28.29.11.41.75.08h.13zm.38 20.55a3.89 3.89 0 01.38.33.28.28 0 00.19-.12 1.26 1.26 0 01.28-.3.51.51 0 00.16-.48c0-.13-.06-.2-.21-.23s-.17-.1-.17-.1l-1 .57a1.39 1.39 0 01.37.33zm.15 11.07h.14l-.1-.34h-.13zm.89 2.15l-.21.06.21.74a.62.62 0 010-.36.25.25 0 010-.22c-.04-.03-.04-.03.05-.18zm.33-5.61a.2.2 0 01-.15 0l-.34.09c0 .14.06.2.13.19s.2-.06.29 0 .11-.11.07-.24zm1.07-9.3a2.41 2.41 0 01.42-.05v-.06l-.09-.05v-.07a1.7 1.7 0 01-.52.22l-.34.09c.11 0 .33.02.53-.04zm1.42 10.94c0-.14-.19-.17-.34-.2a.88.88 0 01-.43 0 .46.46 0 00-.17.41c0 .06 0 .13.1.11a.08.08 0 01.09.05l.6-.17c.12-.01.17-.1.15-.16zm.45-2.31a.23.23 0 00-.11.11c0 .07-.12.1-.25.14s-.14 0-.16 0h-.29c-.14 0-.36.24-.36.53h.51a1.44 1.44 0 00.66-.72zm-1-8.43a.91.91 0 00.51-.28l-.06-.21c-.08-.05-.22 0-.35 0a.25.25 0 00-.12.1l-.05.09h-.13l.07.27zm.66 4.47l.33-.1a2.77 2.77 0 01.4-.4c0-.06-.26-.14-.39-.11a1.47 1.47 0 00-.36.63zm.3-4.15l.12-.11H161.01zm1.07 1.74l-.55.15.06.2.34-.09zm.45 4.81c0-.14-.14-.25-.43-.25-.05.09-.05.09-.12.11a.3.3 0 000 .22c0 .07.11.12.13.18a.8.8 0 01.14.26c.2-.17.3-.35.26-.48zm-.15 1.28c-.09-.05-.11-.12-.18-.1s0 .13-.08.24.09 0 .16 0h.13c.05.01.03-.05-.05-.1zm1 .74a.07.07 0 01-.09 0h-.08l-.1.17zm.71-20.32l-.4.12a.35.35 0 00-.13.32.49.49 0 00.51-.4zm0 1.53a.21.21 0 00-.11-.11c-.06 0 0 .08-.11.1h-.07l.26.15c-.05-.01-.07-.08 0-.1zm.08-.75L164 25v.13l.34-.09zm.06 1.8l-.24-.08a.15.15 0 00-.09.17zm.75 19l-.33.09v.14l.34-.1zm0-22.74a.82.82 0 00-.62-.12c-.05.08 0 .15-.11.1v.14c0 .06.11.11.26.14.31.06.46.09.38 0a.2.2 0 010-.15.22.22 0 01.11-.03zm.46 1.68c0-.06-.1-.11-.12-.18s-.07 0-.09-.05a1.7 1.7 0 00-.43.27c-.25.14-.19.12 0 .44l.3.28c0-.07.05-.09.1-.17s.3-.37.26-.51zm-.44 2.6h-.14l.06.21h.13zm1.25-3.11l.14-.26c0-.06-.08 0-.1-.11l-.09-.05-.54.15v.07l-.05.08c.35.14.52.24.66.2zm.34-1.4h.28l-.17-.09zm3 3.39l-.07-.27a.85.85 0 00-.79-.21h-.13c0 .07 0 .07-.12.11a.63.63 0 01-.46-.09 1.12 1.12 0 01.55-.37.35.35 0 01.41.17 1.41 1.41 0 01.24-.72l-.4.12a.25.25 0 00-.12.1c-.34.09-.66 0-.72-.24.11.41-.22.5-.36.54v-.07l-.33.09c-.07 0-.12.11-.17.2h-.07l-.05.09a.32.32 0 00-.26.36h.42a1 1 0 00.66.25 2.46 2.46 0 01.92.19zm-1 .73h-.14l.06.21h.13zm1.58-3.49c-.14 0-.27.07-.29 0a.61.61 0 01-.35.31.58.58 0 01-.46-.09c-.05.09-.45.49-.41.62s.08.27.23.3c.52-.21.77-.36.8-.51a1.78 1.78 0 01.43-.55zM168.57 8c0 .13.3.28.39.33l.26-.36c-.09-.05-.15 0-.17-.1zm2.26 19.49l-.47.13a2.12 2.12 0 01-.58 0v.35a.06.06 0 00.08.05H170.3c.14 0 .19-.13.28-.3s.18-.24.25-.26zm-.42-15.71l-.47.13v.13l.47-.13zm0 12.43l-.12.1h.45v-.07zm.16-11.52v.13l.54-.14v-.14zm.56 12.55l.54-.14a.41.41 0 00-.46-.09zm.94 2.36a.28.28 0 00.18-.12l-.09-.34-.61.17-.08.24c.31.06.45 0 .31.06zm-.64-4.18c0 .14.1.12.1.12a.08.08 0 00.09 0l.14-.26zm.58 2.38v-.13l-.34.09v.13zm-.33-15.67h.14l-.08-.27h-.13zm0-1.37l.2-.06v-.13l-.2.05zm1-1.23l.2-.06-.08-.27-.2.06zm1.13 17.26a1 1 0 00.38-.18.28.28 0 00.19-.12.23.23 0 00.11-.11l-.17-.1a.25.25 0 01-.22 0l-.2.06c-.14 0-.29 0-.63.1v.37c.15 0 .22 0 .31.06zm-.24 3.62l.23.3c.12-.1.08-.24.13-.32a.57.57 0 00-.38-.01zm.77 8.07c.14 0 .14 0 .12-.11v-.06l-.31-.06c-.11.1-.23.21-.19.34zm.55 2.75a.25.25 0 01.18-.12l-.06-.2-.27.07c-.11.11-.23.21-.21.28a.76.76 0 00.34-.06zm0-23.81c0 .07.2.17.35.2a2.49 2.49 0 00.48.16l-.43-.25zm.84 28.31v.07h.07a.65.65 0 00.25-.14c0-.07-.17-.1-.31-.06h-.07v.08zm1.21 3.08a.94.94 0 00-.44 0 .78.78 0 01-.29 0c-.23.21 0 .38.1.34zM176.08 27l.76-.14.15-.26c-.07 0-.15 0-.26-.14l-.67.18-.05.09zm1.17 6.07c0-.07-.1-.12-.19-.17s-.24-.07-.24-.07l-.34.09.25.37.34-.1v-.08zm.46 14.32a1.58 1.58 0 00.5-.57v-.13h-.06a.27.27 0 00-.19.13c-.13 0-.11.1-.25.14a2.61 2.61 0 01-.44 0c-.23.21-.22.78 0 .88a1.34 1.34 0 01.44-.42zm-.66-17.68V30h.13v-.3zm.57 11h-.15l-.12.1h.16zm.09 4.26c-.08.24.19.16.25.15l.1-.18zm1.68 3.03a1.36 1.36 0 01-1-.15.64.64 0 00-.11.4c0 .13.44.31.72.23l.26-.07c.02-.04.05-.19.13-.41zm-1.13-13l.34-.1-.06-.2a.51.51 0 00-.21-.23l-.2.05zm.57-7.93a.24.24 0 01-.15 0c0-.07-.09 0-.1-.12-.21.06-.26.14-.22.28s.06.2.12.18.18 0 .35-.41zm.91 15.14c-.15 0-.24-.08-.25-.14-.16 0-.24-.08-.31-.06.07.2.23.23.56.13zm-.18-7a.37.37 0 00-.27.36.37.37 0 00.27-.42zm1.18 4.54l-.33-.13c0 .22 0 .38-.11.39a.32.32 0 00-.35 0l-.41.11c.17.1.21.24.28.22a.37.37 0 00.3.06.27.27 0 00.19-.13c.07 0 .12-.1.25-.14h.14l.09-.17zm-.23-1.1l-.26-.15c-.09 0-.17-.09-.24-.07a1.1 1.1 0 00.22.52l.05.2c.05-.09.12-.1.32-.16zm.4 4.1c-.08 0-.12-.18-.24-.37s-.13-.18-.15-.25-.07.53 0 .72zm-.2-4.95c.08 0 .08 0 .1.11l.23-.21v-.06a.07.07 0 01-.09 0l-.09-.05c-.06 0-.06 0 0 .09h-.07c-.17.01-.17.01-.08.06zm.84 1.22v-.14l-.14-.25c-.18.12-.3.23-.26.36zm.12 2a1.06 1.06 0 00.59 0c.14 0 .21 0 .25-.14s0-.13 0-.15a.39.39 0 00-.37 0 .52.52 0 01-.31-.06zm1.89-2.63c-.09 0-.16 0-.17-.1a.45.45 0 00-.24-.08c-.07 0-.12.11-.24.21a.08.08 0 000 .09h-.28a.25.25 0 010-.22v-.09-.09l-.2.06c-.15 0-.27.07-.47.13a2.94 2.94 0 01.25.37c.1.11.14.25.31.35s.2-.06.18-.13l.28-.07a1 1 0 01.49-.06zm-1.18-11.66l-.48.13.34 1.22c0 .13.34.19.53.07zm.75 18l.15-.25a.17.17 0 01-.17-.1l-.34.09a.15.15 0 00-.1.17c.11.12.17.1.24.08a.52.52 0 01.22-.03zm.05 1.74c-.16 0-.22 0-.24-.08h-.21l.06.2a1.07 1.07 0 00.39-.16zm.4-3.82l-.21-.23c-.05.08-.1.17-.17.19l-.16.19c-.24.21-.33.38-.32.45s.27-.08.29 0 0 .14.15.25h.13c0-.07.05-.09.12-.11a.24.24 0 010-.37.32.32 0 00.17-.41zm1 3.64h-.37a.41.41 0 00-.29 0c-.07 0-.14 0-.12.1a.07.07 0 00-.05.09l.06.2a.25.25 0 01.1.12l.09.05a3.09 3.09 0 00.62-.39zm0-2.1h-.13l.09.33h.13z"/>
        </g>
      </g>
    </g>
  </g>
</svg>
