<svg xmlns="http://www.w3.org/2000/svg" viewBox="0 0 836.12 583.19"><title>Asset 4</title><g id="Layer_2" data-name="Layer 2"><g id="Layer_1-2" data-name="Layer 1"><rect x="87.3" y="68.9" width="293" height="400" transform="translate(-69.57 81.99) rotate(-17.36)" style="fill:none"/><path d="M135.5,509.17l18.13-5.67L34.31,121.71l-18.14,5.67a10,10,0,0,1-12.53-6.56L128.94,521.7A10,10,0,0,1,135.5,509.17Z" style="fill:#fcfcfc;stroke:#fff;stroke-miterlimit:10"/><path d="M28.64,103.58l5.67,18.13L314,34.31,308.3,16.17a10,10,0,0,1,6.56-12.53L16.11,97A10,10,0,0,1,28.64,103.58Z" style="fill:#fff;stroke:#fff;stroke-miterlimit:10"/><path d="M16.17,127.38l18.14-5.67-5.67-18.13A10,10,0,0,0,16.11,97L7.52,99.7A10,10,0,0,0,1,112.23l2.68,8.59A10,10,0,0,0,16.17,127.38Z" style="fill:#fff;stroke:#fff;stroke-miterlimit:10"/><path d="M332.1,28.64,314,34.31,433.29,416.09l18.14-5.67A10,10,0,0,1,464,417L338.66,16.11A10,10,0,0,1,332.1,28.64Z" style="fill:#fcfcfc;stroke:#fff;stroke-miterlimit:10"/><path d="M323.45,1l-8.59,2.68a10,10,0,0,0-6.56,12.53L314,34.31l18.14-5.67a10,10,0,0,0,6.56-12.53L336,7.52A10,10,0,0,0,323.45,1Z" style="fill:#fcfcfc;stroke:#fff;stroke-miterlimit:10"/><path d="M439,434.23l-5.67-18.14L153.63,503.5l5.67,18.13a10,10,0,0,1-6.56,12.53l298.75-93.37A10,10,0,0,1,439,434.23Z" style="fill:#fff;stroke:#fff;stroke-miterlimit:10"/><path d="M159.3,521.63l-5.67-18.13-18.13,5.67a10,10,0,0,0-6.56,12.53l2.68,8.59a10,10,0,0,0,12.53,6.56l8.59-2.69A10,10,0,0,0,159.3,521.63Z" style="fill:#fff;stroke:#fff;stroke-miterlimit:10"/><path d="M451.43,410.42l-18.14,5.67L439,434.23a10,10,0,0,0,12.53,6.56l8.59-2.69a10,10,0,0,0,6.56-12.52L464,417A10,10,0,0,0,451.43,410.42Z" style="fill:#fff;stroke:#fff;stroke-miterlimit:10"/><rect x="406.79" y="170.43" width="400" height="293" transform="translate(136.77 814.64) rotate(-74.22)" style="fill:none"/><path d="M470,192.58l18.28,5.17L522.09,78,503.8,72.83c-5.31-1.51-9.24-4.06-8.77-5.72L459.49,192.85C460,191.2,464.64,191.08,470,192.58Z" style="fill:#fcfcfc;stroke:#fff;stroke-miterlimit:10"/><path d="M525.38,66.34l-5.17,18.28,282,79.7L807.34,146a10,10,0,0,1,12.34-6.9L518.48,54A10,10,0,0,1,525.38,66.34Z" style="fill:#fff;stroke:#fff;stroke-miterlimit:10"/><path d="M501.93,79.46l18.28,5.16,5.17-18.28A10,10,0,0,0,518.48,54l-8.66-2.45a10,10,0,0,0-12.34,6.9L495,67.11A10,10,0,0,0,501.93,79.46Z" style="fill:#fff;stroke:#fff;stroke-miterlimit:10"/><path d="M820.45,169.48l-18.28-5.16L693.37,549.24l18.29,5.16a10,10,0,0,1,6.9,12.35L832.79,162.58A10,10,0,0,1,820.45,169.48Z" style="fill:#fcfcfc;stroke:#fff;stroke-miterlimit:10"/><path d="M462.63,484l-26-7.35-7.35,26a2,2,0,0,0,1.35,2.42l24.14,6.82a1.94,1.94,0,0,0,2.41-1.35L464,486.41A2,2,0,0,0,462.63,484Z" style="fill:#fff;stroke:#fff;stroke-miterlimit:10"/><path d="M828.34,141.58l-8.66-2.45a10,10,0,0,0-12.34,6.9l-5.17,18.29,18.28,5.16a10,10,0,0,0,12.34-6.9l2.45-8.66A10,10,0,0,0,828.34,141.58Z" style="fill:#fcfcfc;stroke:#fff;stroke-miterlimit:10"/><path d="M689.77,568l5.17-18.28L458.87,483l-5.16,18.28c-1.51,5.31-6.33,8.6-10.78,7.35l252.18,71.27C690.66,578.6,688.27,573.28,689.77,568Z" style="fill:#fff;stroke:#fff;stroke-miterlimit:10"/><rect x="456.09" y="190.86" width="29" height="29" transform="translate(144.98 602.35) rotate(-74.22)" style="fill:#fff;stroke:#fff;stroke-miterlimit:10"/><path d="M711.66,554.4l-18.29-5.16-5.17,18.28a10,10,0,0,0,6.91,12.34l8.66,2.45a10,10,0,0,0,12.34-6.9l2.45-8.66A10,10,0,0,0,711.66,554.4Z" style="fill:#fff;stroke:#fff;stroke-miterlimit:10"/></g></g></svg>