<svg xmlns="http://www.w3.org/2000/svg" viewBox="0 0 724.58 591.35"><title>Asset 3</title><g id="Layer_2" data-name="Layer 2"><g id="Layer_1-2" data-name="Layer 1"><rect x="562.83" y="-48.11" width="20" height="313.76" rx="7.37" transform="translate(303.04 625.66) rotate(-73.19)" style="fill:#fcfcfc;stroke:#0017d0;stroke-miterlimit:10"/><path d="M426.22,76h0c-3.54-1.07-6.73-.91-7.11.37L380.18,205.18c-.38,1.27,2.18,3.18,5.72,4.25h0c3.54,1.07,6.73.9,7.11-.37L431.94,80.22C432.32,78.94,429.76,77,426.22,76Z" style="fill:#fcfcfc;stroke:#0017d0;stroke-miterlimit:10"/><rect x="438.17" y="359.07" width="426" height="14.73" rx="7.37" transform="translate(112.07 883.81) rotate(-73.19)" style="fill:#fcfcfc;stroke:#0017d0;stroke-miterlimit:10"/><path d="M353.8,521.05l230.37,69.59c3.13,1,6.63-1.44,7.81-5.33l1.52-5c1.18-3.89-.41-7.82-3.54-8.76L359.59,501.9c-3.14-.95-6.63,1.44-7.81,5.34l-1.52,5C349.08,516.17,350.67,520.1,353.8,521.05Z" style="fill:#fcfcfc;stroke:#0017d0;stroke-miterlimit:10"/><rect x="-5.04" y="40.47" width="313.76" height="20" rx="10" transform="translate(-8 43.22) rotate(-15.79)" style="fill:#fcfcfc;stroke:#0017d0;stroke-miterlimit:10"/><rect x="61.55" y="93.7" width="14.73" height="426" rx="7.37" transform="translate(-80.85 30.32) rotate(-15.79)" style="fill:#fcfcfc;stroke:#0017d0;stroke-miterlimit:10"/><rect x="349.3" y="12.33" width="14.73" height="426" rx="7.37" transform="translate(-47.86 105.55) rotate(-15.79)" style="fill:#fcfcfc;stroke:#0017d0;stroke-miterlimit:10"/><rect x="116.15" y="471.77" width="313.76" height="20" rx="10" transform="matrix(0.96, -0.27, 0.27, 0.96, -120.78, 92.47)" style="fill:#fcfcfc;stroke:#0017d0;stroke-miterlimit:10"/></g></g></svg>