<svg xmlns="http://www.w3.org/2000/svg" viewBox="0 0 738.76 458.36"><defs><style>.cls-1{fill:#1d1d1b;}</style></defs><title>Layer 1</title><g id="Layer_2" data-name="Layer 2"><g id="Layer_1-2" data-name="Layer 1"><path class="cls-1" d="M107.63,203.9c1.54-4.55,4.75-6.92,8.93-6.46a17.5,17.5,0,0,1,3.41.74,37.65,37.65,0,0,1,8.39,4.33l1.48.93,4.84,3c3.67,2.27,7.34,4.54,11,6.78,17.64,10.71,36.75,21.52,56.95,28,3.48,1.12,7,2.09,10.39,2.91a22.9,22.9,0,0,1-1.85-2.94,8.49,8.49,0,0,1-1.07-4.3c-26.94-10.26-54.7-21-79.15-38.65-14.06-10.16-24.79-20.34-32.79-31.11a54.64,54.64,0,0,1-5.24-8.5C74.38,147,56.4,131.35,36.4,109.47c-5.81-6.35-11.9-12.89-17.61-19.55q-4.38-5.1-8.52-10.44c-1.41-1.84-5.2-9-8-7.17-5.89,3.69,1.59,24.24,3.54,29C25.13,148.24,68.78,177.86,107.63,203.9Z"/><path class="cls-1" d="M22.21,26.87C33.63,70.62,60.56,108.38,96.15,130.6a2.14,2.14,0,0,1,.79.12l.32.12c11.71,5.51,22,14,32,22.29,5.82,4.84,11.84,9.83,18,14.11a273.62,273.62,0,0,0,57.49,30.42,9.63,9.63,0,0,1,9.18-4.86,49.75,49.75,0,0,1,7.44,1.12l.11,0a30,30,0,0,1-7.72-6.67c-2.05-.58-4.11-1.21-6.13-1.85a203.93,203.93,0,0,1-64.25-34,221.12,221.12,0,0,1-28.62-26.64l-2.32-2.58c-7-7.74-14.94-16.51-17-27.72a17,17,0,0,1-.2-5.51A186.46,186.46,0,0,1,48.34,40.21c-3.55-5.33-6.61-11-9.57-16.58-2.45-4.57-5-9.3-7.75-13.72l-.49-.79C28.8,6.36,27.31,2.79,24.75.84c-4.22-3.19-5.62,3.49-5.62,6.79C19.13,14.19,20.57,20.61,22.21,26.87Z"/><path class="cls-1" d="M107.34,105C133,139.27,169,165.23,208.8,178.19a25,25,0,0,1,.49-16.5,439.46,439.46,0,0,1-60.85-38.45c-8.22-6.22-16.24-12.94-24-19.45l-4.3-3.61A115.8,115.8,0,0,0,111,93c-2-1.33-9.5-7.23-9.22-1.13a16.4,16.4,0,0,0,1.52,6.23A41.39,41.39,0,0,0,107.34,105Z"/><path class="cls-1" d="M301.46,334.46c2-3.83,5.24-6.52,8.43-9.09a54.31,54.31,0,0,1-17.57,3.86c-9.19,9-21.05,15.41-36.24,19.46-7.14,1.9-14.15,3.32-21.93,4.85-.57.12-1.26.23-2,.35-5.71.9-11.79,2.22-11.59,6.48.28,6.29,4.8,9,8.54,10.24.27.08.55.17.83.24,27.21,7.33,57.93-3.93,77.35-28.07a20.45,20.45,0,0,1-5.23-3.84A3.9,3.9,0,0,1,301.46,334.46Z"/><path class="cls-1" d="M136.09,271.56c.81-3.15,2.72-5.37,5.37-6.12s5.24-.06,7.31.6c.93.3,1.85.64,2.75,1s1.92.71,2.78,1c4.81,1.38,10.52,3,16.33,4.36,20.15,4.8,38.05,6.93,54.45,6.44a203,203,0,0,1-47.29-9.12,205.92,205.92,0,0,1-27-10.79c-15.87-7.7-27.75-16.63-35.33-26.55-22-4.53-44.1-15.58-65.38-32.72a332.21,332.21,0,0,1-28.65-26c-2.26-2.3-4.69-4.79-7.11-7.36l-.17-.19a6.41,6.41,0,0,0-5-2.71c-4.88-.15-4.77,5-3.62,9.06A74.68,74.68,0,0,0,11,188.7C24,215.53,48.6,231.1,66,240.48A503.75,503.75,0,0,0,136.09,271.56Z"/><path class="cls-1" d="M277.47,309.19a47.7,47.7,0,0,1-19-.05,114.85,114.85,0,0,1-38.32,10.47c-7.37.76-14.92,1.18-23.1,1.27h-1.49c-3.13,0-7.85-.07-9.53,2.21a4.15,4.15,0,0,0-1,3.73c.84,3.22,5.7,6.35,8.89,7.54,14,5.23,29.67,2.41,44.75-.33l3.92-.71c12.69-2.25,22.59-4.95,31.4-8.58a8.08,8.08,0,0,1-3.11-5c-.3-1.76-.11-4.5,2.47-7.53A12.89,12.89,0,0,1,277.47,309.19Z"/><path class="cls-1" d="M222.16,225l-.93-.55c-6.19-3.63-16.55-9.7-17.85-18.57q-.07-.53-.12-1.05a269.85,269.85,0,0,1-63.77-34.43c-5.11-3.76-10.08-7.88-14.89-11.87s-10.08-8.38-15.32-12.18c-2.51-1.82-8.58-7.75-11.78-6-2.91,1.61-1.29,8.19-.43,10.72,3.86,11.42,12.74,19.91,20.9,27.58A167.24,167.24,0,0,0,143.18,198c17.8,11.27,37,19.53,56.26,27.08,4.77,1.87,9.56,3.69,14.35,5.52a14.26,14.26,0,0,1,5.76-2.46c2.27-.4,4.56-.68,6.83-.88Q224.21,226.17,222.16,225Z"/><path class="cls-1" d="M188.5,283.41c-7.67-1.25-15.57-3-24.17-5.19-5.24-1.37-9.85-2.65-14.08-3.9l-.26-.08-1.27-.42c-4.93-1.58-6.16-.77-6.42-.49s-.41,1.25,0,3a13,13,0,0,0,2.58,5.58c5.51,6.94,14,12.27,25.18,15.86a109.14,109.14,0,0,0,25.78,4.6c15.83,1,32.58-1.06,49.81-6a10.21,10.21,0,0,1,2.64-3.73,21.33,21.33,0,0,1,6.38-3.7,23.09,23.09,0,0,0,4.57-2.37,35.33,35.33,0,0,1-9.63.66,53.18,53.18,0,0,1-11.68-2.06C222.41,286.86,206.24,286.3,188.5,283.41Z"/><path class="cls-1" d="M349.33,283c-3.54-.9-7.2-1.83-10.78-3a63.44,63.44,0,0,1-12.94-5.6,98.83,98.83,0,0,1-27.7-23.59,106.41,106.41,0,0,1-17.67-31.23,164.48,164.48,0,0,1-5.73-22c-.2-1-.4-2.37-.63-3.95-.84-5.73-2.59-17.65-6.32-18.85a2,2,0,0,0-.43-.08,3.15,3.15,0,0,1-2.19-1.17,85,85,0,0,1-49.4-9.35c-1.09-.57-.94,9.74-.75,10.56a20.46,20.46,0,0,0,7.69,11.56,35.94,35.94,0,0,0,9.23,4.39,82.27,82.27,0,0,0,15.12,2.89c3.41.41,4.11,6.36.49,7.17a64.67,64.67,0,0,1-22.42,1.18,42.5,42.5,0,0,1-4.44-.87,28.31,28.31,0,0,0-5.1-.89c-2.33-.12-4.37.94-5.07,2.65-.62,1.5-.11,3.33,1.44,5.15,5.89,6.91,14.27,12.25,24.23,15.43a67.4,67.4,0,0,0,16.9,3.1,3.53,3.53,0,0,1,3.09,4.07,3.38,3.38,0,0,1-3.14,3.2l-20.6.94-3.45.13c-2.24.08-4.55.15-6.79.34-1.54,0-3,.06-3.4,2.12a4.62,4.62,0,0,0,.83,3.54c3.76,5.16,11.83,8.37,17.43,10.16a44.68,44.68,0,0,0,23.55,1,3.06,3.06,0,0,1,1.62.07,3.53,3.53,0,0,1,2.31,3.37,3.67,3.67,0,0,1-2.25,3.59l-19.44,7.6c-.92.36-2,.68-3,1-2.9.91-6.19,1.94-7.65,3.83-.52.68-.44,1-.4,1.15,1.35,5.28,10.05,5.88,14,6.43,8.67,1.22,17.3,0,25-4.86a2.89,2.89,0,0,1,2.46-.31,3.62,3.62,0,0,1,2.25,2.34,3.75,3.75,0,0,1-.38,3.15c-3.7,6-7.68,10.32-12.18,13.31a38,38,0,0,1-5,2.69,40.91,40.91,0,0,0-3.9,2,5.37,5.37,0,0,0-1.57,1.29c-.23.33,4.13,2.13,4.31,2.19,13.53,4.24,28.94.5,40.59-7.8,1.75-1.25,3.43-.09,4.57,1.41.33-.17.13,2.84-.12,3.62a.91.91,0,0,1-.11.22,47.69,47.69,0,0,1-8.85,10.44,49,49,0,0,1-9.5,5.78,24.82,24.82,0,0,0-3.33,1.59c-.52.38-1.61,1.51-1.58,2.25.09,2.41,8.26,2.88,9.86,3a49.76,49.76,0,0,0,11.93-.86,48.91,48.91,0,0,0,20.3-8.94,2.78,2.78,0,0,1,2.54-.48,4,4,0,0,1,2.37,4.33c-1.59,10.59-11.89,12.38-16.45,20.42.09-.18,1.56,1.52,7.35.86a23.08,23.08,0,0,0,11.75-4.27c14.88-11,25.62-27.64,30.38-47C355.25,284.52,352.25,283.75,349.33,283Z"/><path class="cls-1" d="M231.55,256.87a70.68,70.68,0,0,1-9.27-4.68c-.7.57-15.34-2-21.87-4.1-12.41-4-25.35-9.78-39.55-17.77-10.41-5.85-20.69-12.19-29.77-17.79l-1.13-.7-5.65-3.48-.51-.32a30.19,30.19,0,0,0-6.13-3.11c-1.74-.56-3.08-.56-3.77,0-4.68,3.85,2.1,15.2,4.27,18.49,12.47,18.94,33.75,28.9,48.67,34.74a199.64,199.64,0,0,0,58.07,13.29,10.52,10.52,0,0,1,6.38-8c3.05-1.39,6.13-2.67,9.23-3.9A44.16,44.16,0,0,1,231.55,256.87Z"/><path class="cls-1" d="M232.63,342.23l-.29,0c-9.77,1.4-19.88,2.84-30,1.71a43.62,43.62,0,0,1-8.19-1.74,26.58,26.58,0,0,1-9.9-5.37,175.67,175.67,0,0,1-43.58,1.79c-2.5-.23-5-.63-7.53-1-4.32-.69-8.61-1.93-13-1.9-2.81,0-10.72.81-6.68,5.91,1.7,2.14,4.84,3.5,7.12,4.69a82.89,82.89,0,0,0,10.59,4.18,175.15,175.15,0,0,0,21.29,6.14c17.08,3.78,34.7,4.78,52,4.13.69,0,4.71-.09,7.91-.08.71,0,2-4.1,2.33-4.74a14.4,14.4,0,0,1,4.73-5.91c3.66-2.39,8.12-2.94,12.24-3.52,1.15-.17,2.2-.32,3.11-.5,15.52-3.07,32.9-6.51,46.95-16.95C265.69,336.73,248.68,339.93,232.63,342.23Z"/><path class="cls-1" d="M246.72,303.52c-22.09,6.34-42.57,8-60.89,5a133,133,0,0,1-19-4.4,66.21,66.21,0,0,1-17.38-8.16s0,0,0,0A148.41,148.41,0,0,1,129,290.69c-16-3.94-31.44-10.13-47.15-15.14l-8-2.57c-2.36-.75-5.6-2.56-8-2.56-1.94-.62-7.67-3.39-9.25-1-3.29,4.95,12.26,15,15.2,17.21,12.12,8.88,25.89,15.72,42.09,20.9,22.09,7.06,46.33,10.12,65.82,12.58a8.69,8.69,0,0,1,1.85-2.22c4.82-4.15,10.42-4.22,15.84-4.28l2,0c15.16-.35,32.69-1.63,49.46-8.08A9.71,9.71,0,0,1,246.72,303.52Z"/><path class="cls-1" d="M631.13,203.9c-1.54-4.55-4.74-6.92-8.93-6.46a17.41,17.41,0,0,0-3.4.74,37.72,37.72,0,0,0-8.4,4.33l-1.48.93-4.84,3c-3.67,2.27-7.34,4.54-11,6.78-17.64,10.71-36.74,21.52-56.95,28-3.48,1.12-7,2.09-10.39,2.91a22.9,22.9,0,0,0,1.85-2.94,8.49,8.49,0,0,0,1.07-4.3c26.94-10.26,54.7-21,79.15-38.65,14.07-10.16,24.79-20.34,32.79-31.11a54.64,54.64,0,0,0,5.24-8.5c18.57-11.62,36.55-27.24,56.56-49.12,5.8-6.35,11.9-12.89,17.6-19.55,2.92-3.4,5.78-6.87,8.52-10.44,1.41-1.84,5.2-9,8-7.17,5.89,3.69-1.59,24.24-3.54,29C713.64,148.24,670,177.86,631.13,203.9Z"/><path class="cls-1" d="M716.55,26.87c-11.42,43.75-38.35,81.51-73.93,103.73a2.19,2.19,0,0,0-.8.12l-.32.12c-11.71,5.51-22,14-31.94,22.29-5.83,4.84-11.85,9.83-18,14.11A273.62,273.62,0,0,1,534,197.66a9.63,9.63,0,0,0-9.18-4.86,49.75,49.75,0,0,0-7.44,1.12l-.11,0a30,30,0,0,0,7.72-6.67c2.05-.58,4.11-1.21,6.13-1.85a203.82,203.82,0,0,0,64.25-34A221.12,221.12,0,0,0,624,124.77l2.32-2.58c7-7.74,14.95-16.51,17-27.72a17.32,17.32,0,0,0,.21-5.51,186.42,186.42,0,0,0,46.86-48.75c3.55-5.33,6.61-11,9.58-16.58,2.44-4.57,5-9.3,7.74-13.72l.49-.79C710,6.36,711.45,2.79,714,.84c4.21-3.19,5.61,3.49,5.61,6.79C719.63,14.19,718.19,20.61,716.55,26.87Z"/><path class="cls-1" d="M631.42,105C605.81,139.27,569.8,165.23,530,178.19a25,25,0,0,0-.49-16.5,439.46,439.46,0,0,0,60.85-38.45c8.22-6.22,16.24-12.94,24-19.45l4.31-3.61A115.65,115.65,0,0,1,627.78,93c2-1.33,9.5-7.23,9.22-1.13a16.4,16.4,0,0,1-1.52,6.23A41.39,41.39,0,0,1,631.42,105Z"/><path class="cls-1" d="M437.3,334.46c-2-3.83-5.24-6.52-8.42-9.09a54.2,54.2,0,0,0,17.56,3.86c9.19,9,21.05,15.41,36.24,19.46,7.14,1.9,14.15,3.32,21.93,4.85.57.12,1.26.23,2,.35,5.71.9,11.79,2.22,11.59,6.48-.28,6.29-4.8,9-8.54,10.24-.27.08-.55.17-.83.24-27.21,7.33-57.93-3.93-77.35-28.07a20.28,20.28,0,0,0,5.23-3.84A3.89,3.89,0,0,0,437.3,334.46Z"/><path class="cls-1" d="M602.67,271.56c-.81-3.15-2.72-5.37-5.37-6.12s-5.24-.06-7.3.6c-.94.3-1.86.64-2.76,1s-1.92.71-2.78,1c-4.81,1.38-10.52,3-16.33,4.36-20.15,4.8-38,6.93-54.45,6.44A202.92,202.92,0,0,0,561,269.66a204.81,204.81,0,0,0,27-10.79c15.87-7.7,27.75-16.63,35.33-26.55,22-4.53,44.1-15.58,65.38-32.72a332.21,332.21,0,0,0,28.65-26c2.26-2.3,4.69-4.79,7.12-7.36l.16-.19a6.42,6.42,0,0,1,5-2.71c4.87-.15,4.76,5,3.61,9.06a74.69,74.69,0,0,1-5.45,16.35c-13,26.83-37.57,42.4-54.94,51.78A503.75,503.75,0,0,1,602.67,271.56Z"/><path class="cls-1" d="M461.29,309.19a47.7,47.7,0,0,0,19-.05,114.85,114.85,0,0,0,38.32,10.47c7.37.76,14.92,1.18,23.1,1.27h1.5c3.12,0,7.85-.07,9.52,2.21a4.15,4.15,0,0,1,.95,3.73c-.84,3.22-5.7,6.35-8.89,7.54-14,5.23-29.67,2.41-44.74-.33l-3.92-.71c-12.7-2.25-22.6-4.95-31.41-8.58a8,8,0,0,0,3.11-5c.3-1.76.11-4.5-2.47-7.53A12.89,12.89,0,0,0,461.29,309.19Z"/><path class="cls-1" d="M516.6,225l.93-.55c6.19-3.63,16.55-9.7,17.85-18.57q.07-.53.12-1.05a269.85,269.85,0,0,0,63.77-34.43c5.12-3.76,10.09-7.88,14.89-11.87,5-4.12,10.08-8.38,15.32-12.18,2.51-1.82,8.58-7.75,11.78-6,2.91,1.61,1.29,8.19.43,10.72-3.86,11.42-12.74,19.91-20.9,27.58A167.24,167.24,0,0,1,595.58,198c-17.8,11.27-37,19.53-56.25,27.08-4.78,1.87-9.57,3.69-14.35,5.52a14.36,14.36,0,0,0-5.77-2.46c-2.26-.4-4.56-.68-6.83-.88Q514.56,226.17,516.6,225Z"/><path class="cls-1" d="M550.26,283.41c7.67-1.25,15.58-3,24.17-5.19,5.24-1.37,9.85-2.65,14.08-3.9l.26-.08,1.27-.42c4.93-1.58,6.16-.77,6.42-.49s.41,1.25,0,3a12.92,12.92,0,0,1-2.58,5.58c-5.51,6.94-14,12.27-25.18,15.86a109.14,109.14,0,0,1-25.78,4.6c-15.83,1-32.58-1.06-49.81-6a10.21,10.21,0,0,0-2.64-3.73,21.21,21.21,0,0,0-6.38-3.7,23.09,23.09,0,0,1-4.57-2.37,35.33,35.33,0,0,0,9.63.66,53.07,53.07,0,0,0,11.68-2.06C516.35,286.86,532.53,286.3,550.26,283.41Z"/><path class="cls-1" d="M389.43,283c3.54-.9,7.2-1.83,10.78-3a63.2,63.2,0,0,0,12.94-5.6,98.69,98.69,0,0,0,27.7-23.59,106.41,106.41,0,0,0,17.67-31.23,164.66,164.66,0,0,0,5.74-22c.19-1,.39-2.37.63-3.95.83-5.73,2.58-17.65,6.31-18.85a2.17,2.17,0,0,1,.43-.08,3.15,3.15,0,0,0,2.19-1.17,85,85,0,0,0,49.4-9.35c1.09-.57.94,9.74.75,10.56a20.46,20.46,0,0,1-7.69,11.56,35.94,35.94,0,0,1-9.23,4.39,82.27,82.27,0,0,1-15.12,2.89c-3.41.41-4.1,6.36-.49,7.17a64.67,64.67,0,0,0,22.42,1.18,42.5,42.5,0,0,0,4.44-.87,28.46,28.46,0,0,1,5.1-.89c2.34-.12,4.37.94,5.08,2.65.61,1.5.1,3.33-1.45,5.15-5.89,6.91-14.27,12.25-24.22,15.43a67.56,67.56,0,0,1-16.91,3.1,3.54,3.54,0,0,0-3.09,4.07,3.38,3.38,0,0,0,3.14,3.2l20.6.94,3.45.13c2.24.08,4.55.15,6.79.34,1.54,0,3,.06,3.4,2.12a4.62,4.62,0,0,1-.83,3.54C515.6,246,507.53,249.2,501.93,251a44.68,44.68,0,0,1-23.55,1,3.06,3.06,0,0,0-1.62.07,3.53,3.53,0,0,0-2.31,3.37A3.67,3.67,0,0,0,476.7,259l19.44,7.6c.92.36,1.95.68,3,1,2.9.91,6.19,1.94,7.65,3.83.53.68.44,1,.4,1.15-1.35,5.28-10.05,5.88-14,6.43-8.68,1.22-17.31,0-25-4.86a2.87,2.87,0,0,0-2.45-.31,3.61,3.61,0,0,0-2.26,2.34,3.79,3.79,0,0,0,.38,3.15c3.7,6,7.68,10.32,12.18,13.31a38.61,38.61,0,0,0,5,2.69,40.91,40.91,0,0,1,3.9,2,5.37,5.37,0,0,1,1.57,1.29c.24.33-4.13,2.13-4.31,2.19-13.53,4.24-28.94.5-40.59-7.8-1.75-1.25-3.42-.09-4.57,1.41-.33-.17-.13,2.84.12,3.62a1.51,1.51,0,0,0,.11.22,47.69,47.69,0,0,0,8.85,10.44,49,49,0,0,0,9.5,5.78,25.54,25.54,0,0,1,3.34,1.59c.51.38,1.6,1.51,1.57,2.25-.08,2.41-8.26,2.88-9.86,3a49.8,49.8,0,0,1-11.93-.86,48.87,48.87,0,0,1-20.29-8.94,2.8,2.8,0,0,0-2.55-.48,4,4,0,0,0-2.37,4.33c1.59,10.59,11.89,12.38,16.45,20.42-.09-.18-1.56,1.52-7.35.86a23.08,23.08,0,0,1-11.75-4.27c-14.88-11-25.62-27.64-30.38-47C383.51,284.52,386.51,283.75,389.43,283Z"/><path class="cls-1" d="M507.21,256.87a70.68,70.68,0,0,0,9.27-4.68c.7.57,15.34-2,21.87-4.1,12.41-4,25.35-9.78,39.55-17.77,10.41-5.85,20.7-12.19,29.77-17.79l1.13-.7,5.65-3.48L615,208a30,30,0,0,1,6.14-3.11c1.74-.56,3.07-.56,3.76,0,4.68,3.85-2.1,15.2-4.26,18.49-12.48,18.94-33.76,28.9-48.68,34.74a199.64,199.64,0,0,1-58.07,13.29,10.5,10.5,0,0,0-6.38-8c-3.05-1.39-6.13-2.67-9.23-3.9A44,44,0,0,0,507.21,256.87Z"/><path class="cls-1" d="M506.13,342.23l.29,0c9.77,1.4,19.88,2.84,30,1.71a43.62,43.62,0,0,0,8.19-1.74,26.7,26.7,0,0,0,9.91-5.37,175.6,175.6,0,0,0,43.57,1.79c2.5-.23,5.06-.63,7.53-1,4.32-.69,8.62-1.93,13-1.9,2.8,0,10.71.81,6.67,5.91-1.7,2.14-4.84,3.5-7.12,4.69a82.89,82.89,0,0,1-10.59,4.18,175.15,175.15,0,0,1-21.29,6.14c-17.07,3.78-34.7,4.78-52.05,4.13-.69,0-4.71-.09-7.91-.08-.71,0-2-4.1-2.33-4.74a14.4,14.4,0,0,0-4.73-5.91c-3.65-2.39-8.12-2.94-12.24-3.52-1.14-.17-2.2-.32-3.11-.5-15.52-3.07-32.9-6.51-46.94-16.95C473.07,336.73,490.08,339.93,506.13,342.23Z"/><path class="cls-1" d="M492,303.52c22.1,6.34,42.57,8,60.89,5a133,133,0,0,0,19-4.4,66.21,66.21,0,0,0,17.38-8.16s0,0,0,0a148,148,0,0,0,20.38-5.28c16-3.94,31.45-10.13,47.15-15.14l8-2.57c2.36-.75,5.6-2.56,8-2.56,1.93-.62,7.66-3.39,9.24-1,3.29,4.95-12.25,15-15.2,17.21-12.12,8.88-25.89,15.72-42.08,20.9-22.1,7.06-46.34,10.12-65.83,12.58a8.49,8.49,0,0,0-1.85-2.22c-4.82-4.15-10.42-4.22-15.84-4.28l-2,0c-15.16-.35-32.69-1.63-49.46-8.08A9.71,9.71,0,0,0,492,303.52Z"/><path class="cls-1" d="M519,124.91,435.76,128l-4.9,181.55a6.24,6.24,0,0,0-4.89,3.09c2.45,1.23,2.45,1.85,4.28,1.85h.61l-.61,14.82h-1.83a3.19,3.19,0,0,1-2.45,1.24,10.54,10.54,0,0,1-3.06,1.23,10,10,0,0,1,1.83,4.94v1.86l-1.22,1.23h-.61c0,.62-.61,1.23-.61,1.85l1.83,6.18,1.23,5.56a5.69,5.69,0,0,1-1.84,3.08c-1.22,1.24-1.83,1.86-1.83,2.47s.61,1.24.61,2.47l1.22,1.85a4,4,0,0,1,0,3.71c-.61,3.09,0,4.94,1.84,4.94H429l-.61,3.71a10.78,10.78,0,0,0-1.84-2.47,3.13,3.13,0,0,1-3.06,2.47,7.78,7.78,0,0,0-3.67.61.6.6,0,0,0-.61.62h-.61v1.24c0,1.23.61,1.23,1.22,1.23s1.22-.62,3.06-.62c.61,0,1.22.62,1.83.62v1.23a4.67,4.67,0,0,1-1.22,2.47,8.92,8.92,0,0,0-1.22,3.71,6.55,6.55,0,0,0,3.06.62l1.83,1.23c1.23,1.24,0,2.47-1.83,3.09-2.45.62-3.67,1.24-3.67,1.85,2.44,1.86,3.05,3.09,3.05,3.71,0,1.23-1.22,2.47-3.67,3.08a4.73,4.73,0,0,0,1.23,3.09c0,1.24,1.22,1.86,2.44,2.47-1.22.62-1.22,1.24-1.83,1.24-.61.62-1.22.62-1.22,1.23a9.29,9.29,0,0,0,.61,4.33,15.5,15.5,0,0,1,.61,4.94s-1.84,2.47-1.84,3.7a5.71,5.71,0,0,0,1.84,3.09c1.22,1.23,1.83,1.85,1.83,2.47a5.35,5.35,0,0,1-1.83,3.7c-1.22,1.86-1.84,3.09-1.84,3.71,0,1.23,2.45,5.56,5.51,5.56h.61l-.61,4.32c0,8-4.28,11.73-11.63,12.35l-83.23,1.85c-6.73,0-13.46-6.17-12.24-13l2.45-98.8a.6.6,0,0,1,.61-.62h-.61l2.45-76,2.45,1.24c.61,0,1.22,0,1.22-.62V269.4a3.91,3.91,0,0,0-3.67,0l3.67-132.14L243.6,153.31c-8,1.85-14.69-3.7-14.69-12.35l3.67-93.24c.61-8,4.28-11.73,12.24-12.35L519.6,29.81a12.6,12.6,0,0,1,12.85,13l-1.83,69.78C530,120.58,526.34,124.29,519,124.91ZM237.48,106.38H232v1.85h5.51Zm29.37,0-3.67-2.47h-3.67c-1.84,2.47-2.45,4.32-1.23,6.18a13.22,13.22,0,0,1,6.12,1.23l2.45-2.47Zm-6.73,4.94v2.47l8-1.23Zm6.12,10.5h-3.67v2.47h3.67Zm11.63-15.44a6,6,0,0,0-4.9,1.85,16.2,16.2,0,0,1-3.67,3.09c.61,1.24,2.45,1.24,3.67,1.85.61.62,1.84.62,3.67-.61-1.22-1.24-.61-2.47,1.23-3.09,0-.62.61-.62,1.22-1.24,1.23,0,1.23-.61,2.45-.61-1.22-.62-1.84-.62-2.45-1.24Zm7.34,10.5h-2.45l-1.22-.62h-1.22c-2.45,3.09-3.68,5.56,2.44,6.18l2.45-1.24Zm-2.45-16.06h-3.67v1.86h3.67Zm22,24.09v-1.86c-3.67-.61-6.12-1.23-8.56-1.23s-3.67,1.23-4.9,3.71a7.76,7.76,0,0,1,3.67.61h1.84a2.22,2.22,0,0,0,1.83.62C302.35,127.38,304.18,126.76,304.79,124.91Zm11-21v3.71a4.64,4.64,0,0,0,2.45.61l.61-.61h1.22c.62,0,.62-1.24.62-1.86v-1.85Zm12.24,14.82h-1.84c0,1.24.62,2.47,2.45,3.71a5.62,5.62,0,0,0,1.84-4.33C329.27,118.11,328.66,118.73,328.05,118.73ZM339.68,410.2l-1.23-25.32c-.61,0-1.22-.62-1.83-.62-1.23-.62-1.23-1.24-1.84-1.24-1.83,1.24-5.51,6.18-4.89,7.42a6.76,6.76,0,0,0,.61,3.08c.61.62.61,1.24.61,2.47a42.7,42.7,0,0,0-.61,7.41,2.18,2.18,0,0,1-.61,1.24,2.26,2.26,0,0,1-.62,1.85c1.23,1.85,1.23,3.09.62,3.09s-1.23,0-1.23.62c0,1.85,0,3.08,1.23,3.7,0,.62,1.22,3.09,3.06,5.56a25.85,25.85,0,0,1,3.06-.62,10,10,0,0,0,1.83-5.56C336.62,411.43,337.84,410.81,339.68,410.2Zm3.06-89.54c0-1.24-.61-1.85-2.45-2.47-1.22.62-1.84-.62-1.84-3.09-3.06,4.94-6.12,9.88-4.28,15.44l-.61,1.85c-.61,0-.61.62-.61,1.24a3.23,3.23,0,0,0,1.22,2.47L332.33,338c-.61.62-1.22.62-1.22,1.85a4.59,4.59,0,0,0,1.84,1.85c1.22,1.24,1.83,1.85,1.83,2.47,0,1.24-.61,3.09-2.45,5.56V354q.93.93,0,5.56l-1.22,13.59c0,1.85-.61,4.32-.61,6.79a2.24,2.24,0,0,0,1.83.61c.62.62,1.84.62,2.45,1.24a16,16,0,0,0,4.29.62,2.22,2.22,0,0,0,1.83-.62l.61-.62a1.31,1.31,0,0,0-1.22-1.23c-1.22-.62-1.22-1.24-1.84-1.85,1.84,0,2.45-.62,3.68-2.47-2.45-1.24-2.45-3.09-1.84-4.94.61-2.47,0-6.18,0-11.12a2.12,2.12,0,0,1-1.22-.62c2.44-1.23,3.06-2.47,3.06-4.32l-1.84-3.7a27.64,27.64,0,0,1-1.22-6.18c0-1.24-.62-3.09,0-4.32a3.66,3.66,0,0,0-1.23-3.09c1.84-.62,3.67-6.79,3.67-8.65l.62-5.55Zm-6.73-218H333v2.47H336Zm5.5,200.07-1.22-2.47-1.22,1.23-1.84,1.24,1.22.62V304Zm66.1,4.94h-3.67v1.23a2.12,2.12,0,0,1,1.22.62.6.6,0,0,1,.61-.62C406.39,308.92,406.39,308.92,407.61,307.69Zm9.79,56.81h-1.83a2.23,2.23,0,0,1-1.84-.62v1.85l2.45.62C417.4,365.73,417.4,365.73,417.4,364.5Zm12.24-24.08v1.85H429a.87.87,0,0,1,0-1.24C429.64,341,429.64,341,429.64,340.42Z"/></g></g></svg>