<?xml version="1.0" encoding="utf-8"?>
<!-- Generator: Adobe Illustrator 18.0.0, SVG Export Plug-In . SVG Version: 6.00 Build 0)  -->
<!DOCTYPE svg PUBLIC "-//W3C//DTD SVG 1.1//EN" "http://www.w3.org/Graphics/SVG/1.1/DTD/svg11.dtd">
<svg version="1.1" id="Layer_1" xmlns="http://www.w3.org/2000/svg" xmlns:xlink="http://www.w3.org/1999/xlink" x="0px" y="0px"
	 viewBox="0 0 1400 980" enable-background="new 0 0 1400 980" xml:space="preserve">
<path fill="none" d="M1300.5,344.3c-4.8,0.8-8.6,4.6-9.4,9.4c-1.3,7.9,5.4,14.6,13.3,13.3c4.8-0.8,8.6-4.6,9.4-9.4
	C1315.1,349.7,1308.4,343,1300.5,344.3z"/>
<g>
	<rect width="1400" height="980"/>
	<g>
		<path fill="#FDD836" d="M859.1,381.1l33.7-76.4l-8.4,4.8c-8,4.6-16.3,8.4-24.8,11.4l17.9-63.2c6.4-22.6,0.8-46.5-14.9-64
			c-15.7-17.5-38.9-25.5-62-21.6l-32.4,5.5c-12.9-6.2-27.3-8.6-42.1-6.8l-3.7,0.5c-0.3-1.1-0.9-2.2-1.6-3.1v-24.3h26.7
			c4.4,0,8-3.6,8-8s-3.6-8-8-8h-26.7v-26.7c0-4.4-3.6-8-8-8s-8,3.6-8,8v26.7H678c-4.4,0-8,3.6-8,8s3.6,8,8,8h26.7v24.3
			c-0.7,0.9-1.2,2-1.6,3.1l-3.7-0.5c-14.8-1.8-29.3,0.6-42.1,6.8l-32.4-5.5c-23.1-3.9-46.3,4.1-62,21.6
			c-15.7,17.5-21.2,41.4-14.9,64l17.9,63.2c-8.5-3-16.8-6.8-24.8-11.4l-8.4-4.8l33.7,76.4c-9.8,4.4-16.6,14.3-16.6,25.7v0
			c0,15.6,12.7,28.3,28.3,28.3h269.5c15.6,0,28.3-12.7,28.3-28.3v0C875.7,395.4,868.9,385.5,859.1,381.1z M728.5,190.7
			c11.6-1.5,23,0.7,33,6c0.1,0,0.1,0.1,0.2,0.1c5.2,2.8,10.1,6.5,14.3,11c12.3,13.1,17.4,30.8,14,48.4l-13.4,70.1
			c-19-4.1-37.3-11.8-53.8-23.2V191.4L728.5,190.7z M696.9,190.7l5.8,0.7v111.7c-16.5,11.3-34.8,19.1-53.8,23.2l-13.4-70.1
			c-3.4-17.7,1.7-35.3,14-48.4C661.8,194.7,679.1,188.5,696.9,190.7z M587,374.6c-6.4,0-11.7-5.2-11.7-11.7
			c0-6.4,5.2-11.7,11.7-11.7c6.4,0,11.7,5.2,11.7,11.7C598.7,369.4,593.5,374.6,587,374.6z M588.4,327.1l-21.1-74.8
			c-4.5-16-0.6-32.8,10.5-45.2s27.5-18,43.8-15.3l13.4,2.3c0,0,0,0,0,0C618.2,212,611.3,236,615.9,260l13.3,69.3
			C615.6,330.4,601.9,329.7,588.4,327.1z M649,374.6c-6.4,0-11.7-5.2-11.7-11.7c0-6.4,5.2-11.7,11.7-11.7c6.4,0,11.7,5.2,11.7,11.7
			C660.7,369.4,655.5,374.6,649,374.6z M712.7,374.6c-6.4,0-11.7-5.2-11.7-11.7c0-6.4,5.2-11.7,11.7-11.7c6.4,0,11.7,5.2,11.7,11.7
			C724.4,369.4,719.2,374.6,712.7,374.6z M776.4,374.6c-6.4,0-11.7-5.2-11.7-11.7c0-6.4,5.2-11.7,11.7-11.7s11.7,5.2,11.7,11.7
			C788,369.4,782.8,374.6,776.4,374.6z M796.3,329.3l13.3-69.3c4.6-24-2.3-48-19.1-65.9c0,0,0,0,0,0l13.4-2.3
			c16.3-2.8,32.7,2.9,43.8,15.3c11.1,12.3,15,29.2,10.5,45.2L837,327.1C823.5,329.7,809.8,330.4,796.3,329.3z M838.4,374.6
			c-6.4,0-11.7-5.2-11.7-11.7c0-6.4,5.2-11.7,11.7-11.7s11.7,5.2,11.7,11.7C850,369.4,844.8,374.6,838.4,374.6z"/>
		<g>
			<path fill="#FDD836" d="M108.7,368.2l15.2,47.4h140.5h140.5l15.2-47.4H264.4H108.7z M145.4,399.7c-4.3,0-7.8-3.5-7.8-7.8
				c0-4.3,3.5-7.8,7.8-7.8s7.8,3.5,7.8,7.8C153.2,396.2,149.7,399.7,145.4,399.7z M184.9,399.7c-4.3,0-7.8-3.5-7.8-7.8
				c0-4.3,3.5-7.8,7.8-7.8s7.8,3.5,7.8,7.8C192.7,396.2,189.2,399.7,184.9,399.7z M224.4,399.7c-4.3,0-7.8-3.5-7.8-7.8
				c0-4.3,3.5-7.8,7.8-7.8s7.8,3.5,7.8,7.8C232.2,396.2,228.7,399.7,224.4,399.7z M383.4,384.2c4.3,0,7.8,3.5,7.8,7.8
				c0,4.3-3.5,7.8-7.8,7.8s-7.8-3.5-7.8-7.8C375.7,387.6,379.1,384.2,383.4,384.2z M344,384.2c4.3,0,7.8,3.5,7.8,7.8
				c0,4.3-3.5,7.8-7.8,7.8s-7.8-3.5-7.8-7.8C336.2,387.6,339.7,384.2,344,384.2z M304.5,384.2c4.3,0,7.8,3.5,7.8,7.8
				c0,4.3-3.5,7.8-7.8,7.8s-7.8-3.5-7.8-7.8C296.7,387.6,300.2,384.2,304.5,384.2z M272.2,391.9c0,4.3-3.5,7.8-7.8,7.8
				s-7.8-3.5-7.8-7.8c0-4.3,3.5-7.8,7.8-7.8S272.2,387.6,272.2,391.9z"/>
			<path fill="#FDD836" d="M402.8,421.2H264.4H126.1c-3.3,0-5.9,2.7-5.9,5.9s2.7,5.9,5.9,5.9h138.4h138.4c3.3,0,5.9-2.7,5.9-5.9
				S406.1,421.2,402.8,421.2z"/>
			<path fill="#FDD836" d="M421.5,350.5h-3.5c56.6-74.8,54.5-151.3,22.1-173.4c-23.1-15.7-50.1-3.9-71.7,0.9
				c-0.4-0.3-0.8-0.6-1.2-0.9c-17.7-12-37.6-7.9-55.7-3.2c2.6-5,5.4-10,8.4-14.8l0,0l-44.8,8.1c-4.6-11.1-7.2-21.2-7.2-30.4
				c3.7,0,7.4,0.3,11.3,1c-5.3,0.7-9.5,5.4-9.5,10.8c0,5.9,5,10.9,10.9,10.9c5.9,0,10.9-5,10.9-10.9c0-3.8-2-7.1-5-9.1
				c5.9,1.6,11.9,4.1,18.2,7.3V120c-6.8,3.3-13.4,5.8-19.7,7.5c3.7-1.8,6.1-5.5,6.1-9.8c0-5.9-4.5-10.9-10.9-10.9
				c-5.9,0-10.4,5-10.4,10.9c0,5.9,4.5,10.9,10.4,10.9c0.1,0,0.3,0,0.4,0c-4.3,0.9-8.5,1.4-12.6,1.4c0-11.3,3.6-23.6,10-36.8h-13.4
				H251c6.4,13.2,10,25.4,10,36.8c-4.1,0-8.3-0.5-12.6-1.4c0.1,0,0.3,0,0.4,0c5.9,0,10.4-5,10.4-10.9c0-5.9-4.5-10.9-10.4-10.9
				c-6.4,0-10.9,5-10.9,10.9c0,4.3,2.4,8,6.1,9.8c-6.3-1.7-12.9-4.3-19.7-7.5v26.8c6.3-3.2,12.3-5.7,18.2-7.3c-3,2-5,5.4-5,9.1
				c0,5.9,5,10.9,10.9,10.9c5.9,0,10.9-5,10.9-10.9c0-5.4-4.2-10.1-9.5-10.8c3.9-0.7,7.6-1,11.3-1c0,9.2-2.6,19.3-7.2,30.4
				l-44.8-8.1l0,0c3,4.8,5.8,9.8,8.4,14.8c-18.1-4.7-38-8.8-55.7,3.2c-0.4,0.3-0.8,0.6-1.2,0.9c-21.7-4.7-48.6-16.6-71.7-0.9
				c-32.5,22.1-34.6,98.6,22.1,173.4h-3.5c-3.3,0-5.9,2.7-5.9,5.9s2.7,5.9,5.9,5.9h157.1h157.1c3.3,0,5.9-2.7,5.9-5.9
				S424.8,350.5,421.5,350.5z M432.1,188.4c37.9,37.9,10.1,107.5-25,162.1h-62c49.6-65.6,54.1-132.4,32.7-162.8
				C395.6,184.9,419,177.7,432.1,188.4z M305.4,186.3c19.6-3.1,42.5-7.2,53.8,2.1c37.9,37.9,10.1,107.5-25,162.1h-50.3v-63.9
				C283.8,251.9,291.2,217.7,305.4,186.3z M169.7,188.4c11.3-9.2,34.1-5.2,53.8-2.1c14.2,31.4,21.6,65.6,21.6,100.2v63.9h-50.3
				C159.6,295.9,131.8,226.3,169.7,188.4z M96.8,188.4c13.1-10.7,36.5-3.5,54.3-0.7c-21.5,30.4-16.9,97.2,32.7,162.8h-62
				C86.6,295.9,58.8,226.3,96.8,188.4z"/>
		</g>
		<circle fill="#FDD836" cx="1183.5" cy="271.1" r="13.7"/>
		<circle fill="#FDD836" cx="1157.2" cy="401.1" r="11.5"/>
		<circle fill="#FDD836" cx="1051.8" cy="401.1" r="11.5"/>
		<circle fill="#FDD836" cx="1104.5" cy="401.1" r="11.5"/>
		<circle fill="#FDD836" cx="1209.8" cy="401.1" r="11.5"/>
		<circle fill="#FDD836" cx="1262.5" cy="401.1" r="11.5"/>
		<path fill="#FDD836" d="M1347.6,199.7c0,0-52.5,23-40.4,51.4c0,0-22.5-3.6-28,18c-5,16.7,6.4,31.5,11,44.7
			c3.8,10.9-6.5,21.6-18.8,19.3c-4.1-0.7-8.4-1.5-12.6-2.1c4.7-8.4,7.8-22.1,7.8-27.3c0-7.8-6.9-14.2-15.5-14.2s-15.5,6.3-15.5,14.2
			c0,4.8,2.7,16.8,6.7,25.2c-3.7-0.4-6.4-0.6-7.6-0.6c-8.8-0.9-18.2-1.8-28.1-2.4c0,0,0,0-0.1,0c-1-0.2-2-0.5-2.9-0.7
			c-0.7-0.2-1.4-0.4-2.1-0.6c-0.6-0.2-1.3-0.4-1.9-0.6c-0.7-0.2-1.4-0.5-2.1-0.7c-0.6-0.2-1.2-0.4-1.7-0.7c-0.7-0.3-1.4-0.6-2-0.9
			c-0.5-0.2-1-0.5-1.5-0.7c-0.7-0.4-1.4-0.7-2.1-1.1c-0.4-0.2-0.9-0.4-1.3-0.7c-0.9-0.6-1.8-1.1-2.7-1.8c-0.1-0.1-0.3-0.2-0.4-0.3
			c-1-0.7-1.9-1.5-2.8-2.3c-0.3-0.3-0.6-0.6-0.9-0.8c-0.6-0.5-1.1-1.1-1.6-1.7c-0.3-0.4-0.6-0.7-0.9-1.1c-0.4-0.6-0.9-1.1-1.3-1.7
			c-0.3-0.4-0.5-0.8-0.8-1.3c-0.4-0.6-0.7-1.2-1.1-1.8c-0.2-0.5-0.5-0.9-0.7-1.4c-0.3-0.6-0.6-1.3-0.8-2c-0.2-0.5-0.4-1-0.5-1.5
			c-0.2-0.7-0.4-1.4-0.6-2.2c-0.1-0.5-0.3-1.1-0.4-1.6c-0.2-0.8-0.3-1.6-0.4-2.4c-0.1-0.6-0.2-1.2-0.2-1.8c0,0,0-0.1,0-0.1
			c1.2-11.6,16-18.2,14.2-5.9c-0.4,1.5-1,3.2-1.8,5c-0.4,1-0.7,2-0.7,3.1c0,0,0,0,0,0c-3,6.8,3.8,20.9,12.4,24.1
			c24.7,9.2,30.4-14.3,26.6-20.2c-0.4-2.2-1.7-3.8-4-3.2c-6.3,1.6-11.9,0.8-14.9-1.4c0.9-0.8,2.1-1.7,3.7-2.7
			c11-7.1,20.2-23.7,16.4-35.6c-0.3-2.8-1.2-5.6-3.1-8.3c-11.7-16.7-33.8-15.1-46.9-3.6c4.6-11.3,6-22.4,5.1-27.9c0,0,0,0,0,0
			c-0.3-16.2-17.1-19.3-25.2-31.7c-8.2,12.4-24.9,15.5-25.2,31.7c0,0,0,0,0,0c-0.9,5.4,0.5,16.6,5.1,27.9
			c-13-11.6-35.2-13.2-46.9,3.6c-1.9,2.6-2.8,5.4-3.1,8.3c-3.8,11.9,5.3,28.5,16.4,35.6c1.6,1,2.8,1.9,3.7,2.7
			c-3,2.2-8.6,3-14.9,1.4c-2.2-0.6-3.6,1-4,3.2c-3.8,5.9,1.9,29.3,26.6,20.2c8.6-3.2,15.4-17.3,12.4-24.1c0,0,0,0,0,0
			c-0.1-1-0.3-2.1-0.7-3.1c-0.8-1.8-1.4-3.5-1.8-5c-1.7-12.3,13.1-5.7,14.2,5.9c0,0,0,0.1,0,0.1c-0.1,0.6-0.2,1.2-0.2,1.8
			c-0.1,0.8-0.2,1.7-0.4,2.4c-0.1,0.6-0.3,1.1-0.4,1.6c-0.2,0.7-0.4,1.5-0.6,2.2c-0.2,0.5-0.4,1-0.5,1.5c-0.3,0.7-0.5,1.3-0.8,2
			c-0.2,0.5-0.4,0.9-0.7,1.4c-0.3,0.6-0.7,1.2-1.1,1.8c-0.3,0.4-0.5,0.9-0.8,1.3c-0.4,0.6-0.9,1.1-1.3,1.7c-0.3,0.4-0.6,0.7-0.9,1.1
			c-0.5,0.6-1.1,1.1-1.6,1.7c-0.3,0.3-0.6,0.6-0.9,0.8c-0.9,0.8-1.8,1.5-2.8,2.3c-0.1,0.1-0.3,0.2-0.4,0.3c-0.9,0.6-1.8,1.2-2.7,1.8
			c-0.4,0.2-0.8,0.5-1.3,0.7c-0.7,0.4-1.4,0.8-2.1,1.1c-0.5,0.2-1,0.5-1.5,0.7c-0.7,0.3-1.3,0.6-2,0.9c-0.6,0.2-1.2,0.4-1.7,0.7
			c-0.7,0.3-1.4,0.5-2.1,0.7c-0.6,0.2-1.3,0.4-1.9,0.6c-0.7,0.2-1.4,0.4-2.1,0.6c-1,0.3-1.9,0.5-2.9,0.7c0,0,0,0-0.1,0
			c-9.9,0.7-19.3,1.5-28.1,2.4c-1.2,0-3.9,0.2-7.6,0.6c4-8.4,6.7-20.3,6.7-25.2c0-7.8-6.9-14.2-15.5-14.2s-15.5,6.3-15.5,14.2
			c0,5.3,3.1,18.9,7.8,27.3c-4.2,0.6-8.6,1.3-12.6,2.1c-12.3,2.3-22.6-8.4-18.8-19.3c4.6-13.1,16-28,11-44.7c-5.5-21.7-28-18-28-18
			c12-28.4-40.4-51.4-40.4-51.4c22,35.5,34,125.6,37.3,165.3h-4.7v68.9H1315V365h-4.7C1313.6,325.3,1325.6,235.2,1347.6,199.7z
			 M1016.5,411.5c-6.7,0-12.1-5.4-12.1-12.1c0-6.7,5.4-12.1,12.1-12.1c6.7,0,12.1,5.4,12.1,12.1
			C1028.6,406.1,1023.2,411.5,1016.5,411.5z M1071.8,411.5c-6.7,0-12.1-5.4-12.1-12.1c0-6.7,5.4-12.1,12.1-12.1
			c6.7,0,12.1,5.4,12.1,12.1C1083.9,406.1,1078.5,411.5,1071.8,411.5z M1154.7,248.8c7.9,0,14.3,6.4,14.3,14.3
			c0,7.9-6.4,14.3-14.3,14.3s-14.3-6.4-14.3-14.3C1140.3,255.2,1146.7,248.8,1154.7,248.8z M1127,411.5c-6.7,0-12.1-5.4-12.1-12.1
			c0-6.7,5.4-12.1,12.1-12.1c6.7,0,12.1,5.4,12.1,12.1C1139.1,406.1,1133.7,411.5,1127,411.5z M1182.3,411.5
			c-6.7,0-12.1-5.4-12.1-12.1c0-6.7,5.4-12.1,12.1-12.1c6.7,0,12.1,5.4,12.1,12.1C1194.3,406.1,1188.9,411.5,1182.3,411.5z
			 M1154.7,368.9l-45.4-33h90.8L1154.7,368.9z M1237.5,411.5c-6.7,0-12.1-5.4-12.1-12.1c0-6.7,5.4-12.1,12.1-12.1
			c6.7,0,12.1,5.4,12.1,12.1C1249.6,406.1,1244.2,411.5,1237.5,411.5z M1304.7,401.5c-0.8,5-4.9,9-9.9,9.9
			c-8.3,1.4-15.3-5.7-13.9-13.9c0.8-5,4.9-9,9.8-9.9C1299,386.2,1306,393.2,1304.7,401.5z"/>
		<path fill="#FDD836" d="M456.1,708.4c10.5,0,21.2-7.8,24-17.6c2.9-10.1-3.7-18.4-14.7-18.4c-11,0-21.9,8.3-24.2,18.4
			c-1.5,6.4,0.9,11.9,5.5,14.9l-2.8,1.9c-25.5,17.4-57.9,9.9-64.5-14.3c10-0.9,19.1-8.6,20.8-18.2c1.8-10.5-5.8-19.2-17-19.2
			c-11.3,0-21.5,8.7-22.8,19.2c-1.1,9.1,4.9,16.6,13.9,18c-28.8,22-70.1,18.4-89.8-9.1l-13.3-18.5c7.8-2.7,13.6-9.8,13.8-18.5
			c0.3-11.3-8.9-20.6-20.6-20.6c-11.7,0-20.9,9.4-20.6,20.6c0.2,8.6,6,15.8,13.8,18.4l-13.3,18.5c-19.7,27.5-61,31.1-89.8,9.1
			c9-1.4,15-8.9,13.9-18c-1.3-10.5-11.5-19.2-22.8-19.2c-11.3,0-18.9,8.7-17,19.2c1.7,9.6,10.8,17.3,20.8,18.2
			c-6.6,24.2-38.9,31.7-64.5,14.3l-2.8-1.9c4.7-3.1,7-8.6,5.5-14.9c-2.3-10.1-13.2-18.4-24.2-18.4s-17.6,8.3-14.7,18.4
			c2.8,9.8,13.5,17.6,24,17.6c1.5,0,2.8-0.2,4.1-0.4c17.7,27.2,27.1,54.2,28,78.8l0.2,4.8H85l4.6,16.8H105l10.5,42.2h-14l3.8,13.9
			H424l3.8-13.9h-14.9l10.4-42.2h15.5l4.5-16.8h-19.5l0.2-4.8c1-24.5,10.3-51.6,28-78.8C453.3,708.3,454.7,708.4,456.1,708.4z
			 M137.7,836.8c-4.9,0-9.6-3-10.4-6.7c-0.8-3.8,2.6-6.9,7.6-6.9c5,0,9.7,3.1,10.4,6.9C146,833.9,142.6,836.8,137.7,836.8z
			 M169.4,832.2c-1.5,0-2.9-0.9-3-2c-0.2-1.1,0.9-2.1,2.4-2.1s2.9,0.9,3,2.1C172,831.3,170.9,832.2,169.4,832.2z M202.1,836.8
			c-4.9,0-9.2-3-9.7-6.7c-0.4-3.8,3.3-6.9,8.3-6.9c5,0,9.4,3.1,9.7,6.9C210.7,833.9,207,836.8,202.1,836.8z M234.5,832.2
			c-1.5,0-2.8-0.9-2.8-2c-0.1-1.1,1.1-2.1,2.6-2.1c1.5,0,2.8,0.9,2.8,2.1C237.1,831.3,236,832.2,234.5,832.2z M266.4,836.8
			c-4.9,0-8.9-3-9-6.7c0-3.8,4-6.9,9-6.9c5,0,9,3.1,9,6.9C275.4,833.9,271.4,836.8,266.4,836.8z M299.5,832.2c-1.5,0-2.7-0.9-2.6-2
			c0.1-1.1,1.3-2.1,2.8-2.1c1.5,0,2.7,0.9,2.6,2.1C302.3,831.3,301,832.2,299.5,832.2z M330.8,836.8c-4.9,0-8.6-3-8.3-6.7
			c0.4-3.8,4.7-6.9,9.7-6.9c5,0,8.7,3.1,8.3,6.9C340.1,833.9,335.7,836.8,330.8,836.8z M364.6,832.2c-1.5,0-2.6-0.9-2.4-2
			c0.2-1.1,1.5-2.1,3.1-2.1s2.6,0.9,2.4,2.1C367.5,831.3,366.1,832.2,364.6,832.2z M395.2,836.8c-4.9,0-8.3-3-7.6-6.7
			c0.7-3.8,5.4-6.9,10.5-6.9s8.4,3.1,7.5,6.9C404.8,833.9,400.1,836.8,395.2,836.8z M398.7,756c6.6-15.3,17.6-27.2,24.3-26
			c6.7,1.2,6.2,14.9-0.8,30.1c-6.7,14.5-17.1,24.9-23.3,23.9C392.6,782.9,392.4,770.6,398.7,756z M325.7,750.7
			c5.8-18.2,17.4-32.5,25.6-31c8.1,1.5,9.1,17.9,2.6,35.8c-6.2,17.1-17.1,29.3-24.5,28.1C321.9,782.4,320.2,768,325.7,750.7z
			 M264.4,686.5c12.7,0,22.3,24.3,21.4,52.2c-0.8,25.9-10.4,45.5-21.4,45.5c-11.1,0-20.7-19.6-21.4-45.5
			C242.2,710.8,251.7,686.5,264.4,686.5z M177.6,719.7c8.1-1.5,19.7,12.8,25.6,31c5.6,17.3,3.8,31.7-3.7,32.9
			c-7.4,1.2-18.3-11-24.5-28.1C168.4,737.6,169.4,721.2,177.6,719.7z M105.9,730c6.8-1.2,17.8,10.7,24.3,26
			c6.3,14.6,6.1,26.9-0.2,28c-6.3,1-16.6-9.4-23.3-23.9C99.6,745,99.1,731.2,105.9,730z"/>
		<path fill="#FDD836" d="M928.5,653.5c-4.7-14-24.7-14.7-33.3-9c2.1,8.2-6.5,17.2-11.8,17.9c2.9-9.7,3.6-33-19.7-12.9
			c12.2,0,15,16.1,2.9,17.6c-1.1,0-2.1,1.1-3.2,1.1c-31.9,0-15.4-35.1-3.6-20.8c9.3-19.3-14-22.6-24.4-5.7
			c-5.4-8.6,0-25.4,13.3-21.1c3.2-15-3.6-31.9-6.8-35.8c-9.3,2.9-25.1,12.2-29,22.2c14,5.4,6.1,22.9-2.5,25.4
			c2.2-16.1-14.3-39.8-31.9-12.9c20.4-3.9,11.5,23.6-8.6,18.6c-16.8-3.9-15-30.8,1.4-20.8c0.4-33.3-33.3-20.1-34.7,2.5
			c-16.8-10.4-17.9-26.1,2.5-26.1c-0.4-9.3-14.2-35.5-26.3-37.2c-12.1,1.7-26,27.9-26.3,37.2c20.4,0,19.3,15.8,2.5,26.1
			c-1.4-22.6-35.1-35.8-34.7-2.5c16.5-10,18.3,16.8,1.4,20.8c-20.1,5-29-22.6-8.6-18.6c-17.6-26.9-34-3.2-31.9,12.9
			c-8.6-2.5-16.5-20.1-2.5-25.4c-3.9-10-19.7-19.3-29-22.2c-3.2,3.9-10,20.8-6.8,35.8c13.3-4.3,18.6,12.5,13.3,21.1
			c-10.4-16.8-33.7-13.6-24.4,5.7c11.8-14.3,28.3,20.8-3.6,20.8c-1.1,0-2.1-1.1-3.2-1.1c-12.2-1.4-9.3-17.6,2.9-17.6
			c-23.3-20.1-22.6,3.2-19.7,12.9c-5.4-0.7-14-9.7-11.8-17.9c-8.6-5.7-28.7-5-33.3,9c25.4,2.5,39.2,24.6,46,44.9l11.7,88.1h-18.5
			l3.4,20.6h8.3l8.9,57.5h-7.8l2.9,17.8h322l2.9-17.8h-7.8l8.9-57.5h8.3l3.4-20.6h-18.5l11.7-88.1
			C889.3,678.1,903.1,656,928.5,653.5z M841.8,851.5h-1.8v0h-3.2h-3.2v0h-1.8c3-5.3,4.9-10,5.4-14.3c-4.3,0-9.1,1.3-14.3,3.9
			l1.1-10.6c4.7,2.5,9.2,4,13.5,4c0.5-4.5-0.3-9.5-2.1-14.8h5.1h5.1c-3.1,5.4-5.1,10.3-5.7,14.8c4.3,0,9.1-1.4,14.5-4l-1.4,10.6
			c-4.6-2.7-9.1-3.9-13.4-3.9C839.4,841.4,840.1,846.2,841.8,851.5z M800.5,851.5h-1.8v0h-3.2h-3.2v0h-1.8c2.8-5.3,4.5-10,4.9-14.3
			c-4.3,0-9,1.3-14.2,3.9l0.7-10.6c4.8,2.5,9.4,4,13.7,4c0.4-4.5-0.6-9.5-2.7-14.8h5.1h5.1c-2.9,5.4-4.7,10.3-5.1,14.8
			c4.3,0,9.1-1.4,14.3-4l-1,10.6c-4.7-2.7-9.2-3.9-13.5-3.9C797.6,841.4,798.5,846.2,800.5,851.5z M759.1,851.5h-1.8v0h-3.2h-3.2v0
			h-1.8c2.6-5.3,4.1-10,4.3-14.3c-4.3,0-9,1.3-14,3.9l0.3-10.6c4.9,2.5,9.5,4,13.8,4c0.2-4.5-1-9.5-3.3-14.8h5.1h5.1
			c-2.7,5.4-4.3,10.3-4.5,14.8c4.3,0,9-1.4,14.1-4l-0.6,10.6c-4.8-2.7-9.4-3.9-13.7-3.9C755.8,841.4,756.9,846.2,759.1,851.5z
			 M717.7,851.5h-1.8v0h-3.2h-3.2v0h-1.8c2.4-5.3,3.7-10,3.7-14.3c-4.3,0-8.9,1.3-13.8,3.9l-0.2-10.6c5,2.5,9.7,4,14,4
			c0-4.5-1.4-9.5-3.9-14.8h5.1h5.1c-2.5,5.4-3.9,10.3-3.9,14.8c4.3,0,9-1.4,14-4l-0.2,10.6c-4.9-2.7-9.5-3.9-13.8-3.9
			C714,841.4,715.3,846.2,717.7,851.5z M676.3,851.5h-1.8v0h-3.2h-3.2v0h-1.8c2.1-5.3,3.3-10,3.1-14.3c-4.3,0-8.9,1.3-13.7,3.9
			l-0.6-10.6c5.1,2.5,9.8,4,14.1,4c-0.2-4.5-1.8-9.5-4.5-14.8h5.1h5.1c-2.2,5.4-3.4,10.3-3.3,14.8c4.3,0,8.9-1.4,13.8-4l0.3,10.6
			c-5-2.7-9.7-3.9-14-3.9C672.2,841.4,673.8,846.2,676.3,851.5z M634.9,851.5h-1.8v0H630h-3.2v0H625c1.9-5.3,2.9-10,2.5-14.3
			c-4.3,0-8.8,1.3-13.5,3.9l-1-10.6c5.2,2.5,10,4,14.3,4c-0.4-4.5-2.2-9.5-5.1-14.8h5.1h5.1c-2,5.4-3,10.3-2.7,14.8
			c4.3,0,8.8-1.4,13.7-4l0.7,10.6c-5.1-2.7-9.9-3.9-14.2-3.9C630.4,841.4,632.2,846.2,634.9,851.5z M593.6,851.5h-1.8v0h-3.2h-3.2v0
			h-1.8c1.7-5.3,2.5-10,2-14.3c-4.3,0-8.8,1.3-13.4,3.9l-1.4-10.6c5.3,2.5,10.2,4,14.5,4c-0.6-4.5-2.5-9.5-5.7-14.8h5.1h5.1
			c-1.8,5.4-2.6,10.3-2.1,14.8c4.3,0,8.8-1.4,13.5-4l1.1,10.6c-5.3-2.7-10-3.9-14.3-3.9C588.6,841.4,590.6,846.2,593.6,851.5z
			 M844,680.9c5.1,0,9.3,4.2,9.3,9.3c0,5.1-4.2,9.3-9.3,9.3c-5.1,0-9.3-4.2-9.3-9.3C834.7,685.1,838.8,680.9,844,680.9z
			 M696.4,732.6c-0.1-9,7.2-16.4,16.2-16.4h0.1h0.1c9,0,16.3,7.4,16.2,16.4l-0.7,53.9h-31.2L696.4,732.6z M803.4,716.2h0.1
			c9.5,0,17,8.1,16.1,17.6l-4.6,52.8H784l3.3-55.1C787.8,722.8,794.9,716.2,803.4,716.2z M784.9,670.2c8.1,0,14.7,6.6,14.7,14.7
			c0,8.1-6.6,14.7-14.7,14.7c-8.1,0-14.7-6.6-14.7-14.7C770.2,676.7,776.8,670.2,784.9,670.2z M758,716.2h0.2
			c9.3,0,16.6,7.8,16.2,17l-2.7,53.3h-31.2l1.3-54.5C742,723.2,749.2,716.2,758,716.2z M712.7,654c12.6,0,22.8,10.2,22.8,22.8
			s-10.2,22.8-22.8,22.8s-22.8-10.2-22.8-22.8S700.1,654,712.7,654z M667.2,716.2h0.2c8.8,0,16,7,16.2,15.8l1.3,54.5h-31.2
			l-2.7-53.3C650.6,723.9,658,716.2,667.2,716.2z M640.5,670.2c8.1,0,14.7,6.6,14.7,14.7c0,8.1-6.6,14.7-14.7,14.7
			c-8.1,0-14.7-6.6-14.7-14.7C625.8,676.7,632.4,670.2,640.5,670.2z M621.9,716.2h0.1c8.6,0,15.7,6.7,16.2,15.2l3.3,55.1h-31.2
			l-4.6-52.8C604.9,724.3,612.4,716.2,621.9,716.2z M581.5,680.9c5.1,0,9.3,4.2,9.3,9.3c0,5.1-4.2,9.3-9.3,9.3s-9.3-4.2-9.3-9.3
			C572.2,685.1,576.3,680.9,581.5,680.9z M560.5,734.3c-1.2-9.7,6.3-18.2,16.1-18.2c8.3,0,15.3,6.3,16.1,14.6l5.4,55.7h-31.2
			L560.5,734.3z M827.4,786.5l5.4-55.7c0.8-8.3,7.8-14.6,16.1-14.6c9.7,0,17.3,8.5,16.1,18.2l-6.4,52.2H827.4z"/>
		<path fill="#FDD836" d="M1337,661.5c-13.2-13.2-31.8-18.1-49.8-13.1l-22.1,6.2c-3.4-10.4-9.4-20-17.8-27.8
			c-17-16-40.6-21.9-63.1-15.9c-1.7,0.5-3.4,1-5,1.7c0.1-0.5,0.1-1,0.1-1.6c0-7-4.4-12.9-10.6-15.2c5.5,0,12.6,0.2,21.5,0.8h0.8
			v-3.3c-8.6-2.1-14.8-5.3-18.9-10.7c-4.1-5.3-6.2-13.6-6.2-23.4c10.3,0,18.1,2.1,23.4,5.8c5.4,4.1,9,10.3,10.7,18.9h3.3
			c-0.4-5.3-0.4-10.7-0.4-15.2c-0.4-4.5-0.4-8.6-0.4-12.7c0-4.1,0-8.2,0.4-12.7c0-4.5,0-9.5,0.4-15.2h-3.3
			c-1.7,8.6-5.3,14.8-10.7,18.9c-5.3,4.1-13.2,6.2-23.4,6.2c0-10.3,2.1-18.1,6.2-23.4c4.1-5.3,10.3-9,18.9-10.7v-3.3
			c-6.2,0.4-11.1,0.4-15.6,0.4c-4.5,0.4-8.6,0.4-12.3,0.4s-7.8,0-12.3-0.4c-4.5,0-9.5,0-15.6-0.4v3.3c8.6,1.6,14.8,5.3,18.9,10.7
			c4.1,5.3,6.2,13.2,6.2,23.4c-10.3,0-18.1-2.1-23.4-6.2c-5.4-4.1-9-10.3-10.7-18.9h-3.3c0.4,5.8,0.4,10.7,0.4,15.2
			c0.4,4.5,0.4,8.6,0.4,12.7c0,4.1,0,8.2-0.4,12.7c0,4.5,0,9.9-0.4,15.2h3.3c1.7-8.6,5.3-14.8,10.7-18.9c5.3-3.7,13.2-5.8,23.4-5.8
			c0,9.9-2.1,18.1-6.2,23.4c-4.1,5.3-10.3,8.6-18.9,10.7v3.3h0.8c8.9-0.6,16.1-0.8,21.5-0.8c-6.2,2.3-10.6,8.2-10.6,15.2
			c0,0.5,0,1.1,0.1,1.6c-1.6-0.6-3.3-1.2-5-1.7c-22.5-6-46.1-0.1-63.1,15.9c-8.3,7.8-14.3,17.4-17.8,27.8l-22.1-6.2
			c-18-5-36.6-0.1-49.8,13.1c-13.2,13.2-18,31.8-12.9,49.8l21.6,76.2h-14.5v17.4h13.8v64.4h-13.8v17.4h354.7v-17.4h-13.8v-64.4h13.8
			v-17.4h-9.7l21.6-76.2C1355.1,693.4,1350.2,674.7,1337,661.5z M1016,846.1c-4.2,0-7.7-3.4-7.7-7.7s3.4-7.7,7.7-7.7
			s7.7,3.4,7.7,7.7S1020.3,846.1,1016,846.1z M1000.6,704.5c-2.6-9.1-0.1-18.5,6.5-25.1c6.7-6.7,16-9.1,25.1-6.6l25.7,7.2
			c0.2,3,0.6,6,1.2,8.9l19.9,98.7h-55L1000.6,704.5z M1047.7,840.7c-1.3,0-2.3-1-2.3-2.3c0-1.3,1-2.3,2.3-2.3s2.3,1,2.3,2.3
			C1050,839.7,1049,840.7,1047.7,840.7z M1079.4,846.1c-4.2,0-7.7-3.4-7.7-7.7s3.4-7.7,7.7-7.7s7.7,3.4,7.7,7.7
			S1083.6,846.1,1079.4,846.1z M1083.9,683.8c-2.9-14.3,1.7-28.7,12.3-38.7c10.6-10,25.3-13.7,39.4-9.9c8.8,2.4,15,10.4,15,19.6
			v132.7h-45.8L1083.9,683.8z M1117.4,840.7c-1.3,0-2.3-1-2.3-2.3c0-1.3,1-2.3,2.3-2.3c1.3,0,2.3,1,2.3,2.3
			C1119.7,839.7,1118.7,840.7,1117.4,840.7z M1179.7,851l-16.5,12.6l-16.5-12.6v-25.1l16.5-12.6l16.5,12.6V851z M1208.9,840.7
			c-1.3,0-2.3-1-2.3-2.3c0-1.3,1-2.3,2.3-2.3c1.3,0,2.3,1,2.3,2.3C1211.3,839.7,1210.2,840.7,1208.9,840.7z M1175.8,787.5V654.8
			c0-9.2,6.2-17.2,15-19.6c14-3.8,28.8,0,39.4,9.9c10.6,10,15.2,24.4,12.3,38.7l-20.9,103.6H1175.8z M1246.9,846.1
			c-4.2,0-7.7-3.4-7.7-7.7s3.4-7.7,7.7-7.7s7.7,3.4,7.7,7.7S1251.2,846.1,1246.9,846.1z M1278.6,840.7c-1.3,0-2.3-1-2.3-2.3
			c0-1.3,1-2.3,2.3-2.3c1.3,0,2.3,1,2.3,2.3C1280.9,839.7,1279.9,840.7,1278.6,840.7z M1310.3,846.1c-4.2,0-7.7-3.4-7.7-7.7
			s3.4-7.7,7.7-7.7s7.7,3.4,7.7,7.7S1314.5,846.1,1310.3,846.1z M1325.7,704.4l-23.5,83h-55l19.9-98.7c0.6-3,1-6,1.2-8.9l25.7-7.2
			c9.1-2.5,18.5-0.1,25.1,6.6S1328.3,695.4,1325.7,704.4z"/>
	</g>
</g>
</svg>
