<?xml version="1.0" encoding="utf-8"?>
<!-- Generator: Adobe Illustrator 24.0.1, SVG Export Plug-In . SVG Version: 6.00 Build 0)  -->
<svg version="1.1" id="Capa_1" xmlns="http://www.w3.org/2000/svg" xmlns:xlink="http://www.w3.org/1999/xlink" x="0px" y="0px"
	 viewBox="0 0 465 465" style="enable-background:new 0 0 465 465;" xml:space="preserve">
<style type="text/css">
	.st0{fill:#231F20;}
</style>
<g>
	<path class="st0" d="M272.8,135.8c-0.5-0.6-1.3-0.9-2-0.8c-0.7,0.2-1.2,0.7-1.2,1.4c0.1,11.5-5.8,21.9-15.8,28.1l11.7,24.5
		c8.3-5.7,13.6-14.2,15.1-23.9C282.2,155.3,279.4,144.8,272.8,135.8z M264.7,185.4c-1.6-6.4-4.6-12.5-8.7-18
		c9.3-5.8,15.3-15,16.8-25.3C281.1,157.3,277.9,175.1,264.7,185.4z"/>
	<path class="st0" d="M229.3,127.4c0.3-0.7-0.1-1.4-0.9-1.8c-0.8-0.4-1.9-0.3-2.7,0.1c-11.3,6.8-18.7,16.3-21,26.7
		c-2.2,10.1,0.7,20.2,8,28.5l23.6-20.6C227.3,151,224.6,138.8,229.3,127.4z M232.7,162.3c-7.1,4.1-13,9.2-17.4,15
		c-11.2-14.4-7.8-33.1,8.1-45.5C220.9,142.6,224.2,153.6,232.7,162.3z"/>
	<path class="st0" d="M268.8,160.2c-0.1,0.4-0.3,0.8-0.6,1.2c-0.5,0.8-1,1.6-1.5,2.3c2-1.4,3.5-3.4,4.1-5.6L268.8,160.2z"/>
	<path class="st0" d="M264.4,164.9c0.7-0.3,1.4-0.6,2.1-1l1.3-2.5L264.4,164.9z"/>
	<path class="st0" d="M268.6,173.9c0.9-1.1,1.9-2.2,2.8-3.3c0.5-0.6,1-1.3,0.8-2L268.6,173.9z"/>
	<path class="st0" d="M266,164.9c0.3-0.4,0.5-0.8,0.8-1.2c-0.1,0.1-0.2,0.1-0.3,0.2L266,164.9z"/>
	<path class="st0" d="M268.8,159.4l-1,2l1.1-1.2C268.9,159.9,268.9,159.6,268.8,159.4z"/>
	<path class="st0" d="M275.3,160.1c0.5-0.7,0.9-1.6,0.4-2.1l-3.1,6.1C273.5,162.8,274.4,161.5,275.3,160.1z"/>
	<path class="st0" d="M214.2,157.2l-1.7-5.1C212.3,154.3,213,156.3,214.2,157.2z"/>
	<path class="st0" d="M216.3,148.1l-0.4-5.4C215.2,144.9,215.3,147,216.3,148.1z"/>
	<path class="st0" d="M221.5,155.6l-2-5C219.5,152.9,220.2,154.8,221.5,155.6z"/>
	<g>
		<path class="st0" d="M209.9,236.4l4.1-74.3c0.1-1.2,0.7-2,1.9-2.3l12-2.9c6.1-1.4,12.4-1.8,17.9-1.3c10.7,1.2,17.8,8.5,20.4,17.2
			c2.6,8.6,3,19.7,0,31.8c-3.1,12.1-9.6,20.6-15.5,25.9c-5.8,5.3-12.5,7.2-17.9,7.9c-2.8,0.2-5.4,0.5-8,0.5h-12.5
			C210.8,238.9,209.9,237.9,209.9,236.4z M213.5,215.3v-0.1c-0.1,0-0.1,0-0.1-0.1v-0.1C212.9,214.9,213.2,215.3,213.5,215.3z
			 M216.8,233.4c-0.1,0-0.4-0.1-0.7-0.2c-0.1,0-0.4,0-0.6,0.1c-0.1,0.1-0.4,0.1-0.6,0.1s0.6,0.4,1,0.4c0.2,0,0.5,0,0.6-0.1
			C216.6,233.5,216.7,233.4,216.8,233.4z M214.9,225.7l0.6,0.1l0.1-0.1l-0.7-0.2V225.7z M217.3,229.5c0-0.1-0.1-0.4-0.2-0.7
			c-0.1-0.2-0.2-0.5-0.1-0.7h-1.1c-0.2,0-0.6,0-1-0.1c0.1,0.1,0.1,0.2,0.1,0.4c0,0.2,0.1,0.4,0.1,0.4c0.1,0.2,0.2,0.7,0.4,1.4
			c0.1,0.5,0.4,0.7,0.6,1c0.1-0.4,0.4-0.7,0.7-1C217.1,229.8,217.3,229.6,217.3,229.5z M216.1,186.4v-0.8c0-0.6,0.1-1.9,0.2-3.2
			c0.1-0.6,0.1-1,0.1-1.2c0,0.1,0.6-2.2,0.6-2.5c0.1-0.4-0.4-1.1-0.6-1.6l-1.3,10.6c0.1-0.1,0.1-0.2,0.2-0.1c0.2,0,0.2,0,0.2-0.1
			C215.9,187,216,186.6,216.1,186.4z M217.3,198.4c-0.5-0.5-1-0.7-1.4-1v1h0.7C216.8,198.5,217.1,198.5,217.3,198.4z M219.5,226.5
			c0-0.6-0.8-1-1.1-1c-0.6,0-1,0.2-1,0.7v0.2c0.1,0,0.1,0.1,0.1,0.2c0.5,0,1-0.1,1.3-0.1C219.2,226.5,219.5,226.5,219.5,226.5z
			 M220.4,161.3l0.2,0.2l0.1-0.1l-0.4-0.2V161.3z M224.7,162.9c-0.4-0.4-0.8-0.6-1.2-0.6c-0.1,0.1-0.2,0.1-0.2,0.1h-0.2v0.1
			c0,0.1,0,0.2,0.1,0.2v0.2C224.1,163,224.6,162.9,224.7,162.9z M226.2,209.2c0-0.2-0.2-0.5-0.5-0.6H225c-0.2,0.2-0.2,0.4-0.1,0.4
			c0,0.2,0.1,0.4,0.1,0.5c0.1,0,0.2-0.1,0.5-0.1C225.8,209.2,226.1,209.2,226.2,209.2z M225.9,224.7c0.2-0.4,0.1-0.6-0.5-0.6v0.5
			C225.7,224.7,225.8,224.7,225.9,224.7z M232.3,176.5l-0.1,2.2h-0.1c-0.4,0.5-0.8,0.7-1.4,1c0.5,1,0.8,1.6,0.8,1.9
			c0,0.2,0.2,0.4,0.5,0.5l-1.8,28.2h-1c-0.5,0.4-0.8,0.6-0.8,0.7v0.6c0,0.4,0.1,0.6,0.2,0.8c0.2,0.5,0.6,0.7,1.2,0.7h0.1l-0.2,4.9
			c7.2-1.3,11.3-4.4,13.8-10c1.3-2.8,2.4-5.3,3.1-7.7c0.8-3.1,1.4-6.1,1.7-8.8c0.1,0.2,0.2,0.4,0.4,0.4c0.1,0.2,0.4,0.4,0.6,0.4
			c0.4,0,1.2-0.1,1.2-0.8c0-0.2-0.5-0.6-1.6-0.8c-0.4,0.4-0.5,0.6-0.5,0.6c0.4-5.5-0.5-8.6-1.8-12.4c-1.4-3.8-4.3-4.2-8.5-3.5
			C235.9,175.8,234,176.2,232.3,176.5z M231.7,161.2H231c-0.2,0.5-0.4,0.6-0.4,1c0,0.2,0.6,0.4,1,0.4v-0.4
			C231.7,162.1,231.7,161.8,231.7,161.2z M236.7,232.6c0-0.2-0.1-0.4-0.2-0.4c0,0-0.1,0-0.2,0.1c-0.1,0-0.2,0.1-0.4,0.1h0.4
			C236.5,232.6,236.6,232.6,236.7,232.6z M237.8,166.2l1.3,0.1l0.2-1h-1.3L237.8,166.2z M246.1,162.1c0-0.2,0-0.4-0.1-0.5
			c-0.1-0.1-0.1-0.2-0.1-0.5H245c-0.2,0-0.4,0.2-0.4,0.6s0.1,0.6,0.4,0.8C245.6,162.4,246.1,162.3,246.1,162.1z M246.7,160.2V160
			c-0.1,0-0.1-0.1-0.1-0.2v-0.2c-0.2,0-0.4-0.1-0.5-0.1c-0.1-0.1-0.2-0.1-0.2-0.1c-0.5,0.4-0.6,0.5-0.8,0.8c0.4,0.1,0.6,0.1,0.8,0.1
			H246.7z M249.5,178.6c-0.4-0.1-0.6-0.1-0.8,0.1c0.2,0.1,0.5,0.2,0.7,0.2c0.1,0,0.2,0,0.2-0.2C249.6,178.6,249.6,178.6,249.5,178.6
			z M249.3,209.5c-0.2-0.1-0.5-0.1-0.6-0.1v0.5c0.2,0,0.2,0,0.5-0.2C249.2,209.7,249.3,209.7,249.3,209.5z M250.5,187.2v-1
			c0-0.1-0.1-0.2-0.1-0.2c-0.1,0-0.2-0.1-0.2-0.1c-0.2,0.2-0.5,0.4-0.8,0.4c-0.1,0-0.4-0.1-0.5-0.2c0.2,0.4,0.4,0.6,0.2,0.8
			c0,0.1,0.4,0.4,1.1,0.6L250.5,187.2z M253.1,191.1l-1-0.5c0,0,0-0.1-0.1-0.4c-0.1-0.1-0.1-0.4-0.2-0.6c-0.2-0.5-0.7-0.7-1.2-0.7
			h-0.2c0,0.1-0.1,0.1-0.1,0.1c0.1,0.2,0.2,0.2,0.5,0.4c0.1,0,0.1,0.1,0.1,0.2c0,0.1,0,0.2-0.1,0.4c-0.1,0-0.1,0.1-0.1,0.2
			c0,0.2,0.6,1.4,1.3,1.4c0.2,0,0.4,0,0.5-0.1h0.4C252.9,191.4,253.1,191.3,253.1,191.1z M250.4,209.2l-0.2,0.2c0,0,0,0.1,0.2,0.2
			C250.5,209.5,250.5,209.4,250.4,209.2z M252.3,180.6l-0.2-0.2h-0.7c-0.4,0-0.6,0.1-0.6,0.5c0.1,0,0.1,0.1,0.1,0.1l0.1,0.1h0.7
			C251.9,181.1,252,180.9,252.3,180.6z M252.5,196.6c-0.1,0-0.1,0-0.1-0.1h-0.6l-0.2,0.2c0.1,0,0.1,0,0.2,0.1c0,0.1,0.1,0.1,0.4,0.1
			C252.3,196.9,252.5,196.8,252.5,196.6z M252.6,205l-0.5-0.4c-0.1,0-0.2,0.1-0.4,0.1c0,0-0.1,0.1-0.2,0.1v0.2l0.2,0.4
			C252.1,205.3,252.3,205.2,252.6,205z M252.3,174.3v-0.5h-0.2v0.5H252.3z M255,181.1c0-0.1,0-0.2-0.2-0.2c-0.2,0-0.5-0.1-0.5-0.2
			l-0.2-0.2c0-0.1,0-0.2-0.2-0.4h-0.5c-0.2,0-0.4,0.1-0.5,0.2c0,0.1-0.1,0.2-0.4,0.4c0.8,0.2,1.3,0.5,1.3,1.2
			C254,181.9,255,181.7,255,181.1z M254.5,207c-0.1,0-0.4-0.2-0.7-0.5c-0.5-0.5-0.7-0.7-0.6-0.5c-0.2,0.1-0.5,0.7-0.5,1
			c0,0.2,0.5,0.7,0.8,0.5C253.7,207.3,254,207,254.5,207z M254,195.3v-0.5c-0.1-0.1-0.2-0.2-0.2-0.4c-0.1-0.1-0.4-0.1-0.5-0.1
			l-0.5,0.1c0,0.4,0,0.6,0.1,0.7c0,0.1,0.1,0.2,0.1,0.2h0.6C253.8,195.4,253.9,195.3,254,195.3z M254.6,186.6c0,0-0.1-0.1-0.4-0.1
			c-0.2-0.1-0.2-0.1-0.5-0.1c-0.4,0.2-0.5,0.5-0.5,0.6c0,0.5,0.2,0.6,0.7,0.4l0.5-0.5C254.5,186.7,254.6,186.7,254.6,186.6z
			 M254,204.1h1.2c0-0.1,0-0.2-0.1-0.2c0-0.1-0.1-0.2-0.1-0.2c-0.2,0-0.4,0-0.5-0.1v-0.1c0.1,0,0.1,0,0.1-0.1s-0.2-0.4-0.6-0.5
			c-0.1,0.1-0.1,0.1-0.2,0.1c0,0.1,0,0.2-0.1,0.2c-0.1,0.1-0.1,0.2-0.1,0.4s0,0.2,0.2,0.4L254,204.1z M254.7,198.7
			c0-0.1,0-0.2-0.1-0.2c-0.1,0-0.1-0.1-0.2-0.1h-0.7c0,0.2,0.1,0.5,0.4,0.7h0.2l0.1-0.1h0.1l0.1-0.1h0.1V198.7z M254.9,195.9
			c-0.1,0-0.2,0.1-0.4,0.1s-0.2,0.1-0.2,0.1c0.2,0.2,0.4,0.5,0.5,0.6C255,196.5,255,196.1,254.9,195.9z M256.2,211.1v-0.4l-0.2-0.4
			c0-0.1-0.2-0.2-0.4-0.2h-1c-0.2,0.1-0.4,0.2-0.4,0.5c0,0.5,0.2,0.7,1,0.7C255.5,211.3,255.7,211.2,256.2,211.1z M254.7,193.6
			l-0.4-0.1v0.1l0.2,0.1L254.7,193.6z M256.4,198.7v-0.4c-0.2,0-0.4-0.2-0.4-0.4l-0.2-0.4h-0.5c-0.2,0.1-0.4,0.4-0.4,0.5
			c0,0.2,0,0.5-0.1,0.6c0,0.1,1,0,1.3,0H256.4z M255.6,192.7l0.7-0.1v-0.4c0.1-0.1,0-0.2,0-0.4c-0.4,0-0.7,0.1-1,0.2
			c0.1,0.2,0.1,0.2,0.1,0.4C255.5,192.5,255.5,192.6,255.6,192.7z M258.2,174.1c0-0.1-0.1-0.2-0.1-0.5v-0.6
			c-0.6,0.2-1.2,0.4-1.8,0.4c-0.2,0.1-0.4,0.4-0.6,0.5l-0.2,0.5c0,0.7,0.7,0.7,1.1,0.7C257.4,175.1,258.2,174.9,258.2,174.1z
			 M258.1,202.6c0-0.1-0.1-0.1-0.2-0.1c-0.2,0-0.2-0.1-0.2-0.1c-0.2-1.3-0.4-2-0.4-2.5h-0.1c-0.1,0-0.2,0-0.2-0.1h-0.1
			c-0.1,0-0.4,0-0.5,0.1c0.1,0.4,0.1,0.5,0.2,0.6c0.1,0.1,0.1,0.2,0.1,0.4c0,0.2,0,0.2-0.2,0.5c-0.1,0-0.1,0.1-0.1,0.2v1.6
			c0,0.4,0.2,0.5,0.8,0.8h0.4c0-0.4,0.1-0.6,0.2-0.7C258,202.9,258.1,202.7,258.1,202.6z M257.5,214.7v-0.5h-0.7v0.2
			c-0.1,0.1-0.1,0.1-0.1,0.2H257.5z M258.1,177.7c-0.2-0.2-0.5-0.2-0.7-0.2l-0.5,0.2c0.1,0,0.2,0.1,0.2,0.2l0.2,0.4L258.1,177.7z
			 M257.6,205v-0.7h-0.2v0.7H257.6z M258.6,202c-0.2,0-0.4,0.1-0.5,0.1l0.2,0.2v-0.1l0.1-0.1C258.5,202.1,258.5,202,258.6,202z
			 M259.4,180.1c-0.2-0.2-0.4-0.2-0.4-0.5c-0.2,0-0.6,0.2-0.7,0.5c0,0.2,0.1,0.5,0.5,0.5C259.1,180.5,259.2,180.4,259.4,180.1z
			 M259.1,182.1v-0.5c-0.1-0.2-0.2-0.4-0.2-0.5c-0.2,0.1-0.4,0.4-0.4,0.6C258.5,181.9,258.6,182.1,259.1,182.1z M259.8,186.1v-0.6
			c-0.1-0.1-0.4-0.1-0.7-0.1c-0.2,0-0.5,0.1-0.5,0.4c0,0.1,0.1,0.1,0.2,0.4c0,0,0.2,0.1,0.6,0.1
			C259.5,186.3,259.7,186.1,259.8,186.1z M260.3,200.5c0-0.2-0.4-0.7-1.2-0.7h-0.2c0,0,0,0.1-0.1,0.1v0.8c0.2,0.1,0.4,0.2,0.6,0.2
			c0,0,0.1-0.1,0.5-0.1C260,200.8,260.3,200.7,260.3,200.5z M261.9,188.1v-0.4c-0.1-0.1-0.2-0.1-0.5-0.1h-0.1l-0.1,0.1
			C261.5,187.9,261.7,188.2,261.9,188.1z M262.2,197.7c0-0.2-0.1-0.4-0.4-0.4l-0.2,0.2C261.6,197.7,261.8,197.7,262.2,197.7z"/>
	</g>
</g>
</svg>
